<?xml version="1.0" standalone="no"?>
<!DOCTYPE svg PUBLIC "-//W3C//DTD SVG 1.1//EN" "http://www.w3.org/Graphics/SVG/1.1/DTD/svg11.dtd" >
<svg xmlns="http://www.w3.org/2000/svg" xmlns:xlink="http://www.w3.org/1999/xlink" version="1.1">
<metadata>
Created by FontForge 20170731 at Wed Sep  7 16:18:49 2022
 By Aleksey,,,
(c) 2021 Microsoft Corporation. All Rights Reserved.
</metadata>
<defs>
<font id="CaskaydiaCoveNerdFontComplete-Regular" horiz-adv-x="1200" >
  <font-face 
    font-family="CaskaydiaCove Nerd Font"
    font-weight="400"
    font-stretch="normal"
    units-per-em="2048"
    panose-1="0 0 0 0 0 0 0 0 0 0"
    ascent="1638"
    descent="-410"
    x-height="1060"
    cap-height="1420"
    bbox="-1852 -989 4520 2304"
    underline-thickness="100"
    underline-position="-250"
    unicode-range="U+000D-FFFD"
  />
<missing-glyph 
d="M128 0v1420h944v-1420h-944zM860 190v1040h-520v-1040h520z" />
    <glyph glyph-name="uni0620.init" unicode="&#x620;" 
d="M-12 -6q-19 0 -26 27.5t-7 86.5q0 50 13 74t32 24q187 0 311 3.5t218 13.5t145 24t82 41.5t40 58t9 79.5q0 111 -59 360l189 35q70 -243 70 -404q0 -119 -32.5 -194t-119.5 -122q49 -47 49 -126t-48.5 -125t-124.5 -46q-77 0 -124.5 46.5t-47.5 124.5q0 23 5 46
q-202 -27 -574 -27zM729 -82q27 0 42.5 15t15.5 42t-15.5 42t-41.5 15q-27 0 -43.5 -15.5t-16.5 -41.5q0 -27 17 -42t42 -15z" />
    <glyph glyph-name="uni0620.medi" unicode="&#x620;" 
d="M-12 -6l12 212q127 0 203 1.5t139.5 8t93 15t50.5 27.5t25.5 40.5t5.5 58.5l8 330l197 4l-5 -324q0 -58 5 -87.5t25.5 -47.5t49.5 -22t89 -4h314q37 0 56 -25.5t19 -65.5q0 -121 -87 -121h-325q-130 0 -194 38.5t-88 118.5h-25q-30 -59 -83 -90q49 -47 49 -126
t-48.5 -125t-124.5 -46q-77 0 -124.5 46.5t-47.5 124.5q0 34 11 64q-73 -5 -200 -5zM349 -122q27 0 42.5 15t15.5 42t-15.5 42t-41.5 15q-27 0 -43.5 -15.5t-16.5 -41.5q0 -27 17 -42t42 -15z" />
    <glyph glyph-name="uni0620.fina" unicode="&#x620;" 
d="M497 -410q-132 0 -224.5 28.5t-144.5 84t-75 125.5t-23 162q0 141 44 284h178q-27 -175 -27 -245q0 -63 12 -104t44.5 -72.5t91.5 -45t151 -13.5q213 0 329 43.5t116 108.5q0 34 -37.5 49t-148.5 26l35 195q152 -10 382 -10q102 0 102 -99q0 -52 -29.5 -82.5t-84.5 -30.5
q-8 0 -23.5 0.5t-22.5 0.5q5 -23 5 -45q0 -153 -173 -256.5t-477 -103.5zM564 -787q-77 0 -124.5 46.5t-47.5 124.5q0 77 49 124t123 47q76 0 124.5 -45.5t48.5 -125.5q0 -79 -48.5 -125t-124.5 -46zM564 -673q27 0 42.5 15t15.5 42t-15.5 42t-41.5 15q-27 0 -43.5 -15.5
t-16.5 -41.5q0 -27 17 -42t42 -15z" />
    <glyph glyph-name="uniFE82" unicode="&#x622;" arabic-form="final" 
d="M1188 -7h-77q-301 0 -431 10q-208 17 -284 98.5t-78 284.5l-8 812h206l8 -747q1 -76 7.5 -117.5t29 -70.5t60 -39.5t104.5 -13.5q117 -5 397 -5h78q55 0 55 -85q0 -60 -17.5 -93.5t-49.5 -33.5zM493 1264q-60 0 -143.5 33.5t-108.5 33.5q-8 0 -15 -0.5t-15 -3t-13 -3.5
t-13.5 -6t-12.5 -7t-14 -8.5t-13.5 -9t-16 -11.5t-16.5 -12l-9 123q42 47 78 68t78 21q45 0 121.5 -33.5t123.5 -33.5q51 0 97.5 20t114.5 61l10 -135q-50 -46 -114 -71.5t-119 -25.5z" />
    <glyph glyph-name="uniFE84" unicode="&#x623;" arabic-form="final" 
d="M1188 -7h-77q-301 0 -431 10q-208 17 -284 98.5t-78 284.5l-8 812h206l8 -747q1 -76 7.5 -117.5t29 -70.5t60 -39.5t104.5 -13.5q117 -5 397 -5h78q55 0 55 -85q0 -60 -17.5 -93.5t-49.5 -33.5zM216 1238l-11 120l94 24v13q-72 25 -72 121q0 83 59 129.5t155 46.5
q64 0 127 -24l-6 -114q-54 7 -94 7q-65 0 -90 -16t-25 -55q0 -37 17 -51.5t55 -14.5q34 0 181 27l14 -125z" />
    <glyph glyph-name="uniFE86" unicode="&#x624;" arabic-form="final" 
d="M426 -480q-157 0 -266 46l15 182q127 -26 233 -26q176 0 285.5 63.5t145.5 208.5h-190q-168 0 -233 74.5t-65 238.5q0 112 39.5 205t115.5 149.5t174 56.5q165 0 253.5 -135t96.5 -378l170 1q47 0 66 -23t19 -85q0 -56 -24 -80t-71 -24h-172q-38 -230 -189 -352
t-403 -122zM470 804l-11 120l94 24v13q-72 25 -72 121q0 83 59 129.5t155 46.5q64 0 127 -24l-6 -114q-54 7 -94 7q-65 0 -90 -16t-25 -55q0 -37 17 -51.5t55 -14.5q34 0 181 27l14 -125zM854 203q-6 160 -49 231.5t-128 71.5q-69 0 -109.5 -48.5t-40.5 -129.5
q0 -75 32.5 -100t133.5 -25h161z" />
    <glyph glyph-name="uniFE88" unicode="&#x625;" arabic-form="final" 
d="M1188 -6h-77q-301 0 -431 10q-107 9 -174.5 31t-110 68t-59.5 112.5t-18 170.5l-8 1034h206l8 -969q1 -51 3.5 -83.5t11 -61t21.5 -44t36 -27.5t53.5 -17t75.5 -7q117 -5 397 -5h78q55 0 55 -95q0 -117 -67 -117zM263 -568l-11 120l94 24v13q-72 25 -72 121
q0 83 59 129.5t155 46.5q64 0 127 -24l-6 -114q-54 7 -94 7q-65 0 -90 -16t-25 -55q0 -37 17 -51.5t55 -14.5q34 0 181 27l14 -125z" />
    <glyph glyph-name="uniFE8B" unicode="&#x626;" arabic-form="initial" 
d="M-12 -6q-19 0 -26 27.5t-7 86.5q0 50 13 74t32 24q187 0 311 3.5t218 13.5t145 24t82 41.5t40 58t9 79.5q0 111 -59 360l189 35q70 -243 70 -404q0 -84 -14 -141t-54 -108t-109.5 -81t-184.5 -52.5t-273.5 -31.5t-381.5 -9zM635 911l-11 120l94 24v13q-72 25 -72 121
q0 83 59 129.5t155 46.5q64 0 127 -24l-6 -114q-54 7 -94 7q-65 0 -90 -16t-25 -55q0 -37 17 -51.5t55 -14.5q34 0 181 27l14 -125z" />
    <glyph glyph-name="uniFE8C" unicode="&#x626;" arabic-form="medial" 
d="M-12 -6l12 212q127 0 203 1.5t139.5 8t93 15t50.5 27.5t25.5 40.5t5.5 58.5l8 330l197 4l-5 -324q0 -58 5 -87.5t25.5 -47.5t49.5 -22t89 -4h314q37 0 56 -25.5t19 -65.5q0 -121 -87 -121h-325q-130 0 -194 38.5t-88 118.5h-25q-32 -61 -90 -94t-170 -48t-308 -15z
M430 789l-11 120l94 24v13q-72 25 -72 121q0 83 59 129.5t155 46.5q64 0 127 -24l-6 -114q-54 7 -94 7q-65 0 -90 -16t-25 -55q0 -37 17 -51.5t55 -14.5q34 0 181 27l14 -125z" />
    <glyph glyph-name="uniFE8A" unicode="&#x626;" arabic-form="final" 
d="M497 -410q-132 0 -224.5 28.5t-144.5 84t-75 125.5t-23 162q0 141 44 284h178q-27 -175 -27 -245q0 -63 12 -104t44.5 -72.5t91.5 -45t151 -13.5q213 0 329 43.5t116 108.5q0 34 -37.5 49t-148.5 26l35 195q152 -10 382 -10q102 0 102 -99q0 -52 -29.5 -82.5t-84.5 -30.5
q-8 0 -23.5 0.5t-22.5 0.5q5 -23 5 -45q0 -153 -173 -256.5t-477 -103.5zM-26 364l-11 120l94 24v13q-72 25 -72 121q0 83 59 129.5t155 46.5q64 0 127 -24l-6 -114q-54 7 -94 7q-65 0 -90 -16t-25 -55q0 -37 17 -51.5t55 -14.5q34 0 181 27l14 -125z" />
    <glyph glyph-name="uniFE8E" unicode="&#x627;" arabic-form="final" 
d="M1188 -6h-77q-301 0 -431 10q-107 9 -174.5 31t-110 68t-59.5 112.5t-18 170.5l-8 1034h206l8 -969q1 -51 3.5 -83.5t11 -61t21.5 -44t36 -27.5t53.5 -17t75.5 -7q117 -5 397 -5h78q55 0 55 -95q0 -117 -67 -117z" />
    <glyph glyph-name="uniFE91" unicode="&#x628;" arabic-form="initial" 
d="M-12 -6q-19 0 -26 27.5t-7 86.5q0 50 13 74t32 24q187 0 311 3.5t218 13.5t145 24t82 41.5t40 58t9 79.5q0 111 -59 360l189 35q70 -243 70 -404q0 -84 -14 -141t-54 -108t-109.5 -81t-184.5 -52.5t-273.5 -31.5t-381.5 -9zM770 -429l-161 161l161 162l161 -162z" />
    <glyph glyph-name="uniFE92" unicode="&#x628;" arabic-form="medial" 
d="M-12 -6l12 212q127 0 203 1.5t139.5 8t93 15t50.5 27.5t25.5 40.5t5.5 58.5l8 330l197 4l-5 -324q0 -58 5 -87.5t25.5 -47.5t49.5 -22t89 -4h314q37 0 56 -25.5t19 -65.5q0 -121 -87 -121h-325q-130 0 -194 38.5t-88 118.5h-25q-32 -61 -90 -94t-170 -48t-308 -15z
M590 -429l-161 161l161 162l161 -162z" />
    <glyph glyph-name="uniFE90" unicode="&#x628;" arabic-form="final" 
d="M529 -6q-289 0 -404 92t-115 318q0 138 44 261h178q-27 -177 -27 -254q0 -117 68.5 -161t255.5 -44q111 0 183 5t115 12.5t64 25.5t27 35.5t7 50.5l10 332l187 4l-6 -352q-1 -72 16.5 -92.5t67.5 -20.5q40 0 57.5 -19.5t17.5 -71.5q0 -121 -87 -121q-78 0 -127.5 36
t-71.5 120l-25 -1q-33 -48 -44 -59q-83 -86 -327 -95q-31 -1 -64 -1zM580 -429l-161 161l161 162l161 -162z" />
    <glyph glyph-name="uniFE94" unicode="&#x629;" arabic-form="final" 
d="M574 157q-389 0 -389 289q0 161 148.5 256t474.5 171l-2 114h206l4 -627q0 -53 7 -82t30 -46t54.5 -21.5t92.5 -4.5q42 0 58.5 -19.5t16.5 -71.5q0 -63 -19 -92t-68 -29q-198 0 -279 53.5t-91 194.5h-26q-22 -47 -74.5 -66t-143.5 -19zM810 675q-233 -44 -339.5 -93.5
t-106.5 -116.5q0 -57 55 -76.5t194 -19.5q89 0 202 12zM854 1050l-125 125l-125 -125l-155 154l155 156l125 -126l125 126l155 -156z" />
    <glyph glyph-name="uniFE97" unicode="&#x62a;" arabic-form="initial" 
d="M-12 -6q-19 0 -26 27.5t-7 86.5q0 50 13 74t32 24q187 0 311 3.5t218 13.5t145 24t82 41.5t40 58t9 79.5q0 111 -59 360l189 35q70 -243 70 -404q0 -84 -14 -141t-54 -108t-109.5 -81t-184.5 -52.5t-273.5 -31.5t-381.5 -9zM960 927l-125 125l-125 -125l-155 154l155 156
l125 -126l125 126l155 -156z" />
    <glyph glyph-name="uniFE98" unicode="&#x62a;" arabic-form="medial" 
d="M-12 -6l12 212q127 0 203 1.5t139.5 8t93 15t50.5 27.5t25.5 40.5t5.5 58.5l8 330l197 4l-5 -324q0 -58 5 -87.5t25.5 -47.5t49.5 -22t89 -4h314q37 0 56 -25.5t19 -65.5q0 -121 -87 -121h-325q-130 0 -194 38.5t-88 118.5h-25q-32 -61 -90 -94t-170 -48t-308 -15z
M755 805l-125 125l-125 -125l-155 154l155 156l125 -126l125 126l155 -156z" />
    <glyph glyph-name="uniFE96" unicode="&#x62a;" arabic-form="final" 
d="M529 -6q-289 0 -404 92t-115 318q0 138 44 261h178q-27 -177 -27 -254q0 -117 68.5 -161t255.5 -44q111 0 183 5t115 12.5t64 25.5t27 35.5t7 50.5l10 332l187 4l-6 -352q-1 -72 16.5 -92.5t67.5 -20.5q40 0 57.5 -19.5t17.5 -71.5q0 -121 -87 -121q-78 0 -127.5 36
t-71.5 120l-25 -1q-33 -48 -44 -59q-83 -86 -327 -95q-31 -1 -64 -1zM715 675l-125 125l-125 -125l-155 154l155 156l125 -126l125 126l155 -156z" />
    <glyph glyph-name="uniFE9B" unicode="&#x62b;" arabic-form="initial" 
d="M-12 -6q-19 0 -26 27.5t-7 86.5q0 50 13 74t32 24q187 0 311 3.5t218 13.5t145 24t82 41.5t40 58t9 79.5q0 111 -59 360l189 35q70 -243 70 -404q0 -84 -14 -141t-54 -108t-109.5 -81t-184.5 -52.5t-273.5 -31.5t-381.5 -9zM960 927l-125 125l-125 -125l-155 154l155 156
l125 -126l125 126l155 -156zM836 1187l-148 148l148 149l148 -149z" />
    <glyph glyph-name="uniFE9C" unicode="&#x62b;" arabic-form="medial" 
d="M-12 -6l12 212q127 0 203 1.5t139.5 8t93 15t50.5 27.5t25.5 40.5t5.5 58.5l8 330l197 4l-5 -324q0 -58 5 -87.5t25.5 -47.5t49.5 -22t89 -4h314q37 0 56 -25.5t19 -65.5q0 -121 -87 -121h-325q-130 0 -194 38.5t-88 118.5h-25q-32 -61 -90 -94t-170 -48t-308 -15z
M755 805l-125 125l-125 -125l-155 154l155 156l125 -126l125 126l155 -156zM631 1065l-148 148l148 149l148 -149z" />
    <glyph glyph-name="uniFE9A" unicode="&#x62b;" arabic-form="final" 
d="M529 -6q-289 0 -404 92t-115 318q0 138 44 261h178q-27 -177 -27 -254q0 -117 68.5 -161t255.5 -44q111 0 183 5t115 12.5t64 25.5t27 35.5t7 50.5l10 332l187 4l-6 -352q-1 -72 16.5 -92.5t67.5 -20.5q40 0 57.5 -19.5t17.5 -71.5q0 -121 -87 -121q-78 0 -127.5 36
t-71.5 120l-25 -1q-33 -48 -44 -59q-83 -86 -327 -95q-31 -1 -64 -1zM715 675l-125 125l-125 -125l-155 154l155 156l125 -126l125 126l155 -156zM591 935l-148 148l148 149l148 -149z" />
    <glyph glyph-name="uniFE9F" unicode="&#x62c;" arabic-form="initial" 
d="M-20 -6q-50 0 -50 111q0 48 18 74.5t52 26.5q162 0 302 46t339 149q124 65 186 93v18q-85 5 -201 44q-25 8 -74 26t-75 26.5t-65.5 16.5t-75.5 8q-54 0 -94 -11t-102 -40l-8 161q92 95 225 95q64 0 129.5 -24.5t150 -65t156.5 -61.5q91 -27 162 -33.5t191 -3.5l-3 -201
q-83 -21 -145.5 -44.5t-159.5 -76.5q-66 -36 -175 -99.5t-169 -95.5t-148.5 -69.5t-176.5 -53.5t-189 -16zM680 -329l-161 161l161 162l161 -162z" />
    <glyph glyph-name="uniFEA0" unicode="&#x62c;" arabic-form="medial" 
d="M1188 -6q-102 0 -170.5 20t-109.5 63.5t-60.5 99.5t-29.5 140q-57 -31 -144 -82t-136 -78.5t-124 -63.5t-134 -54t-137.5 -31.5t-162.5 -13.5q-50 0 -50 111q0 48 18 74.5t52 26.5q162 0 302 46t339 149q124 65 186 93v18q-85 5 -201 44q-25 8 -74 26t-75 26.5
t-65.5 16.5t-75.5 8q-54 0 -94 -11t-102 -40l-8 161q92 95 225 95q64 0 129.5 -24.5t150 -65t156.5 -61.5q91 -27 162 -33.5t191 -3.5l-3 -201q-96 -23 -159 -50q12 -115 53.5 -154t162.5 -39q41 0 58 -14t17 -57q0 -79 -23 -110t-64 -31zM680 -329l-161 161l161 162
l161 -162z" />
    <glyph glyph-name="uniFE9E" unicode="&#x62c;" arabic-form="final" 
d="M1188 -6q-107 0 -174 19t-110 69t-62 125t-28 198q-296 -89 -441 -210t-145 -314q0 -114 45 -181t154.5 -100.5t300.5 -33.5q57 0 122 5.5t102.5 11t107.5 17t86 13.5l-2 -175q-72 -31 -199 -54t-247 -23q-344 0 -504 111t-160 369q0 120 35.5 218.5t98.5 172t161 133.5
t212 103t263 80v14q-80 7 -195 41q-10 3 -48.5 14.5t-50 14.5t-41.5 11t-46.5 10.5t-40.5 5t-46 2.5q-123 0 -246 -88l-18 153q107 140 292 140q65 0 130.5 -21t152 -59t154.5 -58q90 -27 160.5 -34t184.5 -3l-3 -201q-150 -35 -160 -38q4 -61 8.5 -98t15.5 -67t23.5 -44
t38.5 -23.5t54 -11.5t77 -2q41 0 58 -14t17 -57q0 -79 -23 -110t-64 -31zM615 -237l-161 161l161 162l161 -162z" />
    <glyph glyph-name="uniFEA3" unicode="&#x62d;" arabic-form="initial" 
d="M-20 -6q-50 0 -50 111q0 48 18 74.5t52 26.5q162 0 302 46t339 149q124 65 186 93v18q-85 5 -201 44q-25 8 -74 26t-75 26.5t-65.5 16.5t-75.5 8q-54 0 -94 -11t-102 -40l-8 161q92 95 225 95q64 0 129.5 -24.5t150 -65t156.5 -61.5q91 -27 162 -33.5t191 -3.5l-3 -201
q-83 -21 -145.5 -44.5t-159.5 -76.5q-66 -36 -175 -99.5t-169 -95.5t-148.5 -69.5t-176.5 -53.5t-189 -16z" />
    <glyph glyph-name="uniFEA4" unicode="&#x62d;" arabic-form="medial" 
d="M1188 -6q-102 0 -170.5 20t-109.5 63.5t-60.5 99.5t-29.5 140q-57 -31 -144 -82t-136 -78.5t-124 -63.5t-134 -54t-137.5 -31.5t-162.5 -13.5q-50 0 -50 111q0 48 18 74.5t52 26.5q162 0 302 46t339 149q124 65 186 93v18q-85 5 -201 44q-25 8 -74 26t-75 26.5
t-65.5 16.5t-75.5 8q-54 0 -94 -11t-102 -40l-8 161q92 95 225 95q64 0 129.5 -24.5t150 -65t156.5 -61.5q91 -27 162 -33.5t191 -3.5l-3 -201q-96 -23 -159 -50q12 -115 53.5 -154t162.5 -39q41 0 58 -14t17 -57q0 -79 -23 -110t-64 -31z" />
    <glyph glyph-name="uniFEA2" unicode="&#x62d;" arabic-form="final" 
d="M1188 -6q-107 0 -174 19t-110 69t-62 125t-28 198q-296 -89 -441 -210t-145 -314q0 -114 45 -181t154.5 -100.5t300.5 -33.5q57 0 122 5.5t102.5 11t107.5 17t86 13.5l-2 -175q-72 -31 -199 -54t-247 -23q-344 0 -504 111t-160 369q0 120 35.5 218.5t98.5 172t161 133.5
t212 103t263 80v14q-80 7 -195 41q-10 3 -48.5 14.5t-50 14.5t-41.5 11t-46.5 10.5t-40.5 5t-46 2.5q-123 0 -246 -88l-18 153q107 140 292 140q65 0 130.5 -21t152 -59t154.5 -58q90 -27 160.5 -34t184.5 -3l-3 -201q-150 -35 -160 -38q4 -61 8.5 -98t15.5 -67t23.5 -44
t38.5 -23.5t54 -11.5t77 -2q41 0 58 -14t17 -57q0 -79 -23 -110t-64 -31z" />
    <glyph glyph-name="uniFEA7" unicode="&#x62e;" arabic-form="initial" 
d="M-20 -6q-50 0 -50 111q0 48 18 74.5t52 26.5q162 0 302 46t339 149q124 65 186 93v18q-85 5 -201 44q-25 8 -74 26t-75 26.5t-65.5 16.5t-75.5 8q-54 0 -94 -11t-102 -40l-8 161q92 95 225 95q64 0 129.5 -24.5t150 -65t156.5 -61.5q91 -27 162 -33.5t191 -3.5l-3 -201
q-83 -21 -145.5 -44.5t-159.5 -76.5q-66 -36 -175 -99.5t-169 -95.5t-148.5 -69.5t-176.5 -53.5t-189 -16zM566 943l-161 161l161 162l161 -162z" />
    <glyph glyph-name="uniFEA8" unicode="&#x62e;" arabic-form="medial" 
d="M1188 -6q-102 0 -170.5 20t-109.5 63.5t-60.5 99.5t-29.5 140q-57 -31 -144 -82t-136 -78.5t-124 -63.5t-134 -54t-137.5 -31.5t-162.5 -13.5q-50 0 -50 111q0 48 18 74.5t52 26.5q162 0 302 46t339 149q124 65 186 93v18q-85 5 -201 44q-25 8 -74 26t-75 26.5
t-65.5 16.5t-75.5 8q-54 0 -94 -11t-102 -40l-8 161q92 95 225 95q64 0 129.5 -24.5t150 -65t156.5 -61.5q91 -27 162 -33.5t191 -3.5l-3 -201q-96 -23 -159 -50q12 -115 53.5 -154t162.5 -39q41 0 58 -14t17 -57q0 -79 -23 -110t-64 -31zM566 943l-161 161l161 162
l161 -162z" />
    <glyph glyph-name="uniFEA6" unicode="&#x62e;" arabic-form="final" 
d="M1188 -6q-107 0 -174 19t-110 69t-62 125t-28 198q-296 -89 -441 -210t-145 -314q0 -114 45 -181t154.5 -100.5t300.5 -33.5q57 0 122 5.5t102.5 11t107.5 17t86 13.5l-2 -175q-72 -31 -199 -54t-247 -23q-344 0 -504 111t-160 369q0 120 35.5 218.5t98.5 172t161 133.5
t212 103t263 80v14q-80 7 -195 41q-10 3 -48.5 14.5t-50 14.5t-41.5 11t-46.5 10.5t-40.5 5t-46 2.5q-123 0 -246 -88l-18 153q107 140 292 140q65 0 130.5 -21t152 -59t154.5 -58q90 -27 160.5 -34t184.5 -3l-3 -201q-150 -35 -160 -38q4 -61 8.5 -98t15.5 -67t23.5 -44
t38.5 -23.5t54 -11.5t77 -2q41 0 58 -14t17 -57q0 -79 -23 -110t-64 -31zM566 973l-161 161l161 162l161 -162z" />
    <glyph glyph-name="uniFEAA" unicode="&#x62f;" arabic-form="final" 
d="M458 -6q-167 0 -285 32l18 200q148 -27 267 -27q178 0 319 75l-231 629l192 64l207 -547q47 -124 97 -169t158 -45q41 0 58 -18t17 -75q0 -119 -87 -119q-117 1 -189 27t-124 93q-79 -59 -189 -89.5t-228 -30.5z" />
    <glyph glyph-name="uniFEAC" unicode="&#x630;" arabic-form="final" 
d="M458 -6q-167 0 -285 32l18 200q148 -27 267 -27q178 0 319 75l-231 629l192 64l207 -547q47 -124 97 -169t158 -45q41 0 58 -18t17 -75q0 -119 -87 -119q-117 1 -189 27t-124 93q-79 -59 -189 -89.5t-228 -30.5zM636 1093l-161 161l161 162l161 -162z" />
    <glyph glyph-name="uniFEAE" unicode="&#x631;" arabic-form="final" 
d="M917 23q-32 -245 -198 -369.5t-437 -124.5q-137 0 -237 26l13 192q122 -16 204 -16q218 0 337.5 93.5t119.5 276.5q0 18 -4 39t-14 50.5t-18 51t-26.5 62.5t-27.5 60.5t-33.5 70t-32.5 68.5l186 91q29 -60 62.5 -134.5t53 -116t38.5 -68.5q27 -39 86 -54t211 -15
q40 0 57.5 -19.5t17.5 -71.5q0 -121 -87 -121q-196 0 -271 29z" />
    <glyph glyph-name="uniFEB0" unicode="&#x632;" arabic-form="final" 
d="M917 23q-32 -245 -198 -369.5t-437 -124.5q-137 0 -237 26l13 192q122 -16 204 -16q218 0 337.5 93.5t119.5 276.5q0 18 -4 39t-14 50.5t-18 51t-26.5 62.5t-27.5 60.5t-33.5 70t-32.5 68.5l186 91q29 -60 62.5 -134.5t53 -116t38.5 -68.5q27 -39 86 -54t211 -15
q40 0 57.5 -19.5t17.5 -71.5q0 -121 -87 -121q-196 0 -271 29zM630 704l-161 161l161 162l161 -162z" />
    <glyph glyph-name="uniFEB3" unicode="&#x633;" arabic-form="initial" 
d="M-12 -6l12 212q103 0 146 19t50 72q10 72 26 300l178 2q-14 -258 -27 -364q-1 -5 -2.5 -14.5t-1.5 -13.5q58 -20 111 -20q50 0 69 16t24 63q7 70 11 350l178 6q5 -240 -8 -390q-2 -24 -4 -36q35 -9 76 -9q55 0 75 23.5t20 93.5q0 80 -36 328l181 21q44 -220 44 -361
q0 -154 -61.5 -226t-203.5 -72q-139 0 -204 76h-16q-17 -37 -64 -56.5t-105 -19.5q-74 0 -124 16.5t-103 59.5h-23q-24 -40 -73.5 -58t-144.5 -18z" />
    <glyph glyph-name="uniFEB4" unicode="&#x633;" arabic-form="medial" 
d="M456 -6q-73 0 -120.5 16t-100.5 60h-25q-31 -40 -82.5 -58t-139.5 -18l12 212q103 0 146 19t50 72q10 72 26 300l178 2q-14 -258 -27 -364q-1 -10 -5 -28q58 -20 112 -20q50 0 69 16t24 63q7 70 11 350l178 6q5 -240 -8 -390q-2 -24 -4 -35q40 -10 76 -10q55 0 74.5 23.5
t19.5 93.5q0 49 2 156.5t2 174.5l181 12q2 -152 0 -270v-95q0 -46 18 -61t77 -15q37 0 56 -25.5t19 -65.5q0 -121 -87 -121q-123 0 -168 76h-26q-35 -76 -159 -76q-123 0 -186 76h-24q-17 -37 -64 -56.5t-105 -19.5z" />
    <glyph glyph-name="uniFEB2" unicode="&#x633;" arabic-form="final" 
d="M285 -357q-150 0 -212.5 94t-62.5 292q0 201 30 415h160q-14 -252 -14 -373q0 -134 19.5 -179t77.5 -45q41 0 62.5 22t31.5 79t10 165q0 216 -18 478l169 10q20 -255 23 -410q23 -4 54 -4q35 0 48.5 11t15.5 38q6 95 -6 373l166 8q15 -290 5 -425q27 -5 52 -5q37 0 50 19
t13 76q0 92 -15 353l165 5q12 -270 12 -358q0 -48 16 -62t63 -14q37 0 56 -25.5t19 -65.5q0 -121 -87 -121q-114 0 -160 76h-26q-32 -76 -117 -76q-94 0 -138 75h-24q-30 -75 -122 -75q-21 0 -45 2q-14 -189 -74 -271t-197 -82z" />
    <glyph glyph-name="uniFEB7" unicode="&#x634;" arabic-form="initial" 
d="M-12 -6l12 212q103 0 146 19t50 72q10 72 26 300l178 2q-14 -258 -27 -364q-1 -5 -2.5 -14.5t-1.5 -13.5q58 -20 111 -20q50 0 69 16t24 63q7 70 11 350l178 6q5 -240 -8 -390q-2 -24 -4 -36q35 -9 76 -9q55 0 75 23.5t20 93.5q0 80 -36 328l181 21q44 -220 44 -361
q0 -154 -61.5 -226t-203.5 -72q-139 0 -204 76h-16q-17 -37 -64 -56.5t-105 -19.5q-74 0 -124 16.5t-103 59.5h-23q-24 -40 -73.5 -58t-144.5 -18zM805 745l-125 125l-125 -125l-155 154l155 156l125 -126l125 126l155 -156zM681 1005l-148 148l148 149l148 -149z" />
    <glyph glyph-name="uniFEB8" unicode="&#x634;" arabic-form="medial" 
d="M456 -6q-73 0 -120.5 16t-100.5 60h-25q-31 -40 -82.5 -58t-139.5 -18l12 212q103 0 146 19t50 72q10 72 26 300l178 2q-14 -258 -27 -364q-1 -10 -5 -28q58 -20 112 -20q50 0 69 16t24 63q7 70 11 350l178 6q5 -240 -8 -390q-2 -24 -4 -35q40 -10 76 -10q55 0 74.5 23.5
t19.5 93.5q0 49 2 156.5t2 174.5l181 12q2 -152 0 -270v-95q0 -46 18 -61t77 -15q37 0 56 -25.5t19 -65.5q0 -121 -87 -121q-123 0 -168 76h-26q-35 -76 -159 -76q-123 0 -186 76h-24q-17 -37 -64 -56.5t-105 -19.5zM805 745l-125 125l-125 -125l-155 154l155 156l125 -126
l125 126l155 -156zM681 1005l-148 148l148 149l148 -149z" />
    <glyph glyph-name="uniFEB6" unicode="&#x634;" arabic-form="final" 
d="M285 -357q-150 0 -212.5 94t-62.5 292q0 201 30 415h160q-14 -252 -14 -373q0 -134 19.5 -179t77.5 -45q41 0 62.5 22t31.5 79t10 165q0 216 -18 478l169 10q20 -255 23 -410q23 -4 54 -4q35 0 48.5 11t15.5 38q6 95 -6 373l166 8q15 -290 5 -425q27 -5 52 -5q37 0 50 19
t13 76q0 92 -15 353l165 5q12 -270 12 -358q0 -48 16 -62t63 -14q37 0 56 -25.5t19 -65.5q0 -121 -87 -121q-114 0 -160 76h-26q-32 -76 -117 -76q-94 0 -138 75h-24q-30 -75 -122 -75q-21 0 -45 2q-14 -189 -74 -271t-197 -82zM886 745l-125 125l-125 -125l-155 154
l155 156l125 -126l125 126l155 -156zM762 1005l-148 148l148 149l148 -149z" />
    <glyph glyph-name="uniFEBB" unicode="&#x635;" arabic-form="initial" 
d="M614 -6q-219 0 -294 15t-106 76h-25q-27 -48 -74.5 -69.5t-126.5 -21.5l12 212q16 0 26.5 1.5t20.5 7.5t15.5 13t11 24.5t8 36t5 52.5t3.5 68.5t2 89.5l154 2q-5 -193 -18 -278l24 -3q309 618 559 618q64 0 123.5 -31t107.5 -87.5t77 -146t29 -198.5q0 -89 -25.5 -156
t-85 -119t-165.5 -79t-258 -27zM436 208q104 -2 196 -2q91 0 154.5 10t98.5 24.5t53.5 40.5t23 49t4.5 59q0 88 -52.5 161t-119.5 73q-70 0 -157.5 -103.5t-200.5 -311.5z" />
    <glyph glyph-name="uniFEBC" unicode="&#x635;" arabic-form="medial" 
d="M1189 -7q-73 0 -112 17.5t-60 61.5h-19q-129 -78 -384 -78q-219 0 -294 15t-106 76h-25q-27 -48 -74.5 -69.5t-126.5 -21.5l12 212q16 0 26.5 1.5t20.5 7.5t15.5 13t11 24.5t8 36t5 52.5t3.5 68.5t2 89.5l154 2q-5 -193 -18 -278l24 -3q309 618 559 618q64 0 123.5 -31
t107.5 -87.5t77 -146t29 -198.5q0 -97 -29 -165q34 -5 81 -5q43 0 61.5 -19.5t18.5 -69.5q0 -123 -91 -123zM436 208q104 -2 196 -2q91 0 154.5 10t98.5 24.5t53.5 40.5t23 49t4.5 59q0 88 -52.5 161t-119.5 73q-70 0 -157.5 -103.5t-200.5 -311.5z" />
    <glyph glyph-name="uniFEBA" unicode="&#x635;" arabic-form="final" 
d="M1189 -6q-49 0 -72 16t-37 61q-94 -78 -320 -78q-122 0 -213 20q-12 -205 -74 -287.5t-209 -82.5q-77 0 -127 23.5t-77.5 75t-38.5 119t-11 168.5q0 212 30 414h160q-14 -221 -14 -372q0 -138 16 -181t73 -43q43 0 63 18t29.5 74t9.5 174q0 138 -18 400l172 9
q16 -229 18 -263q92 307 179.5 442t195.5 135q72 0 131.5 -68.5t91 -174t31.5 -219.5q0 -102 -18 -167q14 -1 40 -1q47 0 63.5 -19t16.5 -71q0 -122 -91 -122zM693 205q56 -2 90 -2q76 0 117 6t64 26t29 47.5t6 81.5q0 97 -30.5 178.5t-69.5 81.5q-28 0 -54.5 -32
t-65 -126.5t-86.5 -260.5z" />
    <glyph glyph-name="uniFEBF" unicode="&#x636;" arabic-form="initial" 
d="M614 -6q-219 0 -294 15t-106 76h-25q-27 -48 -74.5 -69.5t-126.5 -21.5l12 212q16 0 26.5 1.5t20.5 7.5t15.5 13t11 24.5t8 36t5 52.5t3.5 68.5t2 89.5l154 2q-5 -193 -18 -278l24 -3q309 618 559 618q64 0 123.5 -31t107.5 -87.5t77 -146t29 -198.5q0 -89 -25.5 -156
t-85 -119t-165.5 -79t-258 -27zM436 208q104 -2 196 -2q91 0 154.5 10t98.5 24.5t53.5 40.5t23 49t4.5 59q0 88 -52.5 161t-119.5 73q-70 0 -157.5 -103.5t-200.5 -311.5zM780 974l-161 161l161 162l161 -162z" />
    <glyph glyph-name="uniFEC0" unicode="&#x636;" arabic-form="medial" 
d="M614 -6q-219 0 -294 15t-106 76h-25q-27 -48 -74.5 -69.5t-126.5 -21.5l12 212q16 0 26.5 1.5t20.5 7.5t15.5 13t11 24.5t8 36t5 52.5t3.5 68.5t2 89.5l154 2q-5 -193 -18 -278l24 -3q309 618 559 618q64 0 123.5 -31t107.5 -87.5t77 -146t29 -198.5q0 -97 -29 -165
q34 -5 81 -5q43 0 61.5 -19.5t18.5 -69.5q0 -123 -91 -123q-73 0 -112 17.5t-60 61.5h-19q-129 -78 -384 -78zM436 208q104 -2 196 -2q91 0 154.5 10t98.5 24.5t53.5 40.5t23 49t4.5 59q0 88 -52.5 161t-119.5 73q-70 0 -157.5 -103.5t-200.5 -311.5zM780 974l-161 161
l161 162l161 -162z" />
    <glyph glyph-name="uniFEBE" unicode="&#x636;" arabic-form="final" 
d="M760 -7q-122 0 -213 20q-12 -205 -74 -287.5t-209 -82.5q-77 0 -127 23.5t-77.5 75t-38.5 119t-11 168.5q0 212 30 414h160q-14 -221 -14 -372q0 -138 16 -181t73 -43q43 0 63 18t29.5 74t9.5 174q0 138 -18 400l172 9q16 -229 18 -263q92 307 179.5 442t195.5 135
q72 0 131.5 -68.5t91 -174t31.5 -219.5q0 -102 -18 -167q14 -1 40 -1q47 0 63.5 -19t16.5 -71q0 -122 -91 -122q-49 0 -72 16t-37 61q-94 -78 -320 -78zM693 205q56 -2 90 -2q76 0 117 6t64 26t29 47.5t6 81.5q0 97 -30.5 178.5t-69.5 81.5q-28 0 -54.5 -32t-65 -126.5
t-86.5 -260.5zM880 984l-161 161l161 162l161 -162z" />
    <glyph glyph-name="uniFEC3" unicode="&#x637;" arabic-form="initial" 
d="M-12 -6l12 212h133l33 51l-16 1163h206l9 -686q1 -123 -46 -218l14 -10q124 174 223.5 253t211.5 79q159 0 269.5 -122t110.5 -331q0 -100 -30 -170t-102.5 -121t-198 -75.5t-311.5 -24.5h-518zM326 206h201q138 0 226.5 10.5t133.5 33.5t60.5 50t15.5 68
q0 114 -58.5 189t-157.5 75q-34 0 -67.5 -13t-70 -45.5t-65 -62t-71 -89t-69.5 -99.5t-78 -117z" />
    <glyph glyph-name="uniFEC4" unicode="&#x637;" arabic-form="medial" 
d="M1189 -6q-82 0 -126.5 17t-65.5 61h-18q-150 -78 -473 -78h-518l12 212h133l33 51l-16 1163h206l9 -686q1 -123 -46 -218l14 -10q124 174 223.5 253t211.5 79q159 0 269.5 -122t110.5 -331q0 -104 -32 -174q35 -5 84 -5q43 0 61.5 -20t18.5 -70q0 -122 -91 -122zM326 206
h201q138 0 226.5 10.5t133.5 33.5t60.5 50t15.5 68q0 114 -58.5 189t-157.5 75q-34 0 -67.5 -13t-70 -45.5t-65 -62t-71 -89t-69.5 -99.5t-78 -117z" />
    <glyph glyph-name="uniFEC2" unicode="&#x637;" arabic-form="final" 
d="M1189 -6q-82 0 -126.5 17t-65.5 61h-18q-150 -78 -473 -78q-110 0 -173.5 2t-156 14t-173.5 35l16 186q42 -4 124 -10q4 6 11.5 18t11.5 18l-16 1163h206l9 -686q1 -123 -46 -218l14 -10q124 174 223.5 253t211.5 79q159 0 269.5 -122t110.5 -331q0 -104 -32 -174
q35 -5 84 -5q43 0 61.5 -20t18.5 -70q0 -122 -91 -122zM329 210q87 -4 198 -4q138 0 226.5 10.5t133.5 33.5t60.5 50t15.5 68q0 114 -58.5 189t-157.5 75q-29 0 -59 -12t-56.5 -29t-58.5 -50.5t-56.5 -62.5t-61 -80.5t-60.5 -87.5t-66 -100z" />
    <glyph glyph-name="uniFEC7" unicode="&#x638;" arabic-form="initial" 
d="M-12 -6l12 212h133l33 51l-16 1163h206l9 -686q1 -123 -46 -218l14 -10q124 174 223.5 253t211.5 79q159 0 269.5 -122t110.5 -331q0 -100 -30 -170t-102.5 -121t-198 -75.5t-311.5 -24.5h-518zM326 206h201q138 0 226.5 10.5t133.5 33.5t60.5 50t15.5 68
q0 114 -58.5 189t-157.5 75q-34 0 -67.5 -13t-70 -45.5t-65 -62t-71 -89t-69.5 -99.5t-78 -117zM760 954l-161 161l161 162l161 -162z" />
    <glyph glyph-name="uniFEC8" unicode="&#x638;" arabic-form="medial" 
d="M1189 -6q-82 0 -126.5 17t-65.5 61h-18q-150 -78 -473 -78h-518l12 212h133l33 51l-16 1163h206l9 -686q1 -123 -46 -218l14 -10q124 174 223.5 253t211.5 79q159 0 269.5 -122t110.5 -331q0 -104 -32 -174q35 -5 84 -5q43 0 61.5 -20t18.5 -70q0 -122 -91 -122zM326 206
h201q138 0 226.5 10.5t133.5 33.5t60.5 50t15.5 68q0 114 -58.5 189t-157.5 75q-34 0 -67.5 -13t-70 -45.5t-65 -62t-71 -89t-69.5 -99.5t-78 -117zM760 954l-161 161l161 162l161 -162z" />
    <glyph glyph-name="uniFEC6" unicode="&#x638;" arabic-form="final" 
d="M1189 -6q-82 0 -126.5 17t-65.5 61h-18q-150 -78 -473 -78q-110 0 -173.5 2t-156 14t-173.5 35l16 186q42 -4 124 -10q4 6 11.5 18t11.5 18l-16 1163h206l9 -686q1 -123 -46 -218l14 -10q124 174 223.5 253t211.5 79q159 0 269.5 -122t110.5 -331q0 -104 -32 -174
q35 -5 84 -5q43 0 61.5 -20t18.5 -70q0 -122 -91 -122zM329 210q87 -4 198 -4q138 0 226.5 10.5t133.5 33.5t60.5 50t15.5 68q0 114 -58.5 189t-157.5 75q-29 0 -59 -12t-56.5 -29t-58.5 -50.5t-56.5 -62.5t-61 -80.5t-60.5 -87.5t-66 -100zM760 954l-161 161l161 162
l161 -162z" />
    <glyph glyph-name="uniFECB" unicode="&#x639;" arabic-form="initial" 
d="M-17 -6l17 212q253 0 383 5v20q-106 50 -106 217q0 169 105.5 258t290.5 89q146 0 290 -62l-17 -172q-137 30 -233 30q-117 0 -173 -41.5t-56 -137.5q0 -57 10.5 -90.5t39.5 -51t66 -23t103 -5.5q108 0 344 41l19 -188q-120 -35 -256 -57t-290.5 -30.5t-262.5 -11
t-274 -2.5z" />
    <glyph glyph-name="uniFECC" unicode="&#x639;" arabic-form="medial" 
d="M-16 -6l16 212q205 0 390 30q-16 16 -195 215v215q223 84 429 84q392 0 392 -261q0 -153 -172 -275q97 -8 358 -8q76 0 97 -19.5t21 -77.5q0 -64 -27.5 -89.5t-106.5 -25.5q-249 0 -382.5 18t-230.5 72q-275 -90 -589 -90zM621 294q182 66 182 157q0 42 -42 64.5
t-148 22.5q-103 0 -219 -27l32.5 -32.5t31 -31.5t26.5 -26.5t27 -26.5t22.5 -22t23.5 -22.5t20.5 -19t22.5 -20t21 -16.5z" />
    <glyph glyph-name="uniFECA" unicode="&#x639;" arabic-form="final" 
d="M610 -639q-258 0 -380.5 85.5t-122.5 262.5q0 124 82.5 226t273.5 231q-32 29 -67 64.5t-54 56t-72 80.5t-75 84v215q223 84 429 84q199 0 295 -63t96 -192q0 -77 -42 -143.5t-135 -137.5q98 -8 364 -8q76 0 97 -19.5t21 -77.5q0 -64 -27.5 -89.5t-106.5 -25.5
q-226 0 -354 14.5t-220 56.5q-170 -111 -240.5 -181t-70.5 -149q0 -93 71 -131t252 -38q205 0 442 47l-2 -175q-83 -32 -210 -54.5t-244 -22.5zM638 280q93 62 129 98t36 73q0 42 -42 64.5t-148 22.5q-103 0 -219 -27q10 -11 43.5 -44.5l42.5 -42.5l33.5 -33.5t35 -33.5
t28.5 -26t32 -28.5t29 -22.5z" />
    <glyph glyph-name="uniFECF" unicode="&#x63a;" arabic-form="initial" 
d="M-17 -6l17 212q253 0 383 5v20q-106 50 -106 217q0 169 105.5 258t290.5 89q146 0 290 -62l-17 -172q-137 30 -233 30q-117 0 -173 -41.5t-56 -137.5q0 -57 10.5 -90.5t39.5 -51t66 -23t103 -5.5q108 0 344 41l19 -188q-120 -35 -256 -57t-290.5 -30.5t-262.5 -11
t-274 -2.5zM671 914l-161 161l161 162l161 -162z" />
    <glyph glyph-name="uniFED0" unicode="&#x63a;" arabic-form="medial" 
d="M-16 -6l16 212q205 0 390 30q-16 16 -195 215v215q223 84 429 84q392 0 392 -261q0 -153 -172 -275q97 -8 358 -8q76 0 97 -19.5t21 -77.5q0 -64 -27.5 -89.5t-106.5 -25.5q-249 0 -382.5 18t-230.5 72q-275 -90 -589 -90zM621 294q182 66 182 157q0 42 -42 64.5
t-148 22.5q-103 0 -219 -27l32.5 -32.5t31 -31.5t26.5 -26.5t27 -26.5t22.5 -22t23.5 -22.5t20.5 -19t22.5 -20t21 -16.5zM610 884l-161 161l161 162l161 -162z" />
    <glyph glyph-name="uniFECE" unicode="&#x63a;" arabic-form="final" 
d="M610 -639q-258 0 -380.5 85.5t-122.5 262.5q0 124 82.5 226t273.5 231q-32 29 -67 64.5t-54 56t-72 80.5t-75 84v215q223 84 429 84q199 0 295 -63t96 -192q0 -77 -42 -143.5t-135 -137.5q98 -8 364 -8q76 0 97 -19.5t21 -77.5q0 -64 -27.5 -89.5t-106.5 -25.5
q-226 0 -354 14.5t-220 56.5q-170 -111 -240.5 -181t-70.5 -149q0 -93 71 -131t252 -38q205 0 442 47l-2 -175q-83 -32 -210 -54.5t-244 -22.5zM638 280q93 62 129 98t36 73q0 42 -42 64.5t-148 22.5q-103 0 -219 -27q10 -11 43.5 -44.5l42.5 -42.5l33.5 -33.5t35 -33.5
t28.5 -26t32 -28.5t29 -22.5zM610 884l-161 161l161 162l161 -162z" />
    <glyph glyph-name="uni063B.init" unicode="&#x63b;" 
d="M-12 -6l12 212h397q86 0 134.5 12t66 33.5t17.5 58.5q0 60 -68 149.5t-294 343.5l16 186l720 454l5 -219l-552 -337q215 -225 296 -351t81 -232q0 -160 -112 -235t-338 -75h-381zM542 1252l-145 145l145 145l145 -145zM305 1119l-145 145l145 146l145 -146z" />
    <glyph glyph-name="uni063B.medi" unicode="&#x63b;" 
d="M1188 -6q-180 0 -282.5 27.5t-177.5 99.5h-31q-21 -47 -58.5 -73.5t-110 -40t-194.5 -13.5h-346l12 212h343q149 0 200 11t71 49l-360 537l26 186l720 454l5 -219l-561 -342l323 -485q34 -52 66.5 -85.5t66 -55t80 -32.5t95 -14.5t125.5 -3.5q26 0 40.5 -25.5t14.5 -60.5
q0 -67 -20 -96.5t-47 -29.5zM557 1252l-145 145l145 145l145 -145zM320 1119l-145 145l145 146l145 -146z" />
    <glyph glyph-name="uni063B.fina" unicode="&#x63b;" 
d="M1188 -7q-97 0 -161.5 40.5t-130.5 137.5h-15q-87 -179 -439 -179q-228 0 -334 89t-106 289q0 133 31 256h170q-15 -133 -15 -187q0 -52 4 -85.5t16 -62t31 -44t53.5 -26t79 -14t110.5 -3.5q125 0 205 31t114 85l-308 483l26 186l700 454l5 -219l-544 -342l351 -559
q42 -67 80.5 -92.5t88.5 -25.5q27 0 41 -24t14 -64q0 -124 -67 -124zM783 1252l-145 145l145 145l145 -145zM546 1119l-145 145l145 146l145 -146z" />
    <glyph glyph-name="uni063C.init" unicode="&#x63c;" 
d="M-12 -6l12 212h397q86 0 134.5 12t66 33.5t17.5 58.5q0 60 -68 149.5t-294 343.5l16 186l720 454l5 -219l-552 -337q215 -225 296 -351t81 -232q0 -160 -112 -235t-338 -75h-381zM694 -77l155 -154l-155 -156l-125 126l-125 -126l-155 156l155 154l125 -125zM570 -337
l148 -148l-148 -149l-148 149z" />
    <glyph glyph-name="uni063C.medi" unicode="&#x63c;" 
d="M1188 -6q-180 0 -282.5 27.5t-177.5 99.5h-31q-21 -47 -58.5 -73.5t-110 -40t-194.5 -13.5h-346l12 212h343q149 0 200 11t71 49l-360 537l26 186l720 454l5 -219l-561 -342l323 -485q34 -52 66.5 -85.5t66 -55t80 -32.5t95 -14.5t125.5 -3.5q26 0 40.5 -25.5t14.5 -60.5
q0 -67 -20 -96.5t-47 -29.5zM774 -77l155 -154l-155 -156l-125 126l-125 -126l-155 156l155 154l125 -125zM650 -337l148 -148l-148 -149l-148 149z" />
    <glyph glyph-name="uni063C.fina" unicode="&#x63c;" 
d="M1188 -7q-97 0 -161.5 40.5t-130.5 137.5h-15q-87 -179 -439 -179q-228 0 -334 89t-106 289q0 133 31 256h170q-15 -133 -15 -187q0 -52 4 -85.5t16 -62t31 -44t53.5 -26t79 -14t110.5 -3.5q125 0 205 31t114 85l-308 483l26 186l700 454l5 -219l-544 -342l351 -559
q42 -67 80.5 -92.5t88.5 -25.5q27 0 41 -24t14 -64q0 -124 -67 -124zM680 -77l155 -154l-155 -156l-125 126l-125 -126l-155 156l155 154l125 -125zM556 -337l148 -148l-148 -149l-148 149z" />
    <glyph glyph-name="uni063D.init" unicode="&#x63d;" 
d="M-12 -6q-19 0 -26 27.5t-7 86.5q0 50 13 74t32 24q187 0 311 3.5t218 13.5t145 24t82 41.5t40 58t9 79.5q0 111 -59 360l189 35q70 -243 70 -404q0 -84 -14 -141t-54 -108t-109.5 -81t-184.5 -52.5t-273.5 -31.5t-381.5 -9zM895 -425l-125 125l-125 -125l-155 154
l155 156l125 -126l125 126l155 -156zM895 1246l142 -301l-124 -20l-76 194h-10l-72 -194l-122 15l135 306h127z" />
    <glyph glyph-name="uni063D.medi" unicode="&#x63d;" 
d="M-12 -6l12 212q127 0 203 1.5t139.5 8t93 15t50.5 27.5t25.5 40.5t5.5 58.5l8 330l197 4l-5 -324q0 -58 5 -87.5t25.5 -47.5t49.5 -22t89 -4h314q37 0 56 -25.5t19 -65.5q0 -121 -87 -121h-325q-130 0 -194 38.5t-88 118.5h-25q-32 -61 -90 -94t-170 -48t-308 -15z
M715 -425l-125 125l-125 -125l-155 154l155 156l125 -126l125 126l155 -156zM690 1124l142 -301l-124 -20l-76 194h-10l-72 -194l-122 15l135 306h127z" />
    <glyph glyph-name="uni063D.fina" unicode="&#x63d;" 
d="M497 -410q-132 0 -224.5 28.5t-144.5 84t-75 125.5t-23 162q0 141 44 284h178q-27 -175 -27 -245q0 -63 12 -104t44.5 -72.5t91.5 -45t151 -13.5q213 0 329 43.5t116 108.5q0 34 -37.5 49t-148.5 26l35 195q152 -10 382 -10q102 0 102 -99q0 -52 -29.5 -82.5t-84.5 -30.5
q-8 0 -23.5 0.5t-22.5 0.5q5 -23 5 -45q0 -153 -173 -256.5t-477 -103.5zM411 777l142 -301l-124 -20l-76 194h-10l-72 -194l-122 15l135 306h127z" />
    <glyph glyph-name="uni063E.init" unicode="&#x63e;" 
d="M-12 -6q-19 0 -26 27.5t-7 86.5q0 50 13 74t32 24q187 0 311 3.5t218 13.5t145 24t82 41.5t40 58t9 79.5q0 111 -59 360l189 35q70 -243 70 -404q0 -84 -14 -141t-54 -108t-109.5 -81t-184.5 -52.5t-273.5 -31.5t-381.5 -9zM960 927l-125 125l-125 -125l-155 154l155 156
l125 -126l125 126l155 -156zM895 -425l-125 125l-125 -125l-155 154l155 156l125 -126l125 126l155 -156z" />
    <glyph glyph-name="uni063E.medi" unicode="&#x63e;" 
d="M-12 -6l12 212q127 0 203 1.5t139.5 8t93 15t50.5 27.5t25.5 40.5t5.5 58.5l8 330l197 4l-5 -324q0 -58 5 -87.5t25.5 -47.5t49.5 -22t89 -4h314q37 0 56 -25.5t19 -65.5q0 -121 -87 -121h-325q-130 0 -194 38.5t-88 118.5h-25q-32 -61 -90 -94t-170 -48t-308 -15z
M755 805l-125 125l-125 -125l-155 154l155 156l125 -126l125 126l155 -156zM715 -425l-125 125l-125 -125l-155 154l155 156l125 -126l125 126l155 -156z" />
    <glyph glyph-name="uni063E.fina" unicode="&#x63e;" 
d="M497 -410q-132 0 -224.5 28.5t-144.5 84t-75 125.5t-23 162q0 141 44 284h178q-27 -175 -27 -245q0 -63 12 -104t44.5 -72.5t91.5 -45t151 -13.5q213 0 329 43.5t116 108.5q0 34 -37.5 49t-148.5 26l35 195q152 -10 382 -10q102 0 102 -99q0 -52 -29.5 -82.5t-84.5 -30.5
q-8 0 -23.5 0.5t-22.5 0.5q5 -23 5 -45q0 -153 -173 -256.5t-477 -103.5zM465 363l-125 125l-125 -125l-155 154l155 156l125 -126l125 126l155 -156z" />
    <glyph glyph-name="uni063F.init" unicode="&#x63f;" 
d="M-12 -6q-19 0 -26 27.5t-7 86.5q0 50 13 74t32 24q187 0 311 3.5t218 13.5t145 24t82 41.5t40 58t9 79.5q0 111 -59 360l189 35q70 -243 70 -404q0 -84 -14 -141t-54 -108t-109.5 -81t-184.5 -52.5t-273.5 -31.5t-381.5 -9zM960 927l-125 125l-125 -125l-155 154l155 156
l125 -126l125 126l155 -156zM895 -425l-125 125l-125 -125l-155 154l155 156l125 -126l125 126l155 -156zM836 1187l-148 148l148 149l148 -149z" />
    <glyph glyph-name="uni063F.medi" unicode="&#x63f;" 
d="M-12 -6l12 212q127 0 203 1.5t139.5 8t93 15t50.5 27.5t25.5 40.5t5.5 58.5l8 330l197 4l-5 -324q0 -58 5 -87.5t25.5 -47.5t49.5 -22t89 -4h314q37 0 56 -25.5t19 -65.5q0 -121 -87 -121h-325q-130 0 -194 38.5t-88 118.5h-25q-32 -61 -90 -94t-170 -48t-308 -15z
M755 805l-125 125l-125 -125l-155 154l155 156l125 -126l125 126l155 -156zM715 -425l-125 125l-125 -125l-155 154l155 156l125 -126l125 126l155 -156zM631 1065l-148 148l148 149l148 -149z" />
    <glyph glyph-name="uni063F.fina" unicode="&#x63f;" 
d="M497 -410q-132 0 -224.5 28.5t-144.5 84t-75 125.5t-23 162q0 141 44 284h178q-27 -175 -27 -245q0 -63 12 -104t44.5 -72.5t91.5 -45t151 -13.5q213 0 329 43.5t116 108.5q0 34 -37.5 49t-148.5 26l35 195q152 -10 382 -10q102 0 102 -99q0 -52 -29.5 -82.5t-84.5 -30.5
q-8 0 -23.5 0.5t-22.5 0.5q5 -23 5 -45q0 -153 -173 -256.5t-477 -103.5zM465 363l-125 125l-125 -125l-155 154l155 156l125 -126l125 126l155 -156zM341 623l-148 148l148 149l148 -149z" />
    <glyph glyph-name="uniFED3" unicode="&#x641;" arabic-form="initial" 
d="M-17 -6l16 212h260q170 -1 236 0t137 7t118 21q32 10 48 23t26.5 44t13.5 88l-26 -1q-49 -69 -191 -69t-203 60t-61 203q0 103 38 190t109 139.5t161 52.5q161 0 251.5 -137.5t90.5 -355.5q0 -336 -192 -414q-79 -30 -203.5 -44.5t-233 -16.5t-344.5 -2h-51zM838 525
q-18 227 -172 227q-64 0 -98.5 -42.5t-34.5 -105.5q0 -59 24 -81.5t97 -22.5q102 0 184 25zM665 1071l-161 161l161 162l161 -162z" />
    <glyph glyph-name="uniFED4" unicode="&#x641;" arabic-form="medial" 
d="M-16 -6l16 212q202 0 340 9q-68 95 -68 246q0 159 90 259.5t238 100.5q139 0 226.5 -92.5t87.5 -255.5q0 -164 -75 -257q137 -10 363 -10q57 0 82.5 -22.5t25.5 -77.5q0 -61 -31.5 -86.5t-93.5 -25.5q-407 0 -607 63q-203 -63 -594 -63zM604 256q115 45 115 193
q0 78 -32.5 119t-90.5 41q-61 0 -95 -40.5t-34 -118.5q0 -75 30.5 -121t106.5 -73zM601 928l-161 161l161 162l161 -162z" />
    <glyph glyph-name="uniFED2" unicode="&#x641;" arabic-form="final" 
d="M459 -6q-242 0 -345 89.5t-103 310.5q0 72 13.5 148.5t30.5 122.5h178q-27 -182 -27 -268q0 -117 54 -154.5t219 -37.5q30 0 80 2q-69 100 -69 254q0 159 90 259.5t238 100.5q139 0 226.5 -92.5t87.5 -255.5q0 -168 -82 -264q69 -3 152 -3q57 0 82.5 -22.5t25.5 -77.5
q0 -61 -31.5 -86.5t-93.5 -25.5q-249 0 -403 54q-158 -54 -323 -54zM808 251l1 1h2q126 43 126 197q0 78 -32.5 119t-90.5 41q-61 0 -95 -40.5t-34 -118.5q0 -77 29.5 -124.5t93.5 -74.5zM821 928l-161 161l161 162l161 -162z" />
    <glyph glyph-name="uniFED7" unicode="&#x642;" arabic-form="initial" 
d="M-17 -6l16 212h260q170 -1 236 0t137 7t118 21q32 10 48 23t26.5 44t13.5 88l-26 -1q-49 -69 -191 -69t-203 60t-61 203q0 103 38 190t109 139.5t161 52.5q161 0 251.5 -137.5t90.5 -355.5q0 -336 -192 -414q-79 -30 -203.5 -44.5t-233 -16.5t-344.5 -2h-51zM790 1052
l-125 125l-125 -125l-155 154l155 156l125 -126l125 126l155 -156zM838 525q-18 227 -172 227q-64 0 -98.5 -42.5t-34.5 -105.5q0 -59 24 -81.5t97 -22.5q102 0 184 25z" />
    <glyph glyph-name="uniFED8" unicode="&#x642;" arabic-form="medial" 
d="M-16 -6l16 212q202 0 340 9q-68 95 -68 246q0 159 90 259.5t238 100.5q139 0 226.5 -92.5t87.5 -255.5q0 -164 -75 -257q137 -10 363 -10q57 0 82.5 -22.5t25.5 -77.5q0 -61 -31.5 -86.5t-93.5 -25.5q-407 0 -607 63q-203 -63 -594 -63zM726 909l-125 125l-125 -125
l-155 154l155 156l125 -126l125 126l155 -156zM604 256q115 45 115 193q0 78 -32.5 119t-90.5 41q-61 0 -95 -40.5t-34 -118.5q0 -75 30.5 -121t106.5 -73z" />
    <glyph glyph-name="uniFED6" unicode="&#x642;" arabic-form="final" 
d="M578 -443q-287 0 -417.5 117.5t-130.5 355.5q0 185 48 369h178q-31 -227 -31 -337q0 -170 82 -235t286 -65q122 0 194.5 14.5t114.5 49.5q57 49 72 165h-182q-80 0 -133.5 14.5t-92 50t-56 96t-17.5 152.5q0 180 87.5 297t231.5 117q113 0 190 -65t113.5 -178t39.5 -269
h45q49 0 67 -23t18 -80q0 -62 -19.5 -87t-76.5 -25h-45q-14 -110 -49 -188t-100.5 -134.5t-168.5 -84t-248 -27.5zM936 806l-125 125l-125 -125l-155 154l155 156l125 -126l125 126l155 -156zM983 203q-4 159 -46.5 231t-123.5 72q-71 0 -107.5 -47.5t-36.5 -128.5
q0 -85 29 -109.5t122 -24.5q68 0 163 7z" />
    <glyph glyph-name="uniFEDB" unicode="&#x643;" arabic-form="initial" 
d="M-12 -6l12 212h397q86 0 134.5 12t66 33.5t17.5 58.5q0 60 -68 149.5t-294 343.5l16 186l720 454l5 -219l-552 -337q215 -225 296 -351t81 -232q0 -160 -112 -235t-338 -75h-381z" />
    <glyph glyph-name="uniFEDC" unicode="&#x643;" arabic-form="medial" 
d="M1188 -6q-180 0 -282.5 27.5t-177.5 99.5h-31q-21 -47 -58.5 -73.5t-110 -40t-194.5 -13.5h-346l12 212h343q149 0 200 11t71 49l-360 537l26 186l720 454l5 -219l-561 -342l323 -485q34 -52 66.5 -85.5t66 -55t80 -32.5t95 -14.5t125.5 -3.5q26 0 40.5 -25.5t14.5 -60.5
q0 -67 -20 -96.5t-47 -29.5z" />
    <glyph glyph-name="uniFEDA" unicode="&#x643;" arabic-form="final" 
d="M505 -8q-275 0 -383.5 69.5t-108.5 258.5q0 127 31 243h171q-16 -107 -16 -192q0 -48 9 -76t39 -50.5t89 -31.5t157 -9q116 0 191.5 6t124.5 17.5t73 35t32 51.5t7 73l-27 1033h206l17 -1083v-11q1 -79 14 -99.5t69 -20.5q40 0 57.5 -19.5t17.5 -71.5q0 -121 -87 -121
q-143 0 -191 125h-17q-44 -66 -158.5 -96.5t-316.5 -30.5zM472 499q-85 0 -148 14l-5 122q88 -15 147 -15q86 0 86 18q0 3 -1 5.5t-3.5 5.5t-5.5 5t-10 5.5l-14 7t-19 10t-24 13.5q-84 47 -84 119q0 62 72 121.5t216 85.5l7 -139q-52 -8 -88 -17.5t-51 -18t-15 -16.5
q0 -10 14 -19.5t58 -33.5q55 -29 74.5 -57.5t19.5 -65.5q0 -73 -66 -111.5t-160 -38.5z" />
    <glyph glyph-name="uniFEDF" unicode="&#x644;" arabic-form="initial" 
d="M-12 -6q-58 0 -58 111q0 101 70 101q140 0 238.5 1.5t181.5 7t134.5 11.5t91.5 19.5t59.5 27t31 38t14 48t1.5 61.5l-20 1000h206l27 -970q2 -69 -2.5 -118.5t-21.5 -97.5t-47.5 -79.5t-82 -60.5t-123 -46.5t-173.5 -30.5t-230.5 -18t-296.5 -5z" />
    <glyph glyph-name="uniFEE0" unicode="&#x644;" arabic-form="medial" 
d="M-12 -6q-58 0 -58 111q0 101 70 101q376 0 474 13q103 14 130 59q20 32 18 122l-20 1020h206l25 -1011q1 -51 4.5 -78.5t18 -54t35 -37.5t65 -20t98.5 -11t146 -2q39 0 57 -24t18 -77q0 -61 -21 -86t-66 -25q-236 0 -337.5 32t-142.5 133h-23q-22 -45 -52 -72.5
t-74.5 -47t-125 -29t-181 -13t-264.5 -3.5z" />
    <glyph glyph-name="uniFEDE" unicode="&#x644;" arabic-form="final" 
d="M1188 -6q-93 0 -136 42q-33 -208 -157.5 -300.5t-359.5 -92.5q-251 0 -368.5 113t-117.5 339q0 188 64 389h178q-46 -232 -46 -352q0 -153 69.5 -215t242.5 -62q80 0 135.5 12t89.5 34t52 60t23.5 81.5t3.5 108.5l-32 1269h206l29 -1112q2 -67 25 -84.5t111 -17.5
q40 0 57.5 -19.5t17.5 -71.5q0 -121 -87 -121z" />
    <glyph glyph-name="uniFEE3" unicode="&#x645;" arabic-form="initial" 
d="M-18 -6q-27 0 -39.5 27.5t-12.5 93.5q0 48 17 69t53 21q99 0 160.5 45.5t168.5 198.5q116 166 192.5 227.5t163.5 61.5q90 0 168 -69.5t122.5 -181.5t44.5 -236q0 -257 -291 -257q-137 0 -241.5 42t-133.5 121h-25q-73 -95 -142.5 -129t-204.5 -34zM430 301
q70 -48 134.5 -71.5t147.5 -23.5q63 0 93.5 18.5t30.5 59.5q0 81 -53.5 165.5t-118.5 84.5q-50 0 -91.5 -43t-115.5 -151q-16 -24 -25 -37z" />
    <glyph glyph-name="uniFEE4" unicode="&#x645;" arabic-form="medial" 
d="M-18 -6q-27 0 -39.5 27.5t-12.5 93.5q0 91 70 91q85 0 142.5 35t105.5 123q115 209 192.5 292t179.5 83q91 0 169.5 -67.5t167.5 -229.5q82 -150 127 -193t116 -43q24 0 34 -1.5t21.5 -9.5t15.5 -27t4 -53q0 -41 -6 -66.5t-20 -37t-26.5 -14.5t-34.5 -3
q-103 0 -164.5 30.5t-109.5 97.5h-21q-24 -69 -93.5 -98.5t-217.5 -29.5q-138 0 -209 37.5t-92 109.5h-20q-36 -85 -98.5 -116t-180.5 -31zM847 234q-21 41 -46 89q-56 107 -101 159.5t-99 52.5q-65 0 -124.5 -86.5t-59.5 -153.5q0 -48 43 -68.5t145 -20.5q150 0 242 28z
" />
    <glyph glyph-name="uniFEE2" unicode="&#x645;" arabic-form="final" 
d="M135 -654l-8 531q-3 225 150 295q52 258 143 412.5t207 154.5q55 0 98 -20t92 -83t74.5 -104.5t90.5 -158.5q7 -11 10 -17t8.5 -16t10.5 -18q41 -73 78.5 -94.5t110.5 -21.5q40 0 57.5 -19.5t17.5 -71.5q0 -121 -87 -121q-102 0 -162.5 23.5t-104.5 79.5h-26l-18 -108
q-272 5 -409 5q-81 0 -113.5 -36.5t-31.5 -129.5l6 -482h-194zM862 195q-12 21 -33 61q-87 160 -126.5 215.5t-83.5 55.5q-55 0 -97.5 -82t-81.5 -239h26q229 0 396 -11z" />
    <glyph glyph-name="uniFEE7" unicode="&#x646;" arabic-form="initial" 
d="M-12 -6q-19 0 -26 27.5t-7 86.5q0 50 13 74t32 24q187 0 311 3.5t218 13.5t145 24t82 41.5t40 58t9 79.5q0 111 -59 360l189 35q70 -243 70 -404q0 -84 -14 -141t-54 -108t-109.5 -81t-184.5 -52.5t-273.5 -31.5t-381.5 -9zM835 946l-161 161l161 162l161 -162z" />
    <glyph glyph-name="uniFEE8" unicode="&#x646;" arabic-form="medial" 
d="M-12 -6l12 212q127 0 203 1.5t139.5 8t93 15t50.5 27.5t25.5 40.5t5.5 58.5l8 330l197 4l-5 -324q0 -58 5 -87.5t25.5 -47.5t49.5 -22t89 -4h314q37 0 56 -25.5t19 -65.5q0 -121 -87 -121h-325q-130 0 -194 38.5t-88 118.5h-25q-32 -61 -90 -94t-170 -48t-308 -15z
M630 824l-161 161l161 162l161 -162z" />
    <glyph glyph-name="uniFEE6" unicode="&#x646;" arabic-form="final" 
d="M538 -357q-235 0 -345.5 105t-110.5 342q0 214 56 394h178q-39 -217 -39 -362q0 -149 59.5 -208t209.5 -59q89 0 144.5 12.5t95.5 47t56.5 94t16.5 153.5q0 108 -47 392l194 27q9 -50 21 -127t14 -87q17 -100 28 -121q17 -31 66 -37q22 -3 65 -3q51 0 68 -21.5t17 -76.5
q0 -60 -19 -87t-78 -27q-100 0 -144 43q-23 -199 -141.5 -296.5t-364.5 -97.5zM562 618l-161 161l161 162l161 -162z" />
    <glyph glyph-name="uniFEEB" unicode="&#x647;" arabic-form="initial" 
d="M-12 -6q-31 0 -44.5 24t-13.5 97q0 55 17 73t53 18q120 0 195 6q-62 100 -62 233q0 105 45 183.5t122 120.5l40 155q201 -51 343.5 -103.5t229.5 -103t136 -110t65.5 -116t16.5 -131.5q0 -346 -402 -346q-182 0 -316 51q-165 -51 -425 -51zM448 252q71 27 101.5 74.5
t30.5 120.5q0 80 -33 121t-92 41q-60 0 -94 -40.5t-34 -117.5q0 -143 121 -199zM689 207q22 -1 68 -1q99 0 139 36.5t40 102.5v6q0 25 -1 39.5t-11 42t-28 48.5t-56 49t-92 53q24 -67 24 -138q0 -148 -83 -238z" />
    <glyph glyph-name="uniFEEC" unicode="&#x647;" arabic-form="medial" 
d="M659 -491q-177 0 -287 125t-126 361q-74 -1 -258 -1q-32 0 -45 25t-13 96q0 53 17.5 71.5t52.5 18.5q181 0 253 1q47 359 333 645l175 28q161 -281 161 -529q0 -80 -27 -141q125 -4 305 -4q55 0 77.5 -15.5t22.5 -70.5q0 -78 -24 -101.5t-88 -23.5q-183 0 -284 20
q61 -86 61 -209q0 -141 -84.5 -218.5t-221.5 -77.5zM637 33q-90 -22 -210 -31q10 -156 77 -225t156 -69q119 0 119 107q0 62 -34.5 120t-107.5 98zM438 211q88 6 153 16q83 14 114 42.5t31 80.5q0 141 -79 313q-177 -199 -219 -452z" />
    <glyph glyph-name="uniFEEA" unicode="&#x647;" arabic-form="final" 
d="M574 157q-389 0 -389 289q0 161 148.5 256t474.5 171l-2 114h206l4 -627q0 -53 7 -82t30 -46t54.5 -21.5t92.5 -4.5q42 0 58.5 -19.5t16.5 -71.5q0 -63 -19 -92t-68 -29q-198 0 -279 53.5t-91 194.5h-26q-22 -47 -74.5 -66t-143.5 -19zM810 675q-233 -44 -339.5 -93.5
t-106.5 -116.5q0 -57 55 -76.5t194 -19.5q89 0 202 12z" />
    <glyph glyph-name="uniFEEE" unicode="&#x648;" arabic-form="final" 
d="M426 -480q-157 0 -266 46l15 182q127 -26 233 -26q176 0 285.5 63.5t145.5 208.5h-190q-168 0 -233 74.5t-65 238.5q0 112 39.5 205t115.5 149.5t174 56.5q165 0 253.5 -135t96.5 -378l170 1q47 0 66 -23t19 -85q0 -56 -24 -80t-71 -24h-172q-38 -230 -189 -352
t-403 -122zM854 203q-6 160 -49 231.5t-128 71.5q-69 0 -109.5 -48.5t-40.5 -129.5q0 -75 32.5 -100t133.5 -25h161z" />
    <glyph glyph-name="uniFEF0" unicode="&#x649;" arabic-form="final" 
d="M497 -410q-132 0 -224.5 28.5t-144.5 84t-75 125.5t-23 162q0 141 44 284h178q-27 -175 -27 -245q0 -63 12 -104t44.5 -72.5t91.5 -45t151 -13.5q213 0 329 43.5t116 108.5q0 34 -37.5 49t-148.5 26l35 195q152 -10 382 -10q102 0 102 -99q0 -52 -29.5 -82.5t-84.5 -30.5
q-8 0 -23.5 0.5t-22.5 0.5q5 -23 5 -45q0 -153 -173 -256.5t-477 -103.5z" />
    <glyph glyph-name="uniFEF3" unicode="&#x64a;" arabic-form="initial" 
d="M-12 -6q-19 0 -26 27.5t-7 86.5q0 50 13 74t32 24q187 0 311 3.5t218 13.5t145 24t82 41.5t40 58t9 79.5q0 111 -59 360l189 35q70 -243 70 -404q0 -84 -14 -141t-54 -108t-109.5 -81t-184.5 -52.5t-273.5 -31.5t-381.5 -9zM895 -425l-125 125l-125 -125l-155 154
l155 156l125 -126l125 126l155 -156z" />
    <glyph glyph-name="uniFEF4" unicode="&#x64a;" arabic-form="medial" 
d="M-12 -6l12 212q127 0 203 1.5t139.5 8t93 15t50.5 27.5t25.5 40.5t5.5 58.5l8 330l197 4l-5 -324q0 -58 5 -87.5t25.5 -47.5t49.5 -22t89 -4h314q37 0 56 -25.5t19 -65.5q0 -121 -87 -121h-325q-130 0 -194 38.5t-88 118.5h-25q-32 -61 -90 -94t-170 -48t-308 -15z
M715 -425l-125 125l-125 -125l-155 154l155 156l125 -126l125 126l155 -156z" />
    <glyph glyph-name="uniFEF2" unicode="&#x64a;" arabic-form="final" 
d="M497 -410q-132 0 -224.5 28.5t-144.5 84t-75 125.5t-23 162q0 141 44 284h178q-27 -175 -27 -245q0 -63 12 -104t44.5 -72.5t91.5 -45t151 -13.5q213 0 329 43.5t116 108.5q0 34 -37.5 49t-148.5 26l35 195q152 -10 382 -10q102 0 102 -99q0 -52 -29.5 -82.5t-84.5 -30.5
q-8 0 -23.5 0.5t-22.5 0.5q5 -23 5 -45q0 -153 -173 -256.5t-477 -103.5zM640 -780l-125 125l-125 -125l-155 154l155 156l125 -126l125 126l155 -156z" />
    <glyph glyph-name="uni066E.init" unicode="&#x66e;" 
d="M-12 -6q-19 0 -26 27.5t-7 86.5q0 50 13 74t32 24q187 0 311 3.5t218 13.5t145 24t82 41.5t40 58t9 79.5q0 111 -59 360l189 35q70 -243 70 -404q0 -84 -14 -141t-54 -108t-109.5 -81t-184.5 -52.5t-273.5 -31.5t-381.5 -9z" />
    <glyph glyph-name="uni066E.medi" unicode="&#x66e;" 
d="M-12 -6l12 212q127 0 203 1.5t139.5 8t93 15t50.5 27.5t25.5 40.5t5.5 58.5l8 330l197 4l-5 -324q0 -58 5 -87.5t25.5 -47.5t49.5 -22t89 -4h314q37 0 56 -25.5t19 -65.5q0 -121 -87 -121h-325q-130 0 -194 38.5t-88 118.5h-25q-32 -61 -90 -94t-170 -48t-308 -15z" />
    <glyph glyph-name="uni066E.fina" unicode="&#x66e;" 
d="M529 -6q-289 0 -404 92t-115 318q0 138 44 261h178q-27 -177 -27 -254q0 -117 68.5 -161t255.5 -44q111 0 183 5t115 12.5t64 25.5t27 35.5t7 50.5l10 332l187 4l-6 -352q-1 -72 16.5 -92.5t67.5 -20.5q40 0 57.5 -19.5t17.5 -71.5q0 -121 -87 -121q-78 0 -127.5 36
t-71.5 120l-25 -1q-33 -48 -44 -59q-83 -86 -327 -95q-31 -1 -64 -1z" />
    <glyph glyph-name="uni066F.init" unicode="&#x66f;" 
d="M-17 -6l16 212h260q170 -1 236 0t137 7t118 21q32 10 48 23t26.5 44t13.5 88l-26 -1q-49 -69 -191 -69t-203 60t-61 203q0 103 38 190t109 139.5t161 52.5q161 0 251.5 -137.5t90.5 -355.5q0 -336 -192 -414q-79 -30 -203.5 -44.5t-233 -16.5t-344.5 -2h-51zM838 525
q-18 227 -172 227q-64 0 -98.5 -42.5t-34.5 -105.5q0 -59 24 -81.5t97 -22.5q102 0 184 25z" />
    <glyph glyph-name="uni066F.medi" unicode="&#x66f;" 
d="M-16 -6l16 212q202 0 340 9q-68 95 -68 246q0 159 90 259.5t238 100.5q139 0 226.5 -92.5t87.5 -255.5q0 -164 -75 -257q137 -10 363 -10q57 0 82.5 -22.5t25.5 -77.5q0 -61 -31.5 -86.5t-93.5 -25.5q-407 0 -607 63q-203 -63 -594 -63zM604 256q115 45 115 193
q0 78 -32.5 119t-90.5 41q-61 0 -95 -40.5t-34 -118.5q0 -75 30.5 -121t106.5 -73z" />
    <glyph glyph-name="uni066F.fina" unicode="&#x66f;" 
d="M578 -443q-287 0 -417.5 117.5t-130.5 355.5q0 185 48 369h178q-31 -227 -31 -337q0 -170 82 -235t286 -65q122 0 194.5 14.5t114.5 49.5q57 49 72 165h-182q-80 0 -133.5 14.5t-92 50t-56 96t-17.5 152.5q0 180 87.5 297t231.5 117q113 0 190 -65t113.5 -178t39.5 -269
h45q49 0 67 -23t18 -80q0 -62 -19.5 -87t-76.5 -25h-45q-14 -110 -49 -188t-100.5 -134.5t-168.5 -84t-248 -27.5zM983 203q-4 159 -46.5 231t-123.5 72q-71 0 -107.5 -47.5t-36.5 -128.5q0 -85 29 -109.5t122 -24.5q68 0 163 7z" />
    <glyph glyph-name="uni0672.fina" unicode="&#x672;" 
d="M1188 -7h-77q-301 0 -431 10q-208 17 -284 98.5t-78 284.5l-8 812h206l8 -747q1 -76 7.5 -117.5t29 -70.5t60 -39.5t104.5 -13.5q117 -5 397 -5h78q55 0 55 -85q0 -60 -17.5 -93.5t-49.5 -33.5zM100 1236l-19 104q53 55 105 55q23 0 72 -14.5t77 -14.5q17 0 24 2l-1 12
q-84 29 -84 133q0 85 54.5 134t153.5 49q67 0 133 -24l-6 -114q-54 7 -88 7q-69 0 -97 -16.5t-28 -53.5q0 -39 18.5 -55t63.5 -16q33 0 175 32l14 -126q-200 -69 -272 -80q-29 -5 -50 -5q-33 0 -80 15.5t-68 15.5q-9 0 -18 -2t-15.5 -3.5t-16.5 -7t-14 -8t-16.5 -10
t-16.5 -9.5z" />
    <glyph glyph-name="uni0673.fina" unicode="&#x673;" 
d="M1188 -6h-77q-301 0 -431 10q-107 9 -174.5 31t-110 68t-59.5 112.5t-18 170.5l-8 1034h206l8 -969q1 -51 3.5 -83.5t11 -61t21.5 -44t36 -27.5t53.5 -17t75.5 -7q117 -5 397 -5h78q55 0 55 -95q0 -117 -67 -117zM108 -562l-19 104q53 55 105 55q23 0 72 -14.5t77 -14.5
q17 0 24 2l-1 12q-84 29 -84 133q0 85 54.5 134t153.5 49q67 0 133 -24l-6 -114q-54 7 -88 7q-69 0 -97 -16.5t-28 -53.5q0 -39 18.5 -55t63.5 -16q33 0 175 32l14 -126q-200 -69 -272 -80q-29 -5 -50 -5q-33 0 -80 15.5t-68 15.5q-9 0 -18 -2t-15.5 -3.5t-16.5 -7t-14 -8
t-16.5 -10t-16.5 -9.5z" />
    <glyph glyph-name="uni0675.fina" unicode="&#x675;" 
d="M1188 -6h-77q-301 0 -431 10q-107 9 -174.5 31t-110 68t-59.5 112.5t-18 170.5l-8 1034h206l8 -969q1 -51 3.5 -83.5t11 -61t21.5 -44t36 -27.5t53.5 -17t75.5 -7q117 -5 397 -5h78q55 0 55 -95q0 -117 -67 -117zM629 1089l-11 120l94 24v13q-72 25 -72 121
q0 83 59 129.5t155 46.5q64 0 127 -24l-6 -114q-54 7 -94 7q-65 0 -90 -16t-25 -55q0 -37 17 -51.5t55 -14.5q34 0 181 27l14 -125z" />
    <glyph glyph-name="uni0676.fina" unicode="&#x676;" 
d="M426 -480q-157 0 -266 46l15 182q127 -26 233 -26q176 0 285.5 63.5t145.5 208.5h-190q-168 0 -233 74.5t-65 238.5q0 112 39.5 205t115.5 149.5t174 56.5q165 0 253.5 -135t96.5 -378l170 1q47 0 66 -23t19 -85q0 -56 -24 -80t-71 -24h-172q-38 -230 -189 -352
t-403 -122zM803 798l-11 120l94 24v13q-72 25 -72 121q0 83 59 129.5t155 46.5q64 0 127 -24l-6 -114q-54 7 -94 7q-65 0 -90 -16t-25 -55q0 -37 17 -51.5t55 -14.5q34 0 181 27l14 -125zM854 203q-6 160 -49 231.5t-128 71.5q-69 0 -109.5 -48.5t-40.5 -129.5
q0 -75 32.5 -100t133.5 -25h161z" />
    <glyph glyph-name="uni0677.fina" unicode="&#x677;" 
d="M426 -480q-157 0 -266 46l15 182q127 -26 233 -26q176 0 285.5 63.5t145.5 208.5h-190q-168 0 -233 74.5t-65 238.5q0 112 39.5 205t115.5 149.5t174 56.5q165 0 253.5 -135t96.5 -378l170 1q47 0 66 -23t19 -85q0 -56 -24 -80t-71 -24h-172q-38 -230 -189 -352
t-403 -122zM210 734l3 129q132 27 211 55q-60 51 -60 135q0 73 49 119t117 46q74 0 118 -44.5t44 -125.5q0 -63 -37 -113.5t-107 -88t-150.5 -63.5t-187.5 -49zM738 798l-10 110l87 23v11q-66 23 -66 112q0 76 54 119t142 43q60 0 117 -22l-5 -105q-58 6 -87 6
q-60 0 -83 -14.5t-23 -50.5q0 -34 16 -47.5t51 -13.5q29 0 166 25l13 -115zM854 203q-6 160 -49 231.5t-128 71.5q-69 0 -109.5 -48.5t-40.5 -129.5q0 -75 32.5 -100t133.5 -25h161zM521 962q63 39 63 85q0 30 -16 45.5t-42 15.5q-28 0 -44 -16t-16 -46q0 -25 14.5 -48.5
t40.5 -35.5z" />
    <glyph glyph-name="uni0678.init" unicode="&#x678;" 
d="M-12 -6q-19 0 -26 27.5t-7 86.5q0 50 13 74t32 24q187 0 311 3.5t218 13.5t145 24t82 41.5t40 58t9 79.5q0 111 -59 360l189 35q70 -243 70 -404q0 -84 -14 -141t-54 -108t-109.5 -81t-184.5 -52.5t-273.5 -31.5t-381.5 -9zM952 915l-11 120l94 24v13q-72 25 -72 121
q0 83 59 129.5t155 46.5q64 0 127 -24l-6 -114q-54 7 -94 7q-65 0 -90 -16t-25 -55q0 -37 17 -51.5t55 -14.5q34 0 181 27l14 -125z" />
    <glyph glyph-name="uni0678.medi" unicode="&#x678;" 
d="M-12 -6l12 212q127 0 203 1.5t139.5 8t93 15t50.5 27.5t25.5 40.5t5.5 58.5l8 330l197 4l-5 -324q0 -58 5 -87.5t25.5 -47.5t49.5 -22t89 -4h314q37 0 56 -25.5t19 -65.5q0 -121 -87 -121h-325q-130 0 -194 38.5t-88 118.5h-25q-32 -61 -90 -94t-170 -48t-308 -15z
M760 797l-11 120l94 24v13q-72 25 -72 121q0 83 59 129.5t155 46.5q64 0 127 -24l-6 -114q-54 7 -94 7q-65 0 -90 -16t-25 -55q0 -37 17 -51.5t55 -14.5q34 0 181 27l14 -125z" />
    <glyph glyph-name="uni0678.fina" unicode="&#x678;" 
d="M497 -410q-132 0 -224.5 28.5t-144.5 84t-75 125.5t-23 162q0 141 44 284h178q-27 -175 -27 -245q0 -63 12 -104t44.5 -72.5t91.5 -45t151 -13.5q213 0 329 43.5t116 108.5q0 34 -37.5 49t-148.5 26l35 195q152 -10 382 -10q102 0 102 -99q0 -52 -29.5 -82.5t-84.5 -30.5
q-8 0 -23.5 0.5t-22.5 0.5q5 -23 5 -45q0 -153 -173 -256.5t-477 -103.5zM372 381l-11 120l94 24v13q-72 25 -72 121q0 83 59 129.5t155 46.5q64 0 127 -24l-6 -114q-54 7 -94 7q-65 0 -90 -16t-25 -55q0 -37 17 -51.5t55 -14.5q34 0 181 27l14 -125z" />
    <glyph glyph-name="uni067C.init" unicode="&#x67c;" 
d="M-12 -6q-19 0 -26 27.5t-7 86.5q0 50 13 74t32 24q187 0 311 3.5t218 13.5t145 24t82 41.5t40 58t9 79.5q0 111 -59 360l189 35q70 -243 70 -404q0 -119 -32.5 -194t-119.5 -122q49 -47 49 -126t-48.5 -125t-124.5 -46q-77 0 -124.5 46.5t-47.5 124.5q0 23 5 46
q-202 -27 -574 -27zM960 927l-125 125l-125 -125l-155 154l155 156l125 -126l125 126l155 -156zM729 -82q27 0 42.5 15t15.5 42t-15.5 42t-41.5 15q-27 0 -43.5 -15.5t-16.5 -41.5q0 -27 17 -42t42 -15z" />
    <glyph glyph-name="uni067C.medi" unicode="&#x67c;" 
d="M-12 -6l12 212q127 0 203 1.5t139.5 8t93 15t50.5 27.5t25.5 40.5t5.5 58.5l8 330l197 4l-5 -324q0 -58 5 -87.5t25.5 -47.5t49.5 -22t89 -4h314q37 0 56 -25.5t19 -65.5q0 -121 -87 -121h-325q-130 0 -194 38.5t-88 118.5h-25q-30 -59 -83 -90q49 -47 49 -126
t-48.5 -125t-124.5 -46q-77 0 -124.5 46.5t-47.5 124.5q0 34 11 64q-73 -5 -200 -5zM755 805l-125 125l-125 -125l-155 154l155 156l125 -126l125 126l155 -156zM349 -122q27 0 42.5 15t15.5 42t-15.5 42t-41.5 15q-27 0 -43.5 -15.5t-16.5 -41.5q0 -27 17 -42t42 -15z" />
    <glyph glyph-name="uni067C.fina" unicode="&#x67c;" 
d="M1188 -6q-78 0 -127.5 36t-71.5 120l-25 -1q-2 -3 -12 -17.5t-14 -20t-16 -19t-21 -20t-26.5 -18t-36 -18.5t-44.5 -14.5t-56 -12.5q14 -33 14 -74q0 -79 -48.5 -125t-124.5 -46q-77 0 -124.5 46.5t-47.5 124.5q0 31 10 63q-224 16 -315.5 109.5t-91.5 296.5
q0 138 44 261h178q-27 -177 -27 -254q0 -117 68.5 -161t255.5 -44q111 0 183 5t115 12.5t64 25.5t27 35.5t7 50.5l10 332l187 4l-6 -352q-1 -72 16.5 -92.5t67.5 -20.5q40 0 57.5 -19.5t17.5 -71.5q0 -121 -87 -121zM715 675l-125 125l-125 -125l-155 154l155 156l125 -126
l125 126l155 -156zM579 -122q27 0 42.5 15t15.5 42t-15.5 42t-41.5 15q-27 0 -43.5 -15.5t-16.5 -41.5q0 -27 17 -42t42 -15z" />
    <glyph glyph-name="uni067D.init" unicode="&#x67d;" 
d="M-12 -6q-19 0 -26 27.5t-7 86.5q0 50 13 74t32 24q187 0 311 3.5t218 13.5t145 24t82 41.5t40 58t9 79.5q0 111 -59 360l189 35q70 -243 70 -404q0 -84 -14 -141t-54 -108t-109.5 -81t-184.5 -52.5t-273.5 -31.5t-381.5 -9zM960 1483l155 -154l-155 -156l-125 126
l-125 -126l-155 156l155 154l125 -125zM836 1223l148 -148l-148 -149l-148 149z" />
    <glyph glyph-name="uni067D.medi" unicode="&#x67d;" 
d="M-12 -6l12 212q127 0 203 1.5t139.5 8t93 15t50.5 27.5t25.5 40.5t5.5 58.5l8 330l197 4l-5 -324q0 -58 5 -87.5t25.5 -47.5t49.5 -22t89 -4h314q37 0 56 -25.5t19 -65.5q0 -121 -87 -121h-325q-130 0 -194 38.5t-88 118.5h-25q-32 -61 -90 -94t-170 -48t-308 -15z
M755 1361l155 -154l-155 -156l-125 126l-125 -126l-155 156l155 154l125 -125zM631 1101l148 -148l-148 -149l-148 149z" />
    <glyph glyph-name="uni067D.fina" unicode="&#x67d;" 
d="M529 -6q-289 0 -404 92t-115 318q0 138 44 261h178q-27 -177 -27 -254q0 -117 68.5 -161t255.5 -44q111 0 183 5t115 12.5t64 25.5t27 35.5t7 50.5l10 332l187 4l-6 -352q-1 -72 16.5 -92.5t67.5 -20.5q40 0 57.5 -19.5t17.5 -71.5q0 -121 -87 -121q-78 0 -127.5 36
t-71.5 120l-25 -1q-33 -48 -44 -59q-83 -86 -327 -95q-31 -1 -64 -1zM715 1231l155 -154l-155 -156l-125 126l-125 -126l-155 156l155 154l125 -125zM591 971l148 -148l-148 -149l-148 149z" />
    <glyph glyph-name="uni0681.init" unicode="&#x681;" 
d="M-20 -6q-50 0 -50 111q0 48 18 74.5t52 26.5q162 0 302 46t339 149q124 65 186 93v18q-85 5 -201 44q-25 8 -74 26t-75 26.5t-65.5 16.5t-75.5 8q-54 0 -94 -11t-102 -40l-8 161q92 95 225 95q64 0 129.5 -24.5t150 -65t156.5 -61.5q91 -27 162 -33.5t191 -3.5l-3 -201
q-83 -21 -145.5 -44.5t-159.5 -76.5q-66 -36 -175 -99.5t-169 -95.5t-148.5 -69.5t-176.5 -53.5t-189 -16zM366 908l-11 120l94 24v13q-72 25 -72 121q0 83 59 129.5t155 46.5q64 0 127 -24l-6 -114q-54 7 -94 7q-65 0 -90 -16t-25 -55q0 -37 17 -51.5t55 -14.5q34 0 181 27
l14 -125z" />
    <glyph glyph-name="uni0681.medi" unicode="&#x681;" 
d="M1188 -6q-102 0 -170.5 20t-109.5 63.5t-60.5 99.5t-29.5 140q-57 -31 -144 -82t-136 -78.5t-124 -63.5t-134 -54t-137.5 -31.5t-162.5 -13.5q-50 0 -50 111q0 48 18 74.5t52 26.5q162 0 302 46t339 149q124 65 186 93v18q-85 5 -201 44q-25 8 -74 26t-75 26.5
t-65.5 16.5t-75.5 8q-54 0 -94 -11t-102 -40l-8 161q92 95 225 95q64 0 129.5 -24.5t150 -65t156.5 -61.5q91 -27 162 -33.5t191 -3.5l-3 -201q-96 -23 -159 -50q12 -115 53.5 -154t162.5 -39q41 0 58 -14t17 -57q0 -79 -23 -110t-64 -31zM366 908l-11 120l94 24v13
q-72 25 -72 121q0 83 59 129.5t155 46.5q64 0 127 -24l-6 -114q-54 7 -94 7q-65 0 -90 -16t-25 -55q0 -37 17 -51.5t55 -14.5q34 0 181 27l14 -125z" />
    <glyph glyph-name="uni0681.fina" unicode="&#x681;" 
d="M1188 -6q-107 0 -174 19t-110 69t-62 125t-28 198q-296 -89 -441 -210t-145 -314q0 -114 45 -181t154.5 -100.5t300.5 -33.5q57 0 122 5.5t102.5 11t107.5 17t86 13.5l-2 -175q-72 -31 -199 -54t-247 -23q-344 0 -504 111t-160 369q0 120 35.5 218.5t98.5 172t161 133.5
t212 103t263 80v14q-80 7 -195 41q-10 3 -48.5 14.5t-50 14.5t-41.5 11t-46.5 10.5t-40.5 5t-46 2.5q-123 0 -246 -88l-18 153q107 140 292 140q65 0 130.5 -21t152 -59t154.5 -58q90 -27 160.5 -34t184.5 -3l-3 -201q-150 -35 -160 -38q4 -61 8.5 -98t15.5 -67t23.5 -44
t38.5 -23.5t54 -11.5t77 -2q41 0 58 -14t17 -57q0 -79 -23 -110t-64 -31zM366 938l-11 120l94 24v13q-72 25 -72 121q0 83 59 129.5t155 46.5q64 0 127 -24l-6 -114q-54 7 -94 7q-65 0 -90 -16t-25 -55q0 -37 17 -51.5t55 -14.5q34 0 181 27l14 -125z" />
    <glyph glyph-name="uni0682.init" unicode="&#x682;" 
d="M-20 -6q-50 0 -50 111q0 48 18 74.5t52 26.5q162 0 302 46t339 149q124 65 186 93v18q-85 5 -201 44q-25 8 -74 26t-75 26.5t-65.5 16.5t-75.5 8q-54 0 -94 -11t-102 -40l-8 161q92 95 225 95q64 0 129.5 -24.5t150 -65t156.5 -61.5q91 -27 162 -33.5t191 -3.5l-3 -201
q-83 -21 -145.5 -44.5t-159.5 -76.5q-66 -36 -175 -99.5t-169 -95.5t-148.5 -69.5t-176.5 -53.5t-189 -16zM563 907l-155 155l124 124l-121 121l155 155l155 -155l-124 -124l121 -121z" />
    <glyph glyph-name="uni0682.medi" unicode="&#x682;" 
d="M1188 -6q-102 0 -170.5 20t-109.5 63.5t-60.5 99.5t-29.5 140q-57 -31 -144 -82t-136 -78.5t-124 -63.5t-134 -54t-137.5 -31.5t-162.5 -13.5q-50 0 -50 111q0 48 18 74.5t52 26.5q162 0 302 46t339 149q124 65 186 93v18q-85 5 -201 44q-25 8 -74 26t-75 26.5
t-65.5 16.5t-75.5 8q-54 0 -94 -11t-102 -40l-8 161q92 95 225 95q64 0 129.5 -24.5t150 -65t156.5 -61.5q91 -27 162 -33.5t191 -3.5l-3 -201q-96 -23 -159 -50q12 -115 53.5 -154t162.5 -39q41 0 58 -14t17 -57q0 -79 -23 -110t-64 -31zM563 907l-155 155l124 124
l-121 121l155 155l155 -155l-124 -124l121 -121z" />
    <glyph glyph-name="uni0682.fina" unicode="&#x682;" 
d="M1188 -6q-107 0 -174 19t-110 69t-62 125t-28 198q-296 -89 -441 -210t-145 -314q0 -114 45 -181t154.5 -100.5t300.5 -33.5q57 0 122 5.5t102.5 11t107.5 17t86 13.5l-2 -175q-72 -31 -199 -54t-247 -23q-344 0 -504 111t-160 369q0 120 35.5 218.5t98.5 172t161 133.5
t212 103t263 80v14q-80 7 -195 41q-10 3 -48.5 14.5t-50 14.5t-41.5 11t-46.5 10.5t-40.5 5t-46 2.5q-123 0 -246 -88l-18 153q107 140 292 140q65 0 130.5 -21t152 -59t154.5 -58q90 -27 160.5 -34t184.5 -3l-3 -201q-150 -35 -160 -38q4 -61 8.5 -98t15.5 -67t23.5 -44
t38.5 -23.5t54 -11.5t77 -2q41 0 58 -14t17 -57q0 -79 -23 -110t-64 -31zM563 937l-155 155l124 124l-121 121l155 155l155 -155l-124 -124l121 -121z" />
    <glyph glyph-name="uni0685.init" unicode="&#x685;" 
d="M-20 -6q-50 0 -50 111q0 48 18 74.5t52 26.5q162 0 302 46t339 149q124 65 186 93v18q-85 5 -201 44q-25 8 -74 26t-75 26.5t-65.5 16.5t-75.5 8q-54 0 -94 -11t-102 -40l-8 161q92 95 225 95q64 0 129.5 -24.5t150 -65t156.5 -61.5q91 -27 162 -33.5t191 -3.5l-3 -201
q-83 -21 -145.5 -44.5t-159.5 -76.5q-66 -36 -175 -99.5t-169 -95.5t-148.5 -69.5t-176.5 -53.5t-189 -16zM691 924l-125 125l-125 -125l-155 154l155 156l125 -126l125 126l155 -156zM567 1184l-148 148l148 149l148 -149z" />
    <glyph glyph-name="uni0685.medi" unicode="&#x685;" 
d="M1188 -6q-102 0 -170.5 20t-109.5 63.5t-60.5 99.5t-29.5 140q-57 -31 -144 -82t-136 -78.5t-124 -63.5t-134 -54t-137.5 -31.5t-162.5 -13.5q-50 0 -50 111q0 48 18 74.5t52 26.5q162 0 302 46t339 149q124 65 186 93v18q-85 5 -201 44q-25 8 -74 26t-75 26.5
t-65.5 16.5t-75.5 8q-54 0 -94 -11t-102 -40l-8 161q92 95 225 95q64 0 129.5 -24.5t150 -65t156.5 -61.5q91 -27 162 -33.5t191 -3.5l-3 -201q-96 -23 -159 -50q12 -115 53.5 -154t162.5 -39q41 0 58 -14t17 -57q0 -79 -23 -110t-64 -31zM691 924l-125 125l-125 -125
l-155 154l155 156l125 -126l125 126l155 -156zM567 1184l-148 148l148 149l148 -149z" />
    <glyph glyph-name="uni0685.fina" unicode="&#x685;" 
d="M1188 -6q-107 0 -174 19t-110 69t-62 125t-28 198q-296 -89 -441 -210t-145 -314q0 -114 45 -181t154.5 -100.5t300.5 -33.5q57 0 122 5.5t102.5 11t107.5 17t86 13.5l-2 -175q-72 -31 -199 -54t-247 -23q-344 0 -504 111t-160 369q0 120 35.5 218.5t98.5 172t161 133.5
t212 103t263 80v14q-80 7 -195 41q-10 3 -48.5 14.5t-50 14.5t-41.5 11t-46.5 10.5t-40.5 5t-46 2.5q-123 0 -246 -88l-18 153q107 140 292 140q65 0 130.5 -21t152 -59t154.5 -58q90 -27 160.5 -34t184.5 -3l-3 -201q-150 -35 -160 -38q4 -61 8.5 -98t15.5 -67t23.5 -44
t38.5 -23.5t54 -11.5t77 -2q41 0 58 -14t17 -57q0 -79 -23 -110t-64 -31zM691 954l-125 125l-125 -125l-155 154l155 156l125 -126l125 126l155 -156zM567 1214l-148 148l148 149l148 -149z" />
    <glyph glyph-name="uni0689.fina" unicode="&#x689;" 
d="M498 -244q-77 0 -124.5 46.5t-47.5 124.5q0 38 14 71q-97 8 -167 28l18 200q148 -27 267 -27q178 0 319 75l-231 629l192 64l207 -547q47 -124 97 -169t158 -45q41 0 58 -18t17 -75q0 -119 -87 -119q-117 1 -189 27t-124 93q-91 -67 -225 -99q21 -36 21 -88
q0 -79 -48.5 -125t-124.5 -46zM498 -130q27 0 42.5 15t15.5 42t-15.5 42t-41.5 15q-27 0 -43.5 -15.5t-16.5 -41.5q0 -27 17 -42t42 -15z" />
    <glyph glyph-name="uni068A.fina" unicode="&#x68a;" 
d="M458 -6q-167 0 -285 32l18 200q148 -27 267 -27q178 0 319 75l-231 629l192 64l207 -547q47 -124 97 -169t158 -45q41 0 58 -18t17 -75q0 -119 -87 -119q-117 1 -189 27t-124 93q-79 -59 -189 -89.5t-228 -30.5zM560 -429l-161 161l161 162l161 -162z" />
    <glyph glyph-name="uni068B.fina" unicode="&#x68b;" 
d="M458 -6q-167 0 -285 32l18 200q148 -27 267 -27q178 0 319 75l-231 629l192 64l207 -547q47 -124 97 -169t158 -45q41 0 58 -18t17 -75q0 -119 -87 -119q-117 1 -189 27t-124 93q-79 -59 -189 -89.5t-228 -30.5zM619 1208q-119 0 -243 24l-5 120q73 -7 96 -9l-8 333h118
l3 -104q1 -44 -23 -81l9 -6q87 117 173 117q69 0 118 -58.5t49 -144.5q0 -99 -69 -145t-218 -46zM560 -429l-161 161l161 162l161 -162zM578 1335q38 -2 50 -2q85 0 116.5 12t31.5 45q0 32 -17 55.5t-46 23.5q-31 0 -63 -31.5t-72 -102.5z" />
    <glyph glyph-name="uni068F.fina" unicode="&#x68f;" 
d="M458 -6q-167 0 -285 32l18 200q148 -27 267 -27q178 0 319 75l-231 629l192 64l207 -547q47 -124 97 -169t158 -45q41 0 58 -18t17 -75q0 -119 -87 -119q-117 1 -189 27t-124 93q-79 -59 -189 -89.5t-228 -30.5zM761 1630l155 -154l-155 -156l-125 126l-125 -126
l-155 156l155 154l125 -125zM637 1370l148 -148l-148 -149l-148 149z" />
    <glyph glyph-name="uni0690.fina" unicode="&#x690;" 
d="M458 -6q-167 0 -285 32l18 200q148 -27 267 -27q178 0 319 75l-231 629l192 64l207 -547q47 -124 97 -169t158 -45q41 0 58 -18t17 -75q0 -119 -87 -119q-117 1 -189 27t-124 93q-79 -59 -189 -89.5t-228 -30.5zM522 1072l-133 133l114 116l-112 111l134 135l111 -112
l112 113l133 -135l-114 -114l112 -113l-134 -133l-111 111zM633 1227l94 95l-90 89l-94 -93z" />
    <glyph glyph-name="uni0692.fina" unicode="&#x692;" 
d="M917 23q-32 -245 -198 -369.5t-437 -124.5q-137 0 -237 26l13 192q122 -16 204 -16q218 0 337.5 93.5t119.5 276.5q0 18 -4 39t-14 50.5t-18 51t-26.5 62.5t-27.5 60.5t-33.5 70t-32.5 68.5l186 91q29 -60 62.5 -134.5t53 -116t38.5 -68.5q27 -39 86 -54t211 -15
q40 0 57.5 -19.5t17.5 -71.5q0 -121 -87 -121q-196 0 -271 29zM570 693l-142 301l124 20l76 -194h10l72 194l122 -15l-135 -306h-127z" />
    <glyph glyph-name="uni0693.fina" unicode="&#x693;" 
d="M596 -659q-77 0 -124.5 46.5t-47.5 124.5q0 9 2 27q-66 -10 -144 -10q-137 0 -237 26l13 192q122 -16 204 -16q218 0 337.5 93.5t119.5 276.5q0 18 -4 39t-14 50.5t-18 51t-26.5 62.5t-27.5 60.5t-33.5 70t-32.5 68.5l186 91q29 -60 62.5 -134.5t53 -116t38.5 -68.5
q27 -39 86 -54t211 -15q40 0 57.5 -19.5t17.5 -71.5q0 -121 -87 -121q-196 0 -271 29q-32 -250 -207 -377q59 -48 59 -134q0 -79 -48.5 -125t-124.5 -46zM596 -545q27 0 42.5 15t15.5 42t-15.5 42t-41.5 15q-27 0 -43.5 -15.5t-16.5 -41.5q0 -27 17 -42t42 -15z" />
    <glyph glyph-name="uni0694.fina" unicode="&#x694;" 
d="M917 23q-32 -245 -198 -369.5t-437 -124.5q-137 0 -237 26l13 192q122 -16 204 -16q218 0 337.5 93.5t119.5 276.5q0 18 -4 39t-14 50.5t-18 51t-26.5 62.5t-27.5 60.5t-33.5 70t-32.5 68.5l186 91q29 -60 62.5 -134.5t53 -116t38.5 -68.5q27 -39 86 -54t211 -15
q40 0 57.5 -19.5t17.5 -71.5q0 -121 -87 -121q-196 0 -271 29zM335 -817l-155 155l155 155l155 -155z" />
    <glyph glyph-name="uni0695.fina" unicode="&#x695;" 
d="M917 23q-32 -245 -198 -369.5t-437 -124.5q-137 0 -237 26l13 192q122 -16 204 -16q218 0 337.5 93.5t119.5 276.5q0 18 -4 39t-14 50.5t-18 51t-26.5 62.5t-27.5 60.5t-33.5 70t-32.5 68.5l186 91q29 -60 62.5 -134.5t53 -116t38.5 -68.5q27 -39 86 -54t211 -15
q40 0 57.5 -19.5t17.5 -71.5q0 -121 -87 -121q-196 0 -271 29zM279 -809l-134 283l117 19l71 -182h9l68 182l115 -14l-127 -288h-119z" />
    <glyph glyph-name="uni0696.fina" unicode="&#x696;" 
d="M917 23q-32 -245 -198 -369.5t-437 -124.5q-137 0 -237 26l13 192q122 -16 204 -16q218 0 337.5 93.5t119.5 276.5q0 18 -4 39t-14 50.5t-18 51t-26.5 62.5t-27.5 60.5t-33.5 70t-32.5 68.5l186 91q29 -60 62.5 -134.5t53 -116t38.5 -68.5q27 -39 86 -54t211 -15
q40 0 57.5 -19.5t17.5 -71.5q0 -121 -87 -121q-196 0 -271 29zM430 2l-161 161l161 162l161 -162zM335 -817l-155 155l155 155l155 -155z" />
    <glyph glyph-name="uni0697.fina" unicode="&#x697;" 
d="M917 23q-32 -245 -198 -369.5t-437 -124.5q-137 0 -237 26l13 192q122 -16 204 -16q218 0 337.5 93.5t119.5 276.5q0 18 -4 39t-14 50.5t-18 51t-26.5 62.5t-27.5 60.5t-33.5 70t-32.5 68.5l186 91q29 -60 62.5 -134.5t53 -116t38.5 -68.5q27 -39 86 -54t211 -15
q40 0 57.5 -19.5t17.5 -71.5q0 -121 -87 -121q-196 0 -271 29zM755 685l-125 125l-125 -125l-155 154l155 156l125 -126l125 126l155 -156z" />
    <glyph glyph-name="uni0699.fina" unicode="&#x699;" 
d="M917 23q-32 -245 -198 -369.5t-437 -124.5q-137 0 -237 26l13 192q122 -16 204 -16q218 0 337.5 93.5t119.5 276.5q0 18 -4 39t-14 50.5t-18 51t-26.5 62.5t-27.5 60.5t-33.5 70t-32.5 68.5l186 91q29 -60 62.5 -134.5t53 -116t38.5 -68.5q27 -39 86 -54t211 -15
q40 0 57.5 -19.5t17.5 -71.5q0 -121 -87 -121q-196 0 -271 29zM516 683l-133 133l114 116l-112 111l134 135l111 -112l112 113l133 -135l-114 -114l112 -113l-134 -133l-111 111zM627 838l94 95l-90 89l-94 -93z" />
    <glyph glyph-name="uni069A.init" unicode="&#x69a;" 
d="M-12 -6l12 212q103 0 146 19t50 72q10 72 26 300l178 2q-14 -258 -27 -364q-1 -5 -2.5 -14.5t-1.5 -13.5q58 -20 111 -20q50 0 69 16t24 63q7 70 11 350l178 6q5 -240 -8 -390q-2 -24 -4 -36q35 -9 76 -9q55 0 75 23.5t20 93.5q0 80 -36 328l181 21q44 -220 44 -361
q0 -154 -61.5 -226t-203.5 -72q-139 0 -204 76h-16q-17 -37 -64 -56.5t-105 -19.5q-74 0 -124 16.5t-103 59.5h-23q-24 -40 -73.5 -58t-144.5 -18zM680 -429l-161 161l161 162l161 -162zM680 774l-161 161l161 162l161 -162z" />
    <glyph glyph-name="uni069A.medi" unicode="&#x69a;" 
d="M456 -6q-73 0 -120.5 16t-100.5 60h-25q-31 -40 -82.5 -58t-139.5 -18l12 212q103 0 146 19t50 72q10 72 26 300l178 2q-14 -258 -27 -364q-1 -10 -5 -28q58 -20 112 -20q50 0 69 16t24 63q7 70 11 350l178 6q5 -240 -8 -390q-2 -24 -4 -35q40 -10 76 -10q55 0 74.5 23.5
t19.5 93.5q0 49 2 156.5t2 174.5l181 12q2 -152 0 -270v-95q0 -46 18 -61t77 -15q37 0 56 -25.5t19 -65.5q0 -121 -87 -121q-123 0 -168 76h-26q-35 -76 -159 -76q-123 0 -186 76h-24q-17 -37 -64 -56.5t-105 -19.5zM680 -429l-161 161l161 162l161 -162zM680 774l-161 161
l161 162l161 -162z" />
    <glyph glyph-name="uni069A.fina" unicode="&#x69a;" 
d="M285 -357q-150 0 -212.5 94t-62.5 292q0 201 30 415h160q-14 -252 -14 -373q0 -134 19.5 -179t77.5 -45q41 0 62.5 22t31.5 79t10 165q0 216 -18 478l169 10q20 -255 23 -410q23 -4 54 -4q35 0 48.5 11t15.5 38q6 95 -6 373l166 8q15 -290 5 -425q27 -5 52 -5q37 0 50 19
t13 76q0 92 -15 353l165 5q12 -270 12 -358q0 -48 16 -62t63 -14q37 0 56 -25.5t19 -65.5q0 -121 -87 -121q-114 0 -160 76h-26q-32 -76 -117 -76q-94 0 -138 75h-24q-30 -75 -122 -75q-21 0 -45 2q-14 -189 -74 -271t-197 -82zM853 -429l-161 161l161 162l161 -162z
M761 764l-161 161l161 162l161 -162z" />
    <glyph glyph-name="uni069B.init" unicode="&#x69b;" 
d="M-12 -6l12 212q103 0 146 19t50 72q10 72 26 300l178 2q-14 -258 -27 -364q-1 -5 -2.5 -14.5t-1.5 -13.5q58 -20 111 -20q50 0 69 16t24 63q7 70 11 350l178 6q5 -240 -8 -390q-2 -24 -4 -36q35 -9 76 -9q55 0 75 23.5t20 93.5q0 80 -36 328l181 21q44 -220 44 -361
q0 -154 -61.5 -226t-203.5 -72q-139 0 -204 76h-16q-17 -37 -64 -56.5t-105 -19.5q-74 0 -124 16.5t-103 59.5h-23q-24 -40 -73.5 -58t-144.5 -18zM807 -77l155 -154l-155 -156l-125 126l-125 -126l-155 156l155 154l125 -125zM683 -337l148 -148l-148 -149l-148 149z" />
    <glyph glyph-name="uni069B.medi" unicode="&#x69b;" 
d="M456 -6q-73 0 -120.5 16t-100.5 60h-25q-31 -40 -82.5 -58t-139.5 -18l12 212q103 0 146 19t50 72q10 72 26 300l178 2q-14 -258 -27 -364q-1 -10 -5 -28q58 -20 112 -20q50 0 69 16t24 63q7 70 11 350l178 6q5 -240 -8 -390q-2 -24 -4 -35q40 -10 76 -10q55 0 74.5 23.5
t19.5 93.5q0 49 2 156.5t2 174.5l181 12q2 -152 0 -270v-95q0 -46 18 -61t77 -15q37 0 56 -25.5t19 -65.5q0 -121 -87 -121q-123 0 -168 76h-26q-35 -76 -159 -76q-123 0 -186 76h-24q-17 -37 -64 -56.5t-105 -19.5zM807 -77l155 -154l-155 -156l-125 126l-125 -126
l-155 156l155 154l125 -125zM683 -337l148 -148l-148 -149l-148 149z" />
    <glyph glyph-name="uni069B.fina" unicode="&#x69b;" 
d="M285 -357q-150 0 -212.5 94t-62.5 292q0 201 30 415h160q-14 -252 -14 -373q0 -134 19.5 -179t77.5 -45q41 0 62.5 22t31.5 79t10 165q0 216 -18 478l169 10q20 -255 23 -410q23 -4 54 -4q35 0 48.5 11t15.5 38q6 95 -6 373l166 8q15 -290 5 -425q27 -5 52 -5q37 0 50 19
t13 76q0 92 -15 353l165 5q12 -270 12 -358q0 -48 16 -62t63 -14q37 0 56 -25.5t19 -65.5q0 -121 -87 -121q-114 0 -160 76h-26q-32 -76 -117 -76q-94 0 -138 75h-24q-30 -75 -122 -75q-21 0 -45 2q-14 -189 -74 -271t-197 -82zM980 -77l155 -154l-155 -156l-125 126
l-125 -126l-155 156l155 154l125 -125zM856 -337l148 -148l-148 -149l-148 149z" />
    <glyph glyph-name="seenThreedotsbelowthreedotsar.init" unicode="&#x69c;" 
d="M-12 -6l12 212q103 0 146 19t50 72q10 72 26 300l178 2q-14 -258 -27 -364q-1 -5 -2.5 -14.5t-1.5 -13.5q58 -20 111 -20q50 0 69 16t24 63q7 70 11 350l178 6q5 -240 -8 -390q-2 -24 -4 -36q35 -9 76 -9q55 0 75 23.5t20 93.5q0 80 -36 328l181 21q44 -220 44 -361
q0 -154 -61.5 -226t-203.5 -72q-139 0 -204 76h-16q-17 -37 -64 -56.5t-105 -19.5q-74 0 -124 16.5t-103 59.5h-23q-24 -40 -73.5 -58t-144.5 -18zM805 745l-125 125l-125 -125l-155 154l155 156l125 -126l125 126l155 -156zM807 -77l155 -154l-155 -156l-125 126l-125 -126
l-155 156l155 154l125 -125zM683 -337l148 -148l-148 -149l-148 149zM681 1005l-148 148l148 149l148 -149z" />
    <glyph glyph-name="seenThreedotsbelowthreedotsar.medi" unicode="&#x69c;" 
d="M456 -6q-73 0 -120.5 16t-100.5 60h-25q-31 -40 -82.5 -58t-139.5 -18l12 212q103 0 146 19t50 72q10 72 26 300l178 2q-14 -258 -27 -364q-1 -10 -5 -28q58 -20 112 -20q50 0 69 16t24 63q7 70 11 350l178 6q5 -240 -8 -390q-2 -24 -4 -35q40 -10 76 -10q55 0 74.5 23.5
t19.5 93.5q0 49 2 156.5t2 174.5l181 12q2 -152 0 -270v-95q0 -46 18 -61t77 -15q37 0 56 -25.5t19 -65.5q0 -121 -87 -121q-123 0 -168 76h-26q-35 -76 -159 -76q-123 0 -186 76h-24q-17 -37 -64 -56.5t-105 -19.5zM805 745l-125 125l-125 -125l-155 154l155 156l125 -126
l125 126l155 -156zM807 -77l155 -154l-155 -156l-125 126l-125 -126l-155 156l155 154l125 -125zM683 -337l148 -148l-148 -149l-148 149zM681 1005l-148 148l148 149l148 -149z" />
    <glyph glyph-name="seenThreedotsbelowthreedotsar.fina" unicode="&#x69c;" 
d="M285 -357q-150 0 -212.5 94t-62.5 292q0 201 30 415h160q-14 -252 -14 -373q0 -134 19.5 -179t77.5 -45q41 0 62.5 22t31.5 79t10 165q0 216 -18 478l169 10q20 -255 23 -410q23 -4 54 -4q35 0 48.5 11t15.5 38q6 95 -6 373l166 8q15 -290 5 -425q27 -5 52 -5q37 0 50 19
t13 76q0 92 -15 353l165 5q12 -270 12 -358q0 -48 16 -62t63 -14q37 0 56 -25.5t19 -65.5q0 -121 -87 -121q-114 0 -160 76h-26q-32 -76 -117 -76q-94 0 -138 75h-24q-30 -75 -122 -75q-21 0 -45 2q-14 -189 -74 -271t-197 -82zM886 745l-125 125l-125 -125l-155 154
l155 156l125 -126l125 126l155 -156zM980 -77l155 -154l-155 -156l-125 126l-125 -126l-155 156l155 154l125 -125zM856 -337l148 -148l-148 -149l-148 149zM762 1005l-148 148l148 149l148 -149z" />
    <glyph glyph-name="uni069D.init" unicode="&#x69d;" 
d="M614 -6q-219 0 -294 15t-106 76h-25q-27 -48 -74.5 -69.5t-126.5 -21.5l12 212q16 0 26.5 1.5t20.5 7.5t15.5 13t11 24.5t8 36t5 52.5t3.5 68.5t2 89.5l154 2q-5 -193 -18 -278l24 -3q309 618 559 618q64 0 123.5 -31t107.5 -87.5t77 -146t29 -198.5q0 -89 -25.5 -156
t-85 -119t-165.5 -79t-258 -27zM436 208q104 -2 196 -2q91 0 154.5 10t98.5 24.5t53.5 40.5t23 49t4.5 59q0 88 -52.5 161t-119.5 73q-70 0 -157.5 -103.5t-200.5 -311.5zM775 -425l-125 125l-125 -125l-155 154l155 156l125 -126l125 126l155 -156z" />
    <glyph glyph-name="uni069D.medi" unicode="&#x69d;" 
d="M1189 -7q-73 0 -112 17.5t-60 61.5h-19q-129 -78 -384 -78q-219 0 -294 15t-106 76h-25q-27 -48 -74.5 -69.5t-126.5 -21.5l12 212q16 0 26.5 1.5t20.5 7.5t15.5 13t11 24.5t8 36t5 52.5t3.5 68.5t2 89.5l154 2q-5 -193 -18 -278l24 -3q309 618 559 618q64 0 123.5 -31
t107.5 -87.5t77 -146t29 -198.5q0 -97 -29 -165q34 -5 81 -5q43 0 61.5 -19.5t18.5 -69.5q0 -123 -91 -123zM436 208q104 -2 196 -2q91 0 154.5 10t98.5 24.5t53.5 40.5t23 49t4.5 59q0 88 -52.5 161t-119.5 73q-70 0 -157.5 -103.5t-200.5 -311.5zM775 -425l-125 125
l-125 -125l-155 154l155 156l125 -126l125 126l155 -156z" />
    <glyph glyph-name="uni069D.fina" unicode="&#x69d;" 
d="M1189 -6q-49 0 -72 16t-37 61q-94 -78 -320 -78q-122 0 -213 20q-12 -205 -74 -287.5t-209 -82.5q-77 0 -127 23.5t-77.5 75t-38.5 119t-11 168.5q0 212 30 414h160q-14 -221 -14 -372q0 -138 16 -181t73 -43q43 0 63 18t29.5 74t9.5 174q0 138 -18 400l172 9
q16 -229 18 -263q92 307 179.5 442t195.5 135q72 0 131.5 -68.5t91 -174t31.5 -219.5q0 -102 -18 -167q14 -1 40 -1q47 0 63.5 -19t16.5 -71q0 -122 -91 -122zM945 -425l-125 125l-125 -125l-155 154l155 156l125 -126l125 126l155 -156zM693 205q56 -2 90 -2q76 0 117 6
t64 26t29 47.5t6 81.5q0 97 -30.5 178.5t-69.5 81.5q-28 0 -54.5 -32t-65 -126.5t-86.5 -260.5z" />
    <glyph glyph-name="uni069E.init" unicode="&#x69e;" 
d="M614 -6q-219 0 -294 15t-106 76h-25q-27 -48 -74.5 -69.5t-126.5 -21.5l12 212q16 0 26.5 1.5t20.5 7.5t15.5 13t11 24.5t8 36t5 52.5t3.5 68.5t2 89.5l154 2q-5 -193 -18 -278l24 -3q309 618 559 618q64 0 123.5 -31t107.5 -87.5t77 -146t29 -198.5q0 -89 -25.5 -156
t-85 -119t-165.5 -79t-258 -27zM436 208q104 -2 196 -2q91 0 154.5 10t98.5 24.5t53.5 40.5t23 49t4.5 59q0 88 -52.5 161t-119.5 73q-70 0 -157.5 -103.5t-200.5 -311.5zM905 955l-125 125l-125 -125l-155 154l155 156l125 -126l125 126l155 -156zM781 1215l-148 148
l148 149l148 -149z" />
    <glyph glyph-name="uni069E.medi" unicode="&#x69e;" 
d="M1189 -7q-73 0 -112 17.5t-60 61.5h-19q-129 -78 -384 -78q-219 0 -294 15t-106 76h-25q-27 -48 -74.5 -69.5t-126.5 -21.5l12 212q16 0 26.5 1.5t20.5 7.5t15.5 13t11 24.5t8 36t5 52.5t3.5 68.5t2 89.5l154 2q-5 -193 -18 -278l24 -3q309 618 559 618q64 0 123.5 -31
t107.5 -87.5t77 -146t29 -198.5q0 -97 -29 -165q34 -5 81 -5q43 0 61.5 -19.5t18.5 -69.5q0 -123 -91 -123zM436 208q104 -2 196 -2q91 0 154.5 10t98.5 24.5t53.5 40.5t23 49t4.5 59q0 88 -52.5 161t-119.5 73q-70 0 -157.5 -103.5t-200.5 -311.5zM905 955l-125 125
l-125 -125l-155 154l155 156l125 -126l125 126l155 -156zM781 1215l-148 148l148 149l148 -149z" />
    <glyph glyph-name="uni069E.fina" unicode="&#x69e;" 
d="M1189 -6q-49 0 -72 16t-37 61q-94 -78 -320 -78q-122 0 -213 20q-12 -205 -74 -287.5t-209 -82.5q-77 0 -127 23.5t-77.5 75t-38.5 119t-11 168.5q0 212 30 414h160q-14 -221 -14 -372q0 -138 16 -181t73 -43q43 0 63 18t29.5 74t9.5 174q0 138 -18 400l172 9
q16 -229 18 -263q92 307 179.5 442t195.5 135q72 0 131.5 -68.5t91 -174t31.5 -219.5q0 -102 -18 -167q14 -1 40 -1q47 0 63.5 -19t16.5 -71q0 -122 -91 -122zM1005 965l-125 125l-125 -125l-155 154l155 156l125 -126l125 126l155 -156zM693 205q56 -2 90 -2q76 0 117 6
t64 26t29 47.5t6 81.5q0 97 -30.5 178.5t-69.5 81.5q-28 0 -54.5 -32t-65 -126.5t-86.5 -260.5zM881 1225l-148 148l148 149l148 -149z" />
    <glyph glyph-name="uni069F.init" unicode="&#x69f;" 
d="M-12 -6l12 212h133l33 51l-16 1163h206l9 -686q1 -123 -46 -218l14 -10q124 174 223.5 253t211.5 79q159 0 269.5 -122t110.5 -331q0 -100 -30 -170t-102.5 -121t-198 -75.5t-311.5 -24.5h-518zM326 206h201q138 0 226.5 10.5t133.5 33.5t60.5 50t15.5 68
q0 114 -58.5 189t-157.5 75q-34 0 -67.5 -13t-70 -45.5t-65 -62t-71 -89t-69.5 -99.5t-78 -117zM885 935l-125 125l-125 -125l-155 154l155 156l125 -126l125 126l155 -156zM761 1195l-148 148l148 149l148 -149z" />
    <glyph glyph-name="uni069F.medi" unicode="&#x69f;" 
d="M1189 -6q-82 0 -126.5 17t-65.5 61h-18q-150 -78 -473 -78h-518l12 212h133l33 51l-16 1163h206l9 -686q1 -123 -46 -218l14 -10q124 174 223.5 253t211.5 79q159 0 269.5 -122t110.5 -331q0 -104 -32 -174q35 -5 84 -5q43 0 61.5 -20t18.5 -70q0 -122 -91 -122zM326 206
h201q138 0 226.5 10.5t133.5 33.5t60.5 50t15.5 68q0 114 -58.5 189t-157.5 75q-34 0 -67.5 -13t-70 -45.5t-65 -62t-71 -89t-69.5 -99.5t-78 -117zM885 935l-125 125l-125 -125l-155 154l155 156l125 -126l125 126l155 -156zM761 1195l-148 148l148 149l148 -149z" />
    <glyph glyph-name="uni069F.fina" unicode="&#x69f;" 
d="M1189 -6q-82 0 -126.5 17t-65.5 61h-18q-150 -78 -473 -78q-110 0 -173.5 2t-156 14t-173.5 35l16 186q42 -4 124 -10q4 6 11.5 18t11.5 18l-16 1163h206l9 -686q1 -123 -46 -218l14 -10q124 174 223.5 253t211.5 79q159 0 269.5 -122t110.5 -331q0 -104 -32 -174
q35 -5 84 -5q43 0 61.5 -20t18.5 -70q0 -122 -91 -122zM329 210q87 -4 198 -4q138 0 226.5 10.5t133.5 33.5t60.5 50t15.5 68q0 114 -58.5 189t-157.5 75q-29 0 -59 -12t-56.5 -29t-58.5 -50.5t-56.5 -62.5t-61 -80.5t-60.5 -87.5t-66 -100zM885 935l-125 125l-125 -125
l-155 154l155 156l125 -126l125 126l155 -156zM761 1195l-148 148l148 149l148 -149z" />
    <glyph glyph-name="uni06A0.init" unicode="&#x6a0;" 
d="M-17 -6l17 212q253 0 383 5v20q-106 50 -106 217q0 169 105.5 258t290.5 89q146 0 290 -62l-17 -172q-137 30 -233 30q-117 0 -173 -41.5t-56 -137.5q0 -57 10.5 -90.5t39.5 -51t66 -23t103 -5.5q108 0 344 41l19 -188q-120 -35 -256 -57t-290.5 -30.5t-262.5 -11
t-274 -2.5zM796 895l-125 125l-125 -125l-155 154l155 156l125 -126l125 126l155 -156zM672 1155l-148 148l148 149l148 -149z" />
    <glyph glyph-name="uni06A0.medi" unicode="&#x6a0;" 
d="M-16 -6l16 212q205 0 390 30q-16 16 -195 215v215q223 84 429 84q392 0 392 -261q0 -153 -172 -275q97 -8 358 -8q76 0 97 -19.5t21 -77.5q0 -64 -27.5 -89.5t-106.5 -25.5q-249 0 -382.5 18t-230.5 72q-275 -90 -589 -90zM735 865l-125 125l-125 -125l-155 154l155 156
l125 -126l125 126l155 -156zM621 294q182 66 182 157q0 42 -42 64.5t-148 22.5q-103 0 -219 -27l32.5 -32.5t31 -31.5t26.5 -26.5t27 -26.5t22.5 -22t23.5 -22.5t20.5 -19t22.5 -20t21 -16.5zM611 1125l-148 148l148 149l148 -149z" />
    <glyph glyph-name="uni06A0.fina" unicode="&#x6a0;" 
d="M610 -639q-258 0 -380.5 85.5t-122.5 262.5q0 124 82.5 226t273.5 231q-32 29 -67 64.5t-54 56t-72 80.5t-75 84v215q223 84 429 84q199 0 295 -63t96 -192q0 -77 -42 -143.5t-135 -137.5q98 -8 364 -8q76 0 97 -19.5t21 -77.5q0 -64 -27.5 -89.5t-106.5 -25.5
q-226 0 -354 14.5t-220 56.5q-170 -111 -240.5 -181t-70.5 -149q0 -93 71 -131t252 -38q205 0 442 47l-2 -175q-83 -32 -210 -54.5t-244 -22.5zM735 865l-125 125l-125 -125l-155 154l155 156l125 -126l125 126l155 -156zM638 280q93 62 129 98t36 73q0 42 -42 64.5
t-148 22.5q-103 0 -219 -27q10 -11 43.5 -44.5l42.5 -42.5l33.5 -33.5t35 -33.5t28.5 -26t32 -28.5t29 -22.5zM611 1125l-148 148l148 149l148 -149z" />
    <glyph glyph-name="uni06A1.init" unicode="&#x6a1;" 
d="M-17 -6l16 212h260q170 -1 236 0t137 7t118 21q32 10 48 23t26.5 44t13.5 88l-26 -1q-49 -69 -191 -69t-203 60t-61 203q0 103 38 190t109 139.5t161 52.5q161 0 251.5 -137.5t90.5 -355.5q0 -336 -192 -414q-79 -30 -203.5 -44.5t-233 -16.5t-344.5 -2h-51zM838 525
q-18 227 -172 227q-64 0 -98.5 -42.5t-34.5 -105.5q0 -59 24 -81.5t97 -22.5q102 0 184 25z" />
    <glyph glyph-name="uni06A1.medi" unicode="&#x6a1;" 
d="M-16 -6l16 212q202 0 340 9q-68 95 -68 246q0 159 90 259.5t238 100.5q139 0 226.5 -92.5t87.5 -255.5q0 -164 -75 -257q137 -10 363 -10q57 0 82.5 -22.5t25.5 -77.5q0 -61 -31.5 -86.5t-93.5 -25.5q-407 0 -607 63q-203 -63 -594 -63zM604 256q115 45 115 193
q0 78 -32.5 119t-90.5 41q-61 0 -95 -40.5t-34 -118.5q0 -75 30.5 -121t106.5 -73z" />
    <glyph glyph-name="uni06A1.fina" unicode="&#x6a1;" 
d="M459 -6q-242 0 -345 89.5t-103 310.5q0 72 13.5 148.5t30.5 122.5h178q-27 -182 -27 -268q0 -117 54 -154.5t219 -37.5q30 0 80 2q-69 100 -69 254q0 159 90 259.5t238 100.5q139 0 226.5 -92.5t87.5 -255.5q0 -168 -82 -264q69 -3 152 -3q57 0 82.5 -22.5t25.5 -77.5
q0 -61 -31.5 -86.5t-93.5 -25.5q-249 0 -403 54q-158 -54 -323 -54zM808 251l1 1h2q126 43 126 197q0 78 -32.5 119t-90.5 41q-61 0 -95 -40.5t-34 -118.5q0 -77 29.5 -124.5t93.5 -74.5z" />
    <glyph glyph-name="fehDotMovedbelowar.init" unicode="&#x6a2;" 
d="M-17 -6l16 212h260q170 -1 236 0t137 7t118 21q32 10 48 23t26.5 44t13.5 88l-26 -1q-49 -69 -191 -69t-203 60t-61 203q0 103 38 190t109 139.5t161 52.5q161 0 251.5 -137.5t90.5 -355.5q0 -336 -192 -414q-79 -30 -203.5 -44.5t-233 -16.5t-344.5 -2h-51zM838 525
q-18 227 -172 227q-64 0 -98.5 -42.5t-34.5 -105.5q0 -59 24 -81.5t97 -22.5q102 0 184 25zM713 -429l-161 161l161 162l161 -162z" />
    <glyph glyph-name="fehDotMovedbelowar.medi" unicode="&#x6a2;" 
d="M-16 -6l16 212q202 0 340 9q-68 95 -68 246q0 159 90 259.5t238 100.5q139 0 226.5 -92.5t87.5 -255.5q0 -164 -75 -257q137 -10 363 -10q57 0 82.5 -22.5t25.5 -77.5q0 -61 -31.5 -86.5t-93.5 -25.5q-407 0 -607 63q-203 -63 -594 -63zM604 256q115 45 115 193
q0 78 -32.5 119t-90.5 41q-61 0 -95 -40.5t-34 -118.5q0 -75 30.5 -121t106.5 -73zM583 -429l-161 161l161 162l161 -162z" />
    <glyph glyph-name="fehDotMovedbelowar.fina" unicode="&#x6a2;" 
d="M459 -6q-242 0 -345 89.5t-103 310.5q0 72 13.5 148.5t30.5 122.5h178q-27 -182 -27 -268q0 -117 54 -154.5t219 -37.5q30 0 80 2q-69 100 -69 254q0 159 90 259.5t238 100.5q139 0 226.5 -92.5t87.5 -255.5q0 -168 -82 -264q69 -3 152 -3q57 0 82.5 -22.5t25.5 -77.5
q0 -61 -31.5 -86.5t-93.5 -25.5q-249 0 -403 54q-158 -54 -323 -54zM808 251l1 1h2q126 43 126 197q0 78 -32.5 119t-90.5 41q-61 0 -95 -40.5t-34 -118.5q0 -77 29.5 -124.5t93.5 -74.5zM799 -429l-161 161l161 162l161 -162z" />
    <glyph glyph-name="uni06A3.init" unicode="&#x6a3;" 
d="M-17 -6l16 212h260q170 -1 236 0t137 7t118 21q32 10 48 23t26.5 44t13.5 88l-26 -1q-49 -69 -191 -69t-203 60t-61 203q0 103 38 190t109 139.5t161 52.5q161 0 251.5 -137.5t90.5 -355.5q0 -336 -192 -414q-79 -30 -203.5 -44.5t-233 -16.5t-344.5 -2h-51zM838 525
q-18 227 -172 227q-64 0 -98.5 -42.5t-34.5 -105.5q0 -59 24 -81.5t97 -22.5q102 0 184 25zM713 -429l-161 161l161 162l161 -162zM665 1071l-161 161l161 162l161 -162z" />
    <glyph glyph-name="uni06A3.medi" unicode="&#x6a3;" 
d="M-16 -6l16 212q202 0 340 9q-68 95 -68 246q0 159 90 259.5t238 100.5q139 0 226.5 -92.5t87.5 -255.5q0 -164 -75 -257q137 -10 363 -10q57 0 82.5 -22.5t25.5 -77.5q0 -61 -31.5 -86.5t-93.5 -25.5q-407 0 -607 63q-203 -63 -594 -63zM604 256q115 45 115 193
q0 78 -32.5 119t-90.5 41q-61 0 -95 -40.5t-34 -118.5q0 -75 30.5 -121t106.5 -73zM583 -429l-161 161l161 162l161 -162zM601 928l-161 161l161 162l161 -162z" />
    <glyph glyph-name="uni06A3.fina" unicode="&#x6a3;" 
d="M459 -6q-242 0 -345 89.5t-103 310.5q0 72 13.5 148.5t30.5 122.5h178q-27 -182 -27 -268q0 -117 54 -154.5t219 -37.5q30 0 80 2q-69 100 -69 254q0 159 90 259.5t238 100.5q139 0 226.5 -92.5t87.5 -255.5q0 -168 -82 -264q69 -3 152 -3q57 0 82.5 -22.5t25.5 -77.5
q0 -61 -31.5 -86.5t-93.5 -25.5q-249 0 -403 54q-158 -54 -323 -54zM808 251l1 1h2q126 43 126 197q0 78 -32.5 119t-90.5 41q-61 0 -95 -40.5t-34 -118.5q0 -77 29.5 -124.5t93.5 -74.5zM799 -429l-161 161l161 162l161 -162zM821 928l-161 161l161 162l161 -162z" />
    <glyph glyph-name="uni06A5.init" unicode="&#x6a5;" 
d="M-17 -6l16 212h260q170 -1 236 0t137 7t118 21q32 10 48 23t26.5 44t13.5 88l-26 -1q-49 -69 -191 -69t-203 60t-61 203q0 103 38 190t109 139.5t161 52.5q161 0 251.5 -137.5t90.5 -355.5q0 -336 -192 -414q-79 -30 -203.5 -44.5t-233 -16.5t-344.5 -2h-51zM738 -83
l155 -154l-155 -156l-125 126l-125 -126l-155 156l155 154l125 -125zM838 525q-18 227 -172 227q-64 0 -98.5 -42.5t-34.5 -105.5q0 -59 24 -81.5t97 -22.5q102 0 184 25zM614 -343l148 -148l-148 -149l-148 149z" />
    <glyph glyph-name="uni06A5.medi" unicode="&#x6a5;" 
d="M-16 -6l16 212q202 0 340 9q-68 95 -68 246q0 159 90 259.5t238 100.5q139 0 226.5 -92.5t87.5 -255.5q0 -164 -75 -257q137 -10 363 -10q57 0 82.5 -22.5t25.5 -77.5q0 -61 -31.5 -86.5t-93.5 -25.5q-407 0 -607 63q-203 -63 -594 -63zM710 -77l155 -154l-155 -156
l-125 126l-125 -126l-155 156l155 154l125 -125zM604 256q115 45 115 193q0 78 -32.5 119t-90.5 41q-61 0 -95 -40.5t-34 -118.5q0 -75 30.5 -121t106.5 -73zM586 -337l148 -148l-148 -149l-148 149z" />
    <glyph glyph-name="uni06A5.fina" unicode="&#x6a5;" 
d="M459 -6q-242 0 -345 89.5t-103 310.5q0 72 13.5 148.5t30.5 122.5h178q-27 -182 -27 -268q0 -117 54 -154.5t219 -37.5q30 0 80 2q-69 100 -69 254q0 159 90 259.5t238 100.5q139 0 226.5 -92.5t87.5 -255.5q0 -168 -82 -264q69 -3 152 -3q57 0 82.5 -22.5t25.5 -77.5
q0 -61 -31.5 -86.5t-93.5 -25.5q-249 0 -403 54q-158 -54 -323 -54zM926 -77l155 -154l-155 -156l-125 126l-125 -126l-155 156l155 154l125 -125zM808 251l1 1h2q126 43 126 197q0 78 -32.5 119t-90.5 41q-61 0 -95 -40.5t-34 -118.5q0 -77 29.5 -124.5t93.5 -74.5z
M802 -337l148 -148l-148 -149l-148 149z" />
    <glyph glyph-name="uni06A7.init" unicode="&#x6a7;" 
d="M-17 -6l16 212h260q170 -1 236 0t137 7t118 21q32 10 48 23t26.5 44t13.5 88l-26 -1q-49 -69 -191 -69t-203 60t-61 203q0 103 38 190t109 139.5t161 52.5q161 0 251.5 -137.5t90.5 -355.5q0 -336 -192 -414q-79 -30 -203.5 -44.5t-233 -16.5t-344.5 -2h-51zM838 525
q-18 227 -172 227q-64 0 -98.5 -42.5t-34.5 -105.5q0 -59 24 -81.5t97 -22.5q102 0 184 25zM665 1071l-161 161l161 162l161 -162z" />
    <glyph glyph-name="uni06A7.medi" unicode="&#x6a7;" 
d="M-16 -6l16 212q202 0 340 9q-68 95 -68 246q0 159 90 259.5t238 100.5q139 0 226.5 -92.5t87.5 -255.5q0 -164 -75 -257q137 -10 363 -10q57 0 82.5 -22.5t25.5 -77.5q0 -61 -31.5 -86.5t-93.5 -25.5q-407 0 -607 63q-203 -63 -594 -63zM604 256q115 45 115 193
q0 78 -32.5 119t-90.5 41q-61 0 -95 -40.5t-34 -118.5q0 -75 30.5 -121t106.5 -73zM601 928l-161 161l161 162l161 -162z" />
    <glyph glyph-name="uni06A7.fina" unicode="&#x6a7;" 
d="M578 -443q-287 0 -417.5 117.5t-130.5 355.5q0 185 48 369h178q-31 -227 -31 -337q0 -170 82 -235t286 -65q122 0 194.5 14.5t114.5 49.5q57 49 72 165h-182q-80 0 -133.5 14.5t-92 50t-56 96t-17.5 152.5q0 180 87.5 297t231.5 117q113 0 190 -65t113.5 -178t39.5 -269
h45q49 0 67 -23t18 -80q0 -62 -19.5 -87t-76.5 -25h-45q-14 -110 -49 -188t-100.5 -134.5t-168.5 -84t-248 -27.5zM983 203q-4 159 -46.5 231t-123.5 72q-71 0 -107.5 -47.5t-36.5 -128.5q0 -85 29 -109.5t122 -24.5q68 0 163 7zM811 825l-161 161l161 162l161 -162z" />
    <glyph glyph-name="uni06A8.init" unicode="&#x6a8;" 
d="M-17 -6l16 212h260q170 -1 236 0t137 7t118 21q32 10 48 23t26.5 44t13.5 88l-26 -1q-49 -69 -191 -69t-203 60t-61 203q0 103 38 190t109 139.5t161 52.5q161 0 251.5 -137.5t90.5 -355.5q0 -336 -192 -414q-79 -30 -203.5 -44.5t-233 -16.5t-344.5 -2h-51zM790 1052
l-125 125l-125 -125l-155 154l155 156l125 -126l125 126l155 -156zM838 525q-18 227 -172 227q-64 0 -98.5 -42.5t-34.5 -105.5q0 -59 24 -81.5t97 -22.5q102 0 184 25zM666 1312l-148 148l148 149l148 -149z" />
    <glyph glyph-name="uni06A8.medi" unicode="&#x6a8;" 
d="M-16 -6l16 212q202 0 340 9q-68 95 -68 246q0 159 90 259.5t238 100.5q139 0 226.5 -92.5t87.5 -255.5q0 -164 -75 -257q137 -10 363 -10q57 0 82.5 -22.5t25.5 -77.5q0 -61 -31.5 -86.5t-93.5 -25.5q-407 0 -607 63q-203 -63 -594 -63zM726 909l-125 125l-125 -125
l-155 154l155 156l125 -126l125 126l155 -156zM604 256q115 45 115 193q0 78 -32.5 119t-90.5 41q-61 0 -95 -40.5t-34 -118.5q0 -75 30.5 -121t106.5 -73zM602 1169l-148 148l148 149l148 -149z" />
    <glyph glyph-name="uni06A8.fina" unicode="&#x6a8;" 
d="M578 -443q-287 0 -417.5 117.5t-130.5 355.5q0 185 48 369h178q-31 -227 -31 -337q0 -170 82 -235t286 -65q122 0 194.5 14.5t114.5 49.5q57 49 72 165h-182q-80 0 -133.5 14.5t-92 50t-56 96t-17.5 152.5q0 180 87.5 297t231.5 117q113 0 190 -65t113.5 -178t39.5 -269
h45q49 0 67 -23t18 -80q0 -62 -19.5 -87t-76.5 -25h-45q-14 -110 -49 -188t-100.5 -134.5t-168.5 -84t-248 -27.5zM936 806l-125 125l-125 -125l-155 154l155 156l125 -126l125 126l155 -156zM983 203q-4 159 -46.5 231t-123.5 72q-71 0 -107.5 -47.5t-36.5 -128.5
q0 -85 29 -109.5t122 -24.5q68 0 163 7zM812 1066l-148 148l148 149l148 -149z" />
    <glyph glyph-name="uni06AA.init" unicode="&#x6aa;" 
d="M-11 -6l11 212h363q184 0 289 12.5t146.5 37t41.5 67.5t-38 60t-128 17h-154q-84 0 -145.5 13t-96 32.5t-54.5 49.5t-26 57t-6 62q0 119 125.5 240t423.5 288l7 -213q-204 -117 -290.5 -183.5t-86.5 -101.5q0 -24 31 -33t103 -9h145q194 0 279 -65.5t85 -203.5
q0 -339 -679 -339h-346z" />
    <glyph glyph-name="uni06AA.medi" unicode="&#x6aa;" 
d="M1189 -6q-134 0 -202 7.5t-96 23t-44 47.5h-15q-170 -78 -497 -78h-346l11 212h363q184 0 289 12.5t146.5 37t41.5 67.5t-38 60t-128 17h-154q-84 0 -145.5 13t-96 32.5t-54.5 49.5t-26 57t-6 62q0 119 125.5 240t423.5 288l7 -213q-204 -117 -290.5 -183.5t-86.5 -101.5
q0 -24 31 -33t103 -9h145q194 0 279 -65.5t85 -203.5q0 -69 -28 -124q74 -3 214 -3q43 0 61.5 -20t18.5 -70q0 -122 -91 -122z" />
    <glyph glyph-name="uni06AA.fina" unicode="&#x6aa;" 
d="M1189 -6q-73 0 -111.5 17t-60.5 61h-14q-171 -80 -498 -80q-275 -1 -383.5 69t-108.5 259q0 117 31 243h171q-16 -137 -16 -192q0 -46 8.5 -74t27 -48t60 -29t94.5 -12.5t144 -3.5q184 0 289 13t146.5 38t41.5 68t-38 60t-128 17h-154q-84 0 -145.5 13t-96 32.5
t-54.5 49.5t-26 57t-6 62q0 119 125.5 240t423.5 288l7 -213q-204 -117 -290.5 -183.5t-86.5 -101.5q0 -24 31 -33t103 -9h145q194 0 279 -65.5t85 -203.5q0 -71 -29 -126q15 -1 45 -1q43 0 61.5 -20t18.5 -70q0 -122 -91 -122z" />
    <glyph glyph-name="uni06AB.init" unicode="&#x6ab;" 
d="M-12 -6l12 212h397q86 0 134.5 12t66 33.5t17.5 58.5q0 60 -68 149.5t-294 343.5l16 186l720 454l5 -219l-47 -29q62 -47 62 -137q0 -79 -48.5 -125t-124.5 -46q-68 0 -113.5 37t-55.5 100l-225 -137q215 -225 296 -351t81 -232q0 -160 -112 -235t-338 -75h-381z
M836 1001q27 0 42.5 15t15.5 42t-15.5 42t-41.5 15q-27 0 -43.5 -15.5t-16.5 -41.5q0 -27 17 -42t42 -15z" />
    <glyph glyph-name="uni06AB.medi" unicode="&#x6ab;" 
d="M1188 -6q-180 0 -282.5 27.5t-177.5 99.5h-31q-21 -47 -58.5 -73.5t-110 -40t-194.5 -13.5h-346l12 212h343q149 0 200 11t71 49l-360 537l26 186l720 454l5 -219l-44 -27q65 -47 65 -139q0 -79 -48.5 -125t-124.5 -46q-69 0 -114.5 37.5t-55.5 103.5l-239 -146l323 -485
q34 -52 66.5 -85.5t66 -55t80 -32.5t95 -14.5t125.5 -3.5q26 0 40.5 -25.5t14.5 -60.5q0 -67 -20 -96.5t-47 -29.5zM853 1001q27 0 42.5 15t15.5 42t-15.5 42t-41.5 15q-27 0 -43.5 -15.5t-16.5 -41.5q0 -27 17 -42t42 -15z" />
    <glyph glyph-name="uni06AB.fina" unicode="&#x6ab;" 
d="M1188 -7q-97 0 -161.5 40.5t-130.5 137.5h-15q-87 -179 -439 -179q-228 0 -334 89t-106 289q0 133 31 256h170q-15 -133 -15 -187q0 -52 4 -85.5t16 -62t31 -44t53.5 -26t79 -14t110.5 -3.5q125 0 205 31t114 85l-308 483l26 186l700 454l5 -219l-44 -28q64 -48 64 -138
q0 -79 -48.5 -125t-124.5 -46q-67 0 -112.5 36t-56.5 98l-222 -139l351 -559q42 -67 80.5 -92.5t88.5 -25.5q27 0 41 -24t14 -64q0 -124 -67 -124zM1071 1001q27 0 42.5 15t15.5 42t-15.5 42t-41.5 15q-27 0 -43.5 -15.5t-16.5 -41.5q0 -27 17 -42t42 -15z" />
    <glyph glyph-name="uni06AC.init" unicode="&#x6ac;" 
d="M-12 -6l12 212h397q86 0 134.5 12t66 33.5t17.5 58.5q0 60 -68 149.5t-294 343.5l16 186l720 454l5 -219l-552 -337q215 -225 296 -351t81 -232q0 -160 -112 -235t-338 -75h-381zM413 1212l-161 161l161 162l161 -162z" />
    <glyph glyph-name="uni06AC.medi" unicode="&#x6ac;" 
d="M1188 -6q-180 0 -282.5 27.5t-177.5 99.5h-31q-21 -47 -58.5 -73.5t-110 -40t-194.5 -13.5h-346l12 212h343q149 0 200 11t71 49l-360 537l26 186l720 454l5 -219l-561 -342l323 -485q34 -52 66.5 -85.5t66 -55t80 -32.5t95 -14.5t125.5 -3.5q26 0 40.5 -25.5t14.5 -60.5
q0 -67 -20 -96.5t-47 -29.5zM428 1212l-161 161l161 162l161 -162z" />
    <glyph glyph-name="uni06AC.fina" unicode="&#x6ac;" 
d="M505 -8q-275 0 -383.5 69.5t-108.5 258.5q0 127 31 243h171q-16 -107 -16 -192q0 -48 9 -76t39 -50.5t89 -31.5t157 -9q116 0 191.5 6t124.5 17.5t73 35t32 51.5t7 73l-27 1033h206l17 -1083v-11q1 -79 14 -99.5t69 -20.5q40 0 57.5 -19.5t17.5 -71.5q0 -121 -87 -121
q-143 0 -191 125h-17q-44 -66 -158.5 -96.5t-316.5 -30.5zM472 499q-85 0 -148 14l-5 122q88 -15 147 -15q86 0 86 18q0 3 -1 5.5t-3.5 5.5t-5.5 5t-10 5.5l-14 7t-19 10t-24 13.5q-84 47 -84 119q0 62 72 121.5t216 85.5l7 -139q-52 -8 -88 -17.5t-51 -18t-15 -16.5
q0 -10 14 -19.5t58 -33.5q55 -29 74.5 -57.5t19.5 -65.5q0 -73 -66 -111.5t-160 -38.5zM536 1064l-161 161l161 162l161 -162z" />
    <glyph glyph-name="uni06AE.init" unicode="&#x6ae;" 
d="M-12 -6l12 212h397q86 0 134.5 12t66 33.5t17.5 58.5q0 60 -68 149.5t-294 343.5l16 186l720 454l5 -219l-552 -337q215 -225 296 -351t81 -232q0 -160 -112 -235t-338 -75h-381zM694 -77l155 -154l-155 -156l-125 126l-125 -126l-155 156l155 154l125 -125zM570 -337
l148 -148l-148 -149l-148 149z" />
    <glyph glyph-name="uni06AE.medi" unicode="&#x6ae;" 
d="M1188 -6q-180 0 -282.5 27.5t-177.5 99.5h-31q-21 -47 -58.5 -73.5t-110 -40t-194.5 -13.5h-346l12 212h343q149 0 200 11t71 49l-360 537l26 186l720 454l5 -219l-561 -342l323 -485q34 -52 66.5 -85.5t66 -55t80 -32.5t95 -14.5t125.5 -3.5q26 0 40.5 -25.5t14.5 -60.5
q0 -67 -20 -96.5t-47 -29.5zM774 -77l155 -154l-155 -156l-125 126l-125 -126l-155 156l155 154l125 -125zM650 -337l148 -148l-148 -149l-148 149z" />
    <glyph glyph-name="uni06AE.fina" unicode="&#x6ae;" 
d="M505 -8q-275 0 -383.5 69.5t-108.5 258.5q0 127 31 243h171q-16 -107 -16 -192q0 -48 9 -76t39 -50.5t89 -31.5t157 -9q116 0 191.5 6t124.5 17.5t73 35t32 51.5t7 73l-27 1033h206l17 -1083v-11q1 -79 14 -99.5t69 -20.5q40 0 57.5 -19.5t17.5 -71.5q0 -121 -87 -121
q-143 0 -191 125h-17q-44 -66 -158.5 -96.5t-316.5 -30.5zM472 499q-85 0 -148 14l-5 122q88 -15 147 -15q86 0 86 18q0 3 -1 5.5t-3.5 5.5t-5.5 5t-10 5.5l-14 7t-19 10t-24 13.5q-84 47 -84 119q0 62 72 121.5t216 85.5l7 -139q-52 -8 -88 -17.5t-51 -18t-15 -16.5
q0 -10 14 -19.5t58 -33.5q55 -29 74.5 -57.5t19.5 -65.5q0 -73 -66 -111.5t-160 -38.5zM680 -77l155 -154l-155 -156l-125 126l-125 -126l-155 156l155 154l125 -125zM556 -337l148 -148l-148 -149l-148 149z" />
    <glyph glyph-name="uni06B0.init" unicode="&#x6b0;" 
d="M-12 -6l12 212h397q86 0 134.5 12t66 33.5t17.5 58.5q0 60 -68 149.5t-294 343.5l16 186l720 454l5 -219l-61 -37q65 -47 65 -139q0 -79 -48.5 -125t-124.5 -46q-69 0 -114.5 37.5t-55.5 102.5l-213 -130q215 -225 296 -351t81 -232q0 -160 -112 -235t-338 -75h-381z
M288 1072l1 157l663 431l-1 -162zM825 991q27 0 42.5 15t15.5 42t-15.5 42t-41.5 15q-27 0 -43.5 -15.5t-16.5 -41.5q0 -27 17 -42t42 -15z" />
    <glyph glyph-name="uni06B0.medi" unicode="&#x6b0;" 
d="M1188 -6q-180 0 -282.5 27.5t-177.5 99.5h-31q-21 -47 -58.5 -73.5t-110 -40t-194.5 -13.5h-346l12 212h343q149 0 200 11t71 49l-360 537l26 186l720 454l5 -219l-61 -37q65 -47 65 -139q0 -79 -48.5 -125t-124.5 -46q-69 0 -114.5 37.5t-55.5 102.5l-222 -135l323 -485
q34 -52 66.5 -85.5t66 -55t80 -32.5t95 -14.5t125.5 -3.5q26 0 40.5 -25.5t14.5 -60.5q0 -67 -20 -96.5t-47 -29.5zM303 1072l1 157l663 431l-1 -162zM836 991q27 0 42.5 15t15.5 42t-15.5 42t-41.5 15q-27 0 -43.5 -15.5t-16.5 -41.5q0 -27 17 -42t42 -15z" />
    <glyph glyph-name="uni06B0.fina" unicode="&#x6b0;" 
d="M1188 -7q-97 0 -161.5 40.5t-130.5 137.5h-15q-87 -179 -439 -179q-228 0 -334 89t-106 289q0 133 31 256h170q-15 -133 -15 -187q0 -52 4 -85.5t16 -62t31 -44t53.5 -26t79 -14t110.5 -3.5q125 0 205 31t114 85l-308 483l26 186l700 454l5 -219l-57 -36q67 -46 67 -140
q0 -79 -48.5 -125t-124.5 -46q-68 0 -113.5 37t-55.5 101l-212 -133l351 -559q42 -67 80.5 -92.5t88.5 -25.5q27 0 41 -24t14 -64q0 -124 -67 -124zM529 1072l1 157l663 431l-1 -162zM1061 991q27 0 42.5 15t15.5 42t-15.5 42t-41.5 15q-27 0 -43.5 -15.5t-16.5 -41.5
q0 -27 17 -42t42 -15z" />
    <glyph glyph-name="uni06B2.init" unicode="&#x6b2;" 
d="M-12 -6l12 212h397q86 0 134.5 12t66 33.5t17.5 58.5q0 60 -68 149.5t-294 343.5l16 186l720 454l5 -219l-552 -337q215 -225 296 -351t81 -232q0 -160 -112 -235t-338 -75h-381zM288 1072l1 157l663 431l-1 -162zM692 -425l-125 125l-125 -125l-155 154l155 156
l125 -126l125 126l155 -156z" />
    <glyph glyph-name="uni06B2.medi" unicode="&#x6b2;" 
d="M1188 -6q-180 0 -282.5 27.5t-177.5 99.5h-31q-21 -47 -58.5 -73.5t-110 -40t-194.5 -13.5h-346l12 212h343q149 0 200 11t71 49l-360 537l26 186l720 454l5 -219l-561 -342l323 -485q34 -52 66.5 -85.5t66 -55t80 -32.5t95 -14.5t125.5 -3.5q26 0 40.5 -25.5t14.5 -60.5
q0 -67 -20 -96.5t-47 -29.5zM303 1072l1 157l663 431l-1 -162zM772 -425l-125 125l-125 -125l-155 154l155 156l125 -126l125 126l155 -156z" />
    <glyph glyph-name="uni06B2.fina" unicode="&#x6b2;" 
d="M1188 -7q-97 0 -161.5 40.5t-130.5 137.5h-15q-87 -179 -439 -179q-228 0 -334 89t-106 289q0 133 31 256h170q-15 -133 -15 -187q0 -52 4 -85.5t16 -62t31 -44t53.5 -26t79 -14t110.5 -3.5q125 0 205 31t114 85l-308 483l26 186l700 454l5 -219l-544 -342l351 -559
q42 -67 80.5 -92.5t88.5 -25.5q27 0 41 -24t14 -64q0 -124 -67 -124zM529 1072l1 157l663 431l-1 -162zM678 -425l-125 125l-125 -125l-155 154l155 156l125 -126l125 126l155 -156z" />
    <glyph glyph-name="uni06B4.init" unicode="&#x6b4;" 
d="M-12 -6l12 212h397q86 0 134.5 12t66 33.5t17.5 58.5q0 60 -68 149.5t-294 343.5l16 186l720 454l5 -219l-552 -337q215 -225 296 -351t81 -232q0 -160 -112 -235t-338 -75h-381zM288 1072l1 157l663 431l-1 -162zM579 1471l-124 123l124 125l124 -125zM371 1352
l-124 124l124 125l124 -125zM414 1614l-118 119l118 119l119 -119z" />
    <glyph glyph-name="uni06B4.medi" unicode="&#x6b4;" 
d="M1188 -6q-180 0 -282.5 27.5t-177.5 99.5h-31q-21 -47 -58.5 -73.5t-110 -40t-194.5 -13.5h-346l12 212h343q149 0 200 11t71 49l-360 537l26 186l720 454l5 -219l-561 -342l323 -485q34 -52 66.5 -85.5t66 -55t80 -32.5t95 -14.5t125.5 -3.5q26 0 40.5 -25.5t14.5 -60.5
q0 -67 -20 -96.5t-47 -29.5zM303 1072l1 157l663 431l-1 -162zM594 1471l-124 123l124 125l124 -125zM386 1352l-124 124l124 125l124 -125zM429 1614l-118 119l118 119l119 -119z" />
    <glyph glyph-name="uni06B4.fina" unicode="&#x6b4;" 
d="M1188 -7q-97 0 -161.5 40.5t-130.5 137.5h-15q-87 -179 -439 -179q-228 0 -334 89t-106 289q0 133 31 256h170q-15 -133 -15 -187q0 -52 4 -85.5t16 -62t31 -44t53.5 -26t79 -14t110.5 -3.5q125 0 205 31t114 85l-308 483l26 186l700 454l5 -219l-544 -342l351 -559
q42 -67 80.5 -92.5t88.5 -25.5q27 0 41 -24t14 -64q0 -124 -67 -124zM529 1072l1 157l663 431l-1 -162zM820 1471l-124 123l124 125l124 -125zM612 1352l-124 124l124 125l124 -125zM655 1614l-118 119l118 119l119 -119z" />
    <glyph glyph-name="uni06B5.init" unicode="&#x6b5;" 
d="M-12 -6q-58 0 -58 111q0 101 70 101q140 0 238.5 1.5t181.5 7t134.5 11.5t91.5 19.5t59.5 27t31 38t14 48t1.5 61.5l-20 1000h206l27 -970q2 -69 -2.5 -118.5t-21.5 -97.5t-47.5 -79.5t-82 -60.5t-123 -46.5t-173.5 -30.5t-230.5 -18t-296.5 -5zM774 1525l-142 301
l124 20l76 -194h10l72 194l122 -15l-135 -306h-127z" />
    <glyph glyph-name="uni06B5.medi" unicode="&#x6b5;" 
d="M-12 -6q-58 0 -58 111q0 101 70 101q376 0 474 13q103 14 130 59q20 32 18 122l-20 1020h206l25 -1011q1 -51 4.5 -78.5t18 -54t35 -37.5t65 -20t98.5 -11t146 -2q39 0 57 -24t18 -77q0 -61 -21 -86t-66 -25q-236 0 -337.5 32t-142.5 133h-23q-22 -45 -52 -72.5
t-74.5 -47t-125 -29t-181 -13t-264.5 -3.5zM651 1525l-142 301l124 20l76 -194h10l72 194l122 -15l-135 -306h-127z" />
    <glyph glyph-name="uni06B5.fina" unicode="&#x6b5;" 
d="M1188 -6q-93 0 -136 42q-33 -208 -157.5 -300.5t-359.5 -92.5q-251 0 -368.5 113t-117.5 339q0 188 64 389h178q-46 -232 -46 -352q0 -153 69.5 -215t242.5 -62q80 0 135.5 12t89.5 34t52 60t23.5 81.5t3.5 108.5l-32 1269h206l29 -1112q2 -67 25 -84.5t111 -17.5
q40 0 57.5 -19.5t17.5 -71.5q0 -121 -87 -121zM877 1525l-142 301l124 20l76 -194h10l72 194l122 -15l-135 -306h-127z" />
    <glyph glyph-name="uni06B6.init" unicode="&#x6b6;" 
d="M-12 -6q-58 0 -58 111q0 101 70 101q140 0 238.5 1.5t181.5 7t134.5 11.5t91.5 19.5t59.5 27t31 38t14 48t1.5 61.5l-20 1000h206l27 -970q2 -69 -2.5 -118.5t-21.5 -97.5t-47.5 -79.5t-82 -60.5t-123 -46.5t-173.5 -30.5t-230.5 -18t-296.5 -5zM834 1536l-161 161
l161 162l161 -162z" />
    <glyph glyph-name="uni06B6.medi" unicode="&#x6b6;" 
d="M-12 -6q-58 0 -58 111q0 101 70 101q376 0 474 13q103 14 130 59q20 32 18 122l-20 1020h206l25 -1011q1 -51 4.5 -78.5t18 -54t35 -37.5t65 -20t98.5 -11t146 -2q39 0 57 -24t18 -77q0 -61 -21 -86t-66 -25q-236 0 -337.5 32t-142.5 133h-23q-22 -45 -52 -72.5
t-74.5 -47t-125 -29t-181 -13t-264.5 -3.5zM711 1536l-161 161l161 162l161 -162z" />
    <glyph glyph-name="uni06B6.fina" unicode="&#x6b6;" 
d="M1188 -6q-93 0 -136 42q-33 -208 -157.5 -300.5t-359.5 -92.5q-251 0 -368.5 113t-117.5 339q0 188 64 389h178q-46 -232 -46 -352q0 -153 69.5 -215t242.5 -62q80 0 135.5 12t89.5 34t52 60t23.5 81.5t3.5 108.5l-32 1269h206l29 -1112q2 -67 25 -84.5t111 -17.5
q40 0 57.5 -19.5t17.5 -71.5q0 -121 -87 -121zM937 1536l-161 161l161 162l161 -162z" />
    <glyph glyph-name="uni06B7.init" unicode="&#x6b7;" 
d="M-12 -6q-58 0 -58 111q0 101 70 101q140 0 238.5 1.5t181.5 7t134.5 11.5t91.5 19.5t59.5 27t31 38t14 48t1.5 61.5l-20 1000h206l27 -970q2 -69 -2.5 -118.5t-21.5 -97.5t-47.5 -79.5t-82 -60.5t-123 -46.5t-173.5 -30.5t-230.5 -18t-296.5 -5zM947 1512l-113 112
l-112 -112l-140 139l140 140l112 -113l113 113l139 -140zM835 1746l-133 133l133 134l133 -134z" />
    <glyph glyph-name="uni06B7.medi" unicode="&#x6b7;" 
d="M-12 -6q-58 0 -58 111q0 101 70 101q376 0 474 13q103 14 130 59q20 32 18 122l-20 1020h206l25 -1011q1 -51 4.5 -78.5t18 -54t35 -37.5t65 -20t98.5 -11t146 -2q39 0 57 -24t18 -77q0 -61 -21 -86t-66 -25q-236 0 -337.5 32t-142.5 133h-23q-22 -45 -52 -72.5
t-74.5 -47t-125 -29t-181 -13t-264.5 -3.5zM824 1512l-113 112l-112 -112l-140 139l140 140l112 -113l113 113l139 -140zM712 1746l-133 133l133 134l133 -134z" />
    <glyph glyph-name="uni06B7.fina" unicode="&#x6b7;" 
d="M1188 -6q-93 0 -136 42q-33 -208 -157.5 -300.5t-359.5 -92.5q-251 0 -368.5 113t-117.5 339q0 188 64 389h178q-46 -232 -46 -352q0 -153 69.5 -215t242.5 -62q80 0 135.5 12t89.5 34t52 60t23.5 81.5t3.5 108.5l-32 1269h206l29 -1112q2 -67 25 -84.5t111 -17.5
q40 0 57.5 -19.5t17.5 -71.5q0 -121 -87 -121zM1050 1512l-113 112l-112 -112l-140 139l140 140l112 -113l113 113l139 -140zM938 1746l-133 133l133 134l133 -134z" />
    <glyph glyph-name="uni06B8.init" unicode="&#x6b8;" 
d="M-12 -6q-58 0 -58 111q0 101 70 101q140 0 238.5 1.5t181.5 7t134.5 11.5t91.5 19.5t59.5 27t31 38t14 48t1.5 61.5l-20 1000h206l27 -970q2 -69 -2.5 -118.5t-21.5 -97.5t-47.5 -79.5t-82 -60.5t-123 -46.5t-173.5 -30.5t-230.5 -18t-296.5 -5zM984 -77l155 -154
l-155 -156l-125 126l-125 -126l-155 156l155 154l125 -125zM860 -337l148 -148l-148 -149l-148 149z" />
    <glyph glyph-name="uni06B8.medi" unicode="&#x6b8;" 
d="M-12 -6q-58 0 -58 111q0 101 70 101q376 0 474 13q103 14 130 59q20 32 18 122l-20 1020h206l25 -1011q1 -51 4.5 -78.5t18 -54t35 -37.5t65 -20t98.5 -11t146 -2q39 0 57 -24t18 -77q0 -61 -21 -86t-66 -25q-236 0 -337.5 32t-142.5 133h-23q-22 -45 -52 -72.5
t-74.5 -47t-125 -29t-181 -13t-264.5 -3.5zM854 -77l155 -154l-155 -156l-125 126l-125 -126l-155 156l155 154l125 -125zM730 -337l148 -148l-148 -149l-148 149z" />
    <glyph glyph-name="uni06B8.fina" unicode="&#x6b8;" 
d="M1188 -6q-93 0 -136 42q-33 -208 -157.5 -300.5t-359.5 -92.5q-251 0 -368.5 113t-117.5 339q0 188 64 389h178q-46 -232 -46 -352q0 -153 69.5 -215t242.5 -62q80 0 135.5 12t89.5 34t52 60t23.5 81.5t3.5 108.5l-32 1269h206l29 -1112q2 -67 25 -84.5t111 -17.5
q40 0 57.5 -19.5t17.5 -71.5q0 -121 -87 -121zM651 -384l145 -146l-145 -146l-118 118l-117 -118l-146 146l146 146l117 -118zM534 -629l139 -139l-139 -140l-139 140z" />
    <glyph glyph-name="uni06B9.init" unicode="&#x6b9;" 
d="M-12 -6q-19 0 -26 27.5t-7 86.5q0 50 13 74t32 24q187 0 311 3.5t218 13.5t145 24t82 41.5t40 58t9 79.5q0 111 -59 360l189 35q70 -243 70 -404q0 -84 -14 -141t-54 -108t-109.5 -81t-184.5 -52.5t-273.5 -31.5t-381.5 -9zM770 -429l-161 161l161 162l161 -162zM835 946
l-161 161l161 162l161 -162z" />
    <glyph glyph-name="uni06B9.medi" unicode="&#x6b9;" 
d="M-12 -6l12 212q127 0 203 1.5t139.5 8t93 15t50.5 27.5t25.5 40.5t5.5 58.5l8 330l197 4l-5 -324q0 -58 5 -87.5t25.5 -47.5t49.5 -22t89 -4h314q37 0 56 -25.5t19 -65.5q0 -121 -87 -121h-325q-130 0 -194 38.5t-88 118.5h-25q-32 -61 -90 -94t-170 -48t-308 -15z
M590 -429l-161 161l161 162l161 -162zM630 824l-161 161l161 162l161 -162z" />
    <glyph glyph-name="uni06B9.fina" unicode="&#x6b9;" 
d="M538 -357q-235 0 -345.5 105t-110.5 342q0 214 56 394h178q-39 -217 -39 -362q0 -149 59.5 -208t209.5 -59q89 0 144.5 12.5t95.5 47t56.5 94t16.5 153.5q0 108 -47 392l194 27q9 -50 21 -127t14 -87q17 -100 28 -121q17 -31 66 -37q22 -3 65 -3q51 0 68 -21.5t17 -76.5
q0 -60 -19 -87t-78 -27q-100 0 -144 43q-23 -199 -141.5 -296.5t-364.5 -97.5zM556 -716l-161 161l161 162l161 -162zM562 618l-161 161l161 162l161 -162z" />
    <glyph glyph-name="uni06BA.init" unicode="&#x6ba;" 
d="M-12 -6q-19 0 -26 27.5t-7 86.5q0 50 13 74t32 24q187 0 311 3.5t218 13.5t145 24t82 41.5t40 58t9 79.5q0 111 -59 360l189 35q70 -243 70 -404q0 -84 -14 -141t-54 -108t-109.5 -81t-184.5 -52.5t-273.5 -31.5t-381.5 -9z" />
    <glyph glyph-name="uni06BA.medi" unicode="&#x6ba;" 
d="M-12 -6l12 212q127 0 203 1.5t139.5 8t93 15t50.5 27.5t25.5 40.5t5.5 58.5l8 330l197 4l-5 -324q0 -58 5 -87.5t25.5 -47.5t49.5 -22t89 -4h314q37 0 56 -25.5t19 -65.5q0 -121 -87 -121h-325q-130 0 -194 38.5t-88 118.5h-25q-32 -61 -90 -94t-170 -48t-308 -15z" />
    <glyph glyph-name="uni06BC.init" unicode="&#x6bc;" 
d="M-12 -6q-19 0 -26 27.5t-7 86.5q0 50 13 74t32 24q187 0 311 3.5t218 13.5t145 24t82 41.5t40 58t9 79.5q0 111 -59 360l189 35q70 -243 70 -404q0 -119 -32.5 -194t-119.5 -122q49 -47 49 -126t-48.5 -125t-124.5 -46q-77 0 -124.5 46.5t-47.5 124.5q0 23 5 46
q-202 -27 -574 -27zM835 946l-161 161l161 162l161 -162zM729 -82q27 0 42.5 15t15.5 42t-15.5 42t-41.5 15q-27 0 -43.5 -15.5t-16.5 -41.5q0 -27 17 -42t42 -15z" />
    <glyph glyph-name="uni06BC.medi" unicode="&#x6bc;" 
d="M-12 -6l12 212q127 0 203 1.5t139.5 8t93 15t50.5 27.5t25.5 40.5t5.5 58.5l8 330l197 4l-5 -324q0 -58 5 -87.5t25.5 -47.5t49.5 -22t89 -4h314q37 0 56 -25.5t19 -65.5q0 -121 -87 -121h-325q-130 0 -194 38.5t-88 118.5h-25q-30 -59 -83 -90q49 -47 49 -126
t-48.5 -125t-124.5 -46q-77 0 -124.5 46.5t-47.5 124.5q0 34 11 64q-73 -5 -200 -5zM630 824l-161 161l161 162l161 -162zM349 -122q27 0 42.5 15t15.5 42t-15.5 42t-41.5 15q-27 0 -43.5 -15.5t-16.5 -41.5q0 -27 17 -42t42 -15z" />
    <glyph glyph-name="uni06BC.fina" unicode="&#x6bc;" 
d="M1188 -6q-100 0 -144 43q-19 -160 -98 -254t-235 -125q14 -33 14 -74q0 -79 -48.5 -125t-124.5 -46q-77 0 -124.5 46.5t-47.5 124.5q0 37 13 71q-159 28 -235 133t-76 302q0 214 56 394h178q-39 -217 -39 -362q0 -149 59.5 -208t209.5 -59q89 0 144.5 12.5t95.5 47
t56.5 94t16.5 153.5q0 108 -47 392l194 27q9 -50 21 -127t14 -87q17 -100 28 -121q17 -31 66 -37q22 -3 65 -3q51 0 68 -21.5t17 -76.5q0 -60 -19 -87t-78 -27zM562 618l-161 161l161 162l161 -162zM552 -473q27 0 42.5 15t15.5 42t-15.5 42t-41.5 15q-27 0 -43.5 -15.5
t-16.5 -41.5q0 -27 17 -42t42 -15z" />
    <glyph glyph-name="uni06BD.init" unicode="&#x6bd;" 
d="M-12 -6q-19 0 -26 27.5t-7 86.5q0 50 13 74t32 24q187 0 311 3.5t218 13.5t145 24t82 41.5t40 58t9 79.5q0 111 -59 360l189 35q70 -243 70 -404q0 -84 -14 -141t-54 -108t-109.5 -81t-184.5 -52.5t-273.5 -31.5t-381.5 -9zM897 -77l155 -154l-155 -156l-125 126
l-125 -126l-155 156l155 154l125 -125zM773 -337l148 -148l-148 -149l-148 149z" />
    <glyph glyph-name="uni06BD.medi" unicode="&#x6bd;" 
d="M-12 -6l12 212q127 0 203 1.5t139.5 8t93 15t50.5 27.5t25.5 40.5t5.5 58.5l8 330l197 4l-5 -324q0 -58 5 -87.5t25.5 -47.5t49.5 -22t89 -4h314q37 0 56 -25.5t19 -65.5q0 -121 -87 -121h-325q-130 0 -194 38.5t-88 118.5h-25q-32 -61 -90 -94t-170 -48t-308 -15z
M717 -77l155 -154l-155 -156l-125 126l-125 -126l-155 156l155 154l125 -125zM593 -337l148 -148l-148 -149l-148 149z" />
    <glyph glyph-name="uni06BD.fina" unicode="&#x6bd;" 
d="M538 -357q-235 0 -345.5 105t-110.5 342q0 214 56 394h178q-39 -217 -39 -362q0 -149 59.5 -208t209.5 -59q89 0 144.5 12.5t95.5 47t56.5 94t16.5 153.5q0 108 -47 392l194 27q9 -50 21 -127t14 -87q17 -100 28 -121q17 -31 66 -37q22 -3 65 -3q51 0 68 -21.5t17 -76.5
q0 -60 -19 -87t-78 -27q-100 0 -144 43q-23 -199 -141.5 -296.5t-364.5 -97.5zM687 599l-125 125l-125 -125l-155 154l155 156l125 -126l125 126l155 -156zM563 859l-148 148l148 149l148 -149z" />
    <glyph glyph-name="uni06BF.init" unicode="&#x6bf;" 
d="M-20 -6q-50 0 -50 111q0 48 18 74.5t52 26.5q162 0 302 46t339 149q124 65 186 93v18q-85 5 -201 44q-25 8 -74 26t-75 26.5t-65.5 16.5t-75.5 8q-54 0 -94 -11t-102 -40l-8 161q92 95 225 95q64 0 129.5 -24.5t150 -65t156.5 -61.5q91 -27 162 -33.5t191 -3.5l-3 -201
q-83 -21 -145.5 -44.5t-159.5 -76.5q-66 -36 -175 -99.5t-169 -95.5t-148.5 -69.5t-176.5 -53.5t-189 -16zM807 23l155 -154l-155 -156l-125 126l-125 -126l-155 156l155 154l125 -125zM566 943l-161 161l161 162l161 -162zM683 -237l148 -148l-148 -149l-148 149z" />
    <glyph glyph-name="uni06BF.medi" unicode="&#x6bf;" 
d="M1188 -6q-102 0 -170.5 20t-109.5 63.5t-60.5 99.5t-29.5 140q-57 -31 -144 -82t-136 -78.5t-124 -63.5t-134 -54t-137.5 -31.5t-162.5 -13.5q-50 0 -50 111q0 48 18 74.5t52 26.5q162 0 302 46t339 149q124 65 186 93v18q-85 5 -201 44q-25 8 -74 26t-75 26.5
t-65.5 16.5t-75.5 8q-54 0 -94 -11t-102 -40l-8 161q92 95 225 95q64 0 129.5 -24.5t150 -65t156.5 -61.5q91 -27 162 -33.5t191 -3.5l-3 -201q-96 -23 -159 -50q12 -115 53.5 -154t162.5 -39q41 0 58 -14t17 -57q0 -79 -23 -110t-64 -31zM807 23l155 -154l-155 -156
l-125 126l-125 -126l-155 156l155 154l125 -125zM566 943l-161 161l161 162l161 -162zM683 -237l148 -148l-148 -149l-148 149z" />
    <glyph glyph-name="uni06BF.fina" unicode="&#x6bf;" 
d="M1188 -6q-107 0 -174 19t-110 69t-62 125t-28 198q-296 -89 -441 -210t-145 -314q0 -114 45 -181t154.5 -100.5t300.5 -33.5q57 0 122 5.5t102.5 11t107.5 17t86 13.5l-2 -175q-72 -31 -199 -54t-247 -23q-344 0 -504 111t-160 369q0 120 35.5 218.5t98.5 172t161 133.5
t212 103t263 80v14q-80 7 -195 41q-10 3 -48.5 14.5t-50 14.5t-41.5 11t-46.5 10.5t-40.5 5t-46 2.5q-123 0 -246 -88l-18 153q107 140 292 140q65 0 130.5 -21t152 -59t154.5 -58q90 -27 160.5 -34t184.5 -3l-3 -201q-150 -35 -160 -38q4 -61 8.5 -98t15.5 -67t23.5 -44
t38.5 -23.5t54 -11.5t77 -2q41 0 58 -14t17 -57q0 -79 -23 -110t-64 -31zM730 148l145 -146l-145 -146l-118 118l-117 -118l-146 146l146 146l117 -118zM566 973l-161 161l161 162l161 -162zM613 -97l139 -139l-139 -140l-139 140z" />
    <glyph glyph-name="uni06C2.init" unicode="&#x6c2;" 
d="M-12 -6q-19 0 -26 27.5t-7 86.5q0 50 13 74t32 24q187 0 311 3.5t218 13.5t145 24t82 41.5t40 58t9 79.5q0 111 -59 360l189 35q70 -243 70 -404q0 -84 -14 -141t-54 -108t-109.5 -81t-184.5 -52.5t-273.5 -31.5t-381.5 -9zM635 911l-11 120l94 24v13q-72 25 -72 121
q0 83 59 129.5t155 46.5q64 0 127 -24l-6 -114q-54 7 -94 7q-65 0 -90 -16t-25 -55q0 -37 17 -51.5t55 -14.5q34 0 181 27l14 -125zM769 -423q-127 0 -127 125q0 65 41.5 133.5t118.5 114.5l61 -54q-66 -63 -83 -128h11q51 0 75.5 -24t24.5 -63q0 -46 -31 -75t-91 -29z" />
    <glyph glyph-name="uni06C2.medi" unicode="&#x6c2;" 
d="M677 -500q-148 66 -250.5 224t-102.5 326q0 30 1 45h-26q-36 -58 -105 -79.5t-203 -21.5l9 214q73 0 117 3t83.5 16t60 30.5t41 56t32.5 81.5t28 118h180q-2 -14 -11 -64t-11.5 -66.5t-8.5 -57t-8 -63.5t-4 -57t-2 -65q0 -154 51.5 -255t154.5 -176q-11 121 -11 167
q0 73 13.5 124.5t47 92.5t92 65.5t145.5 37t210 12.5q37 0 56 -26t19 -67q0 -121 -87 -121t-142.5 -4.5t-92.5 -13.5t-55 -28.5t-24.5 -42.5t-6.5 -62q0 -112 22 -270zM449 584l-11 120l94 24v13q-72 25 -72 121q0 83 59 129.5t155 46.5q64 0 127 -24l-6 -114q-54 7 -94 7
q-65 0 -90 -16t-25 -55q0 -37 17 -51.5t55 -14.5q34 0 181 27l14 -125z" />
    <glyph glyph-name="uni06C2.fina" unicode="&#x6c2;" 
d="M1191 -6q-81 0 -141.5 28.5t-103 75t-102.5 135.5q-13 20 -31.5 47.5t-28 41.5t-22.5 33.5t-20.5 28.5t-18 21.5t-17.5 17.5t-16 10.5t-18 7t-19 1.5q-11 0 -25 -5t-32 -17t-34.5 -24t-40 -33.5t-42 -38.5t-47 -45.5l-47.5 -47.5t-52 -52.5t-52 -52.5l-80 181
q23 23 80.5 82t86 88t78.5 74t83 67t73 40t73 18q19 0 37 -3.5t32 -7t31 -15.5t27 -18t27.5 -25.5t26 -28.5t28 -36t27.5 -38.5t31.5 -46t33.5 -48.5q87 -126 127 -163.5t97 -37.5q42 0 56 -21t14 -73q0 -64 -18 -92t-61 -28zM480 749l-11 120l94 24v13q-72 25 -72 121
q0 83 59 129.5t155 46.5q64 0 127 -24l-6 -114q-54 7 -94 7q-65 0 -90 -16t-25 -55q0 -37 17 -51.5t55 -14.5q34 0 181 27l14 -125z" />
    <glyph glyph-name="uni06C3.fina" unicode="&#x6c3;" 
d="M1191 -6q-81 0 -141.5 28.5t-103 75t-102.5 135.5q-13 20 -31.5 47.5t-28 41.5t-22.5 33.5t-20.5 28.5t-18 21.5t-17.5 17.5t-16 10.5t-18 7t-19 1.5q-11 0 -25 -5t-32 -17t-34.5 -24t-40 -33.5t-42 -38.5t-47 -45.5l-47.5 -47.5t-52 -52.5t-52 -52.5l-80 181
q23 23 80.5 82t86 88t78.5 74t83 67t73 40t73 18q19 0 37 -3.5t32 -7t31 -15.5t27 -18t27.5 -25.5t26 -28.5t28 -36t27.5 -38.5t31.5 -46t33.5 -48.5q87 -126 127 -163.5t97 -37.5q42 0 56 -21t14 -73q0 -64 -18 -92t-61 -28zM805 765l-125 125l-125 -125l-155 154l155 156
l125 -126l125 126l155 -156z" />
    <glyph glyph-name="uni06C4.fina" unicode="&#x6c4;" 
d="M426 -480q-157 0 -266 46l15 182q47 -9 57 -11q-5 22 -5 43q0 70 45 113.5t113 43.5q70 0 115 -42t45 -115q0 -20 -6 -48q246 40 300 262h-190q-168 0 -233 74.5t-65 238.5q0 112 39.5 205t115.5 149.5t174 56.5q165 0 253.5 -135t96.5 -378l170 1q47 0 66 -23t19 -85
q0 -56 -24 -80t-71 -24h-172q-38 -230 -189 -352t-403 -122zM854 203q-6 160 -49 231.5t-128 71.5q-69 0 -109.5 -48.5t-40.5 -129.5q0 -75 32.5 -100t133.5 -25h161zM385 -273q25 0 39.5 14t14.5 39q0 24 -14.5 38t-38.5 14t-39.5 -14t-15.5 -38q0 -25 15.5 -39t38.5 -14z
" />
    <glyph glyph-name="uni06CA.fina" unicode="&#x6ca;" 
d="M426 -480q-157 0 -266 46l15 182q127 -26 233 -26q176 0 285.5 63.5t145.5 208.5h-190q-168 0 -233 74.5t-65 238.5q0 112 39.5 205t115.5 149.5t174 56.5q165 0 253.5 -135t96.5 -378l170 1q47 0 66 -23t19 -85q0 -56 -24 -80t-71 -24h-172q-38 -230 -189 -352
t-403 -122zM795 820l-125 125l-125 -125l-155 154l155 156l125 -126l125 126l155 -156zM854 203q-6 160 -49 231.5t-128 71.5q-69 0 -109.5 -48.5t-40.5 -129.5q0 -75 32.5 -100t133.5 -25h161z" />
    <glyph glyph-name="uni06CD.fina" unicode="&#x6cd;" 
d="M497 -410q-132 0 -224.5 27t-144.5 80.5t-75 122t-23 160.5q0 55 5 101l-159 -51l-43 185l257 84l153 -49q-18 -172 -18 -231q0 -63 12 -103t45 -69t91.5 -41t150.5 -12q213 0 329 43.5t116 108.5q0 34 -37.5 49t-148.5 26l35 195q152 -10 382 -10q102 0 102 -99
q0 -52 -29.5 -82.5t-84.5 -30.5q-8 0 -23.5 0.5t-22.5 0.5q5 -23 5 -45q0 -153 -173 -256.5t-477 -103.5z" />
    <glyph glyph-name="uni06CE.init" unicode="&#x6ce;" 
d="M-12 -6q-19 0 -26 27.5t-7 86.5q0 50 13 74t32 24q187 0 311 3.5t218 13.5t145 24t82 41.5t40 58t9 79.5q0 111 -59 360l189 35q70 -243 70 -404q0 -84 -14 -141t-54 -108t-109.5 -81t-184.5 -52.5t-273.5 -31.5t-381.5 -9zM895 -425l-125 125l-125 -125l-155 154
l155 156l125 -126l125 126l155 -156zM775 935l-142 301l124 20l76 -194h10l72 194l122 -15l-135 -306h-127z" />
    <glyph glyph-name="uni06CE.medi" unicode="&#x6ce;" 
d="M-12 -6l12 212q127 0 203 1.5t139.5 8t93 15t50.5 27.5t25.5 40.5t5.5 58.5l8 330l197 4l-5 -324q0 -58 5 -87.5t25.5 -47.5t49.5 -22t89 -4h314q37 0 56 -25.5t19 -65.5q0 -121 -87 -121h-325q-130 0 -194 38.5t-88 118.5h-25q-32 -61 -90 -94t-170 -48t-308 -15z
M715 -425l-125 125l-125 -125l-155 154l155 156l125 -126l125 126l155 -156zM570 813l-142 301l124 20l76 -194h10l72 194l122 -15l-135 -306h-127z" />
    <glyph glyph-name="uni06CE.fina" unicode="&#x6ce;" 
d="M497 -410q-132 0 -224.5 28.5t-144.5 84t-75 125.5t-23 162q0 141 44 284h178q-27 -175 -27 -245q0 -63 12 -104t44.5 -72.5t91.5 -45t151 -13.5q213 0 329 43.5t116 108.5q0 34 -37.5 49t-148.5 26l35 195q152 -10 382 -10q102 0 102 -99q0 -52 -29.5 -82.5t-84.5 -30.5
q-8 0 -23.5 0.5t-22.5 0.5q5 -23 5 -45q0 -153 -173 -256.5t-477 -103.5zM290 455l-142 301l124 20l76 -194h10l72 194l122 -15l-135 -306h-127z" />
    <glyph glyph-name="uni06CF.fina" unicode="&#x6cf;" 
d="M426 -480q-157 0 -266 46l15 182q127 -26 233 -26q176 0 285.5 63.5t145.5 208.5h-190q-168 0 -233 74.5t-65 238.5q0 112 39.5 205t115.5 149.5t174 56.5q165 0 253.5 -135t96.5 -378l170 1q47 0 66 -23t19 -85q0 -56 -24 -80t-71 -24h-172q-38 -230 -189 -352
t-403 -122zM854 203q-6 160 -49 231.5t-128 71.5q-69 0 -109.5 -48.5t-40.5 -129.5q0 -75 32.5 -100t133.5 -25h161zM670 839l-161 161l161 162l161 -162z" />
    <glyph glyph-name="uni06D1.init" unicode="&#x6d1;" 
d="M-12 -6q-19 0 -26 27.5t-7 86.5q0 50 13 74t32 24q187 0 311 3.5t218 13.5t145 24t82 41.5t40 58t9 79.5q0 111 -59 360l189 35q70 -243 70 -404q0 -84 -14 -141t-54 -108t-109.5 -81t-184.5 -52.5t-273.5 -31.5t-381.5 -9zM897 -77l155 -154l-155 -156l-125 126
l-125 -126l-155 156l155 154l125 -125zM773 -337l148 -148l-148 -149l-148 149z" />
    <glyph glyph-name="uni06D1.medi" unicode="&#x6d1;" 
d="M-12 -6l12 212q127 0 203 1.5t139.5 8t93 15t50.5 27.5t25.5 40.5t5.5 58.5l8 330l197 4l-5 -324q0 -58 5 -87.5t25.5 -47.5t49.5 -22t89 -4h314q37 0 56 -25.5t19 -65.5q0 -121 -87 -121h-325q-130 0 -194 38.5t-88 118.5h-25q-32 -61 -90 -94t-170 -48t-308 -15z
M717 -77l155 -154l-155 -156l-125 126l-125 -126l-155 156l155 154l125 -125zM593 -337l148 -148l-148 -149l-148 149z" />
    <glyph glyph-name="uni06D1.fina" unicode="&#x6d1;" 
d="M497 -410q-132 0 -224.5 28.5t-144.5 84t-75 125.5t-23 162q0 141 44 284h178q-27 -175 -27 -245q0 -63 12 -104t44.5 -72.5t91.5 -45t151 -13.5q213 0 329 43.5t116 108.5q0 34 -37.5 49t-148.5 26l35 195q152 -10 382 -10q102 0 102 -99q0 -52 -29.5 -82.5t-84.5 -30.5
q-8 0 -23.5 0.5t-22.5 0.5q5 -23 5 -45q0 -153 -173 -256.5t-477 -103.5zM642 -432l154 -154l-154 -156l-125 126l-126 -126l-154 156l154 154l126 -125zM518 -692l148 -148l-148 -149l-149 149z" />
    <glyph glyph-name="uni06D5.fina" unicode="&#x6d5;" 
d="M574 157q-389 0 -389 289q0 161 148.5 256t474.5 171l-2 114h206l4 -627q0 -53 7 -82t30 -46t54.5 -21.5t92.5 -4.5q42 0 58.5 -19.5t16.5 -71.5q0 -63 -19 -92t-68 -29q-198 0 -279 53.5t-91 194.5h-26q-22 -47 -74.5 -66t-143.5 -19zM810 675q-233 -44 -339.5 -93.5
t-106.5 -116.5q0 -57 55 -76.5t194 -19.5q89 0 202 12z" />
    <glyph glyph-name="uni06EE.fina" unicode="&#x6ee;" 
d="M458 -6q-167 0 -285 32l18 200q148 -27 267 -27q178 0 319 75l-231 629l192 64l207 -547q47 -124 97 -169t158 -45q41 0 58 -18t17 -75q0 -119 -87 -119q-117 1 -189 27t-124 93q-79 -59 -189 -89.5t-228 -30.5zM696 1393l142 -301l-124 -20l-76 194h-10l-72 -194
l-122 15l135 306h127z" />
    <glyph glyph-name="uni06EF.fina" unicode="&#x6ef;" 
d="M917 23q-32 -245 -198 -369.5t-437 -124.5q-137 0 -237 26l13 192q122 -16 204 -16q218 0 337.5 93.5t119.5 276.5q0 18 -4 39t-14 50.5t-18 51t-26.5 62.5t-27.5 60.5t-33.5 70t-32.5 68.5l186 91q29 -60 62.5 -134.5t53 -116t38.5 -68.5q27 -39 86 -54t211 -15
q40 0 57.5 -19.5t17.5 -71.5q0 -121 -87 -121q-196 0 -271 29zM690 1004l142 -301l-124 -20l-76 194h-10l-72 -194l-122 15l135 306h127z" />
    <glyph glyph-name="uni06FA.init" unicode="&#x6fa;" 
d="M-12 -6l12 212q103 0 146 19t50 72q10 72 26 300l178 2q-14 -258 -27 -364q-1 -5 -2.5 -14.5t-1.5 -13.5q58 -20 111 -20q50 0 69 16t24 63q7 70 11 350l178 6q5 -240 -8 -390q-2 -24 -4 -36q35 -9 76 -9q55 0 75 23.5t20 93.5q0 80 -36 328l181 21q44 -220 44 -361
q0 -154 -61.5 -226t-203.5 -72q-139 0 -204 76h-16q-17 -37 -64 -56.5t-105 -19.5q-74 0 -124 16.5t-103 59.5h-23q-24 -40 -73.5 -58t-144.5 -18zM805 745l-125 125l-125 -125l-155 154l155 156l125 -126l125 126l155 -156zM680 -429l-161 161l161 162l161 -162zM681 1005
l-148 148l148 149l148 -149z" />
    <glyph glyph-name="uni06FA.medi" unicode="&#x6fa;" 
d="M456 -6q-73 0 -120.5 16t-100.5 60h-25q-31 -40 -82.5 -58t-139.5 -18l12 212q103 0 146 19t50 72q10 72 26 300l178 2q-14 -258 -27 -364q-1 -10 -5 -28q58 -20 112 -20q50 0 69 16t24 63q7 70 11 350l178 6q5 -240 -8 -390q-2 -24 -4 -35q40 -10 76 -10q55 0 74.5 23.5
t19.5 93.5q0 49 2 156.5t2 174.5l181 12q2 -152 0 -270v-95q0 -46 18 -61t77 -15q37 0 56 -25.5t19 -65.5q0 -121 -87 -121q-123 0 -168 76h-26q-35 -76 -159 -76q-123 0 -186 76h-24q-17 -37 -64 -56.5t-105 -19.5zM805 745l-125 125l-125 -125l-155 154l155 156l125 -126
l125 126l155 -156zM680 -429l-161 161l161 162l161 -162zM681 1005l-148 148l148 149l148 -149z" />
    <glyph glyph-name="uni06FA.fina" unicode="&#x6fa;" 
d="M285 -357q-150 0 -212.5 94t-62.5 292q0 201 30 415h160q-14 -252 -14 -373q0 -134 19.5 -179t77.5 -45q41 0 62.5 22t31.5 79t10 165q0 216 -18 478l169 10q20 -255 23 -410q23 -4 54 -4q35 0 48.5 11t15.5 38q6 95 -6 373l166 8q15 -290 5 -425q27 -5 52 -5q37 0 50 19
t13 76q0 92 -15 353l165 5q12 -270 12 -358q0 -48 16 -62t63 -14q37 0 56 -25.5t19 -65.5q0 -121 -87 -121q-114 0 -160 76h-26q-32 -76 -117 -76q-94 0 -138 75h-24q-30 -75 -122 -75q-21 0 -45 2q-14 -189 -74 -271t-197 -82zM886 745l-125 125l-125 -125l-155 154
l155 156l125 -126l125 126l155 -156zM853 -429l-161 161l161 162l161 -162zM762 1005l-148 148l148 149l148 -149z" />
    <glyph glyph-name="uni06FB.init" unicode="&#x6fb;" 
d="M614 -6q-219 0 -294 15t-106 76h-25q-27 -48 -74.5 -69.5t-126.5 -21.5l12 212q16 0 26.5 1.5t20.5 7.5t15.5 13t11 24.5t8 36t5 52.5t3.5 68.5t2 89.5l154 2q-5 -193 -18 -278l24 -3q309 618 559 618q64 0 123.5 -31t107.5 -87.5t77 -146t29 -198.5q0 -89 -25.5 -156
t-85 -119t-165.5 -79t-258 -27zM436 208q104 -2 196 -2q91 0 154.5 10t98.5 24.5t53.5 40.5t23 49t4.5 59q0 88 -52.5 161t-119.5 73q-70 0 -157.5 -103.5t-200.5 -311.5zM650 -429l-161 161l161 162l161 -162zM780 974l-161 161l161 162l161 -162z" />
    <glyph glyph-name="uni06FB.medi" unicode="&#x6fb;" 
d="M614 -6q-219 0 -294 15t-106 76h-25q-27 -48 -74.5 -69.5t-126.5 -21.5l12 212q16 0 26.5 1.5t20.5 7.5t15.5 13t11 24.5t8 36t5 52.5t3.5 68.5t2 89.5l154 2q-5 -193 -18 -278l24 -3q309 618 559 618q64 0 123.5 -31t107.5 -87.5t77 -146t29 -198.5q0 -97 -29 -165
q34 -5 81 -5q43 0 61.5 -19.5t18.5 -69.5q0 -123 -91 -123q-73 0 -112 17.5t-60 61.5h-19q-129 -78 -384 -78zM436 208q104 -2 196 -2q91 0 154.5 10t98.5 24.5t53.5 40.5t23 49t4.5 59q0 88 -52.5 161t-119.5 73q-70 0 -157.5 -103.5t-200.5 -311.5zM650 -429l-161 161
l161 162l161 -162zM780 974l-161 161l161 162l161 -162z" />
    <glyph glyph-name="uni06FB.fina" unicode="&#x6fb;" 
d="M760 -7q-122 0 -213 20q-12 -205 -74 -287.5t-209 -82.5q-77 0 -127 23.5t-77.5 75t-38.5 119t-11 168.5q0 212 30 414h160q-14 -221 -14 -372q0 -138 16 -181t73 -43q43 0 63 18t29.5 74t9.5 174q0 138 -18 400l172 9q16 -229 18 -263q92 307 179.5 442t195.5 135
q72 0 131.5 -68.5t91 -174t31.5 -219.5q0 -102 -18 -167q14 -1 40 -1q47 0 63.5 -19t16.5 -71q0 -122 -91 -122q-49 0 -72 16t-37 61q-94 -78 -320 -78zM693 205q56 -2 90 -2q76 0 117 6t64 26t29 47.5t6 81.5q0 97 -30.5 178.5t-69.5 81.5q-28 0 -54.5 -32t-65 -126.5
t-86.5 -260.5zM820 -429l-161 161l161 162l161 -162zM880 984l-161 161l161 162l161 -162z" />
    <glyph glyph-name="uni06FC.init" unicode="&#x6fc;" 
d="M-17 -6l17 212q253 0 383 5v20q-106 50 -106 217q0 169 105.5 258t290.5 89q146 0 290 -62l-17 -172q-137 30 -233 30q-117 0 -173 -41.5t-56 -137.5q0 -57 10.5 -90.5t39.5 -51t66 -23t103 -5.5q108 0 344 41l19 -188q-120 -35 -256 -57t-290.5 -30.5t-262.5 -11
t-274 -2.5zM669 -429l-161 161l161 162l161 -162zM671 914l-161 161l161 162l161 -162z" />
    <glyph glyph-name="uni06FC.medi" unicode="&#x6fc;" 
d="M-16 -6l16 212q205 0 390 30q-16 16 -195 215v215q223 84 429 84q392 0 392 -261q0 -153 -172 -275q97 -8 358 -8q76 0 97 -19.5t21 -77.5q0 -64 -27.5 -89.5t-106.5 -25.5q-249 0 -382.5 18t-230.5 72q-275 -90 -589 -90zM621 294q182 66 182 157q0 42 -42 64.5
t-148 22.5q-103 0 -219 -27l32.5 -32.5t31 -31.5t26.5 -26.5t27 -26.5t22.5 -22t23.5 -22.5t20.5 -19t22.5 -20t21 -16.5zM609 -429l-161 161l161 162l161 -162zM610 884l-161 161l161 162l161 -162z" />
    <glyph glyph-name="uni06FC.fina" unicode="&#x6fc;" 
d="M610 -639q-258 0 -380.5 85.5t-122.5 262.5q0 124 82.5 226t273.5 231q-32 29 -67 64.5t-54 56t-72 80.5t-75 84v215q223 84 429 84q199 0 295 -63t96 -192q0 -77 -42 -143.5t-135 -137.5q98 -8 364 -8q76 0 97 -19.5t21 -77.5q0 -64 -27.5 -89.5t-106.5 -25.5
q-226 0 -354 14.5t-220 56.5q-170 -111 -240.5 -181t-70.5 -149q0 -93 71 -131t252 -38q205 0 442 47l-2 -175q-83 -32 -210 -54.5t-244 -22.5zM638 280q93 62 129 98t36 73q0 42 -42 64.5t-148 22.5q-103 0 -219 -27q10 -11 43.5 -44.5l42.5 -42.5l33.5 -33.5t35 -33.5
t28.5 -26t32 -28.5t29 -22.5zM658 -339l-161 161l161 162l161 -162zM610 884l-161 161l161 162l161 -162z" />
    <glyph glyph-name="uni06FF.init" unicode="&#x6ff;" 
d="M-12 -6q-31 0 -44.5 24t-13.5 97q0 55 17 73t53 18q120 0 195 6q-62 100 -62 233q0 105 45 183.5t122 120.5l40 155q201 -51 343.5 -103.5t229.5 -103t136 -110t65.5 -116t16.5 -131.5q0 -346 -402 -346q-182 0 -316 51q-165 -51 -425 -51zM448 252q71 27 101.5 74.5
t30.5 120.5q0 80 -33 121t-92 41q-60 0 -94 -40.5t-34 -117.5q0 -143 121 -199zM609 1299l142 -301l-124 -20l-76 194h-10l-72 -194l-122 15l135 306h127zM689 207q22 -1 68 -1q99 0 139 36.5t40 102.5v6q0 25 -1 39.5t-11 42t-28 48.5t-56 49t-92 53q24 -67 24 -138
q0 -148 -83 -238z" />
    <glyph glyph-name="uni06FF.medi" unicode="&#x6ff;" 
d="M659 -491q-177 0 -287 125t-126 361q-74 -1 -258 -1q-32 0 -45 25t-13 96q0 53 17.5 71.5t52.5 18.5q181 0 253 1q47 359 333 645l175 28q161 -281 161 -529q0 -80 -27 -141q125 -4 305 -4q55 0 77.5 -15.5t22.5 -70.5q0 -78 -24 -101.5t-88 -23.5q-183 0 -284 20
q61 -86 61 -209q0 -141 -84.5 -218.5t-221.5 -77.5zM637 33q-90 -22 -210 -31q10 -156 77 -225t156 -69q119 0 119 107q0 62 -34.5 120t-107.5 98zM438 211q88 6 153 16q83 14 114 42.5t31 80.5q0 141 -79 313q-177 -199 -219 -452zM699 1289l142 -301l-124 -20l-76 194h-10
l-72 -194l-122 15l135 306h127z" />
    <glyph glyph-name="uni06FF.fina" unicode="&#x6ff;" 
d="M659 -491q-178 0 -288 125t-125 362q-149 9 -243 59l16 156q119 -3 234 -3q47 357 333 643l175 28q161 -281 161 -529q0 -80 -30 -141q127 -4 308 -4q55 0 77.5 -15.5t22.5 -70.5q0 -78 -24 -101.5t-88 -23.5q-183 0 -284 20q61 -86 61 -209q0 -141 -84.5 -218.5
t-221.5 -77.5zM645 28q-89 -24 -218 -31q6 -80 28.5 -139t57 -90t71 -45.5t76.5 -14.5q119 0 119 107q0 134 -134 213zM438 211q142 5 203 24q95 28 95 115q0 141 -79 313q-178 -201 -219 -452zM699 1289l142 -301l-124 -20l-76 194h-10l-72 -194l-122 15l135 306h127z" />
    <glyph glyph-name="map-marker-plus" unicode="&#x671;" arabic-form="isolated" 
d="M596 754q92 0 152 60t60 152t-60 152t-152 60t-152 -60t-60 -152t60 -152t152 -60zM596 1562q252 -4 422 -172t174 -424q-36 -364 -298 -722t-298 -386q-36 28 -298 386t-298 722q4 256 172 424t424 172zM1108 282h256v256h172v-256h256v-168h-256v-256h-172v256h-256
v168z" />
    <glyph glyph-name="marker" unicode="&#x671;" arabic-form="final" 
d="M1524 1556q-72 4 -124 -48l-496 -496l484 -484l496 496q48 52 48 120t-48 124l-244 240q-52 52 -116 48zM824 932l-508 -508q-52 -56 -52 -124t52 -120l-316 -316h484l72 72q52 -48 120 -48t120 52l508 508z" />
    <glyph glyph-name="message-plus" unicode="&#x67b;" arabic-form="isolated" 
d="M1536 1562q72 0 120 -48t48 -120v-1024q0 -72 -48 -122t-120 -50h-1196l-340 -340v1536q0 72 48 120t120 48h1368zM768 1222v-256h-256v-172h256v-256h168v256h256v172h-256v256h-168z" />
    <glyph glyph-name="microscope" unicode="&#x67b;" arabic-form="final" 
d="M508 1200l136 -232q-168 -20 -276 -138t-112 -290q4 -180 124 -300t300 -124q136 0 238 70t154 186h-220v168h684v-168h-192q-56 -204 -212 -344h232v-168h-1364v168h228q-104 96 -166 228t-62 284q4 240 142 418t366 242zM788 1560l64 -112l72 44l300 -520l-296 -168
l-300 516l76 44l-64 112z" />
    <glyph glyph-name="move-resize" unicode="&#x67b;" arabic-form="initial" 
d="M684 1650v-88h84v-256h-84v-84h256v84h-84v256h84v88h-256zM684 1138q-72 -4 -120 -52t-52 -120v-1024q4 -72 52 -120t120 -52h1024q72 4 120 52t52 120v1024q-4 72 -52 120t-120 52h-1024zM0 966v-256h88v84h256v-84h84v256h-84v-84h-256v84h-88zM684 966h1024v-1024
h-1024v1024zM1112 882v-88h84v-424h-340v84h-88v-256h88v84h340v-168h-84v-88h256v88h-88v168h256v-84h88v256h-88v-84h-256v424h88v88h-256z" />
    <glyph glyph-name="move-resize-variant" unicode="&#x67b;" arabic-form="medial" 
d="M120 1672l-120 -120l436 -436h-304v-172h596v596h-172v-304zM900 1116v-172h852v-512h172v512q-4 72 -52 120t-120 52h-852zM556 772v-852q4 -72 52 -120t120 -52h512v172h-512v852h-172zM1316 480l-124 -124l440 -436h-220v-172h512v512h-172v-220z" />
    <glyph glyph-name="paw-off" unicode="&#x67e;" arabic-form="isolated" 
d="M5 1434l108 108l1556 -1556l-108 -108l-172 172q-20 -12 -36 -24q-116 -40 -246 12t-258 64q-132 -12 -260 -66t-244 -10q-64 36 -102 106t-30 142q16 92 100 156t156 132q48 48 92 110t88 118zM545 1542q80 8 146 -62t90 -184t-8 -198l-340 340q36 88 112 104z
M1157 1542q76 -16 112 -100t12 -202t-92 -186t-146 -56t-112 96t-10 200t90 186t146 62zM89 1150q76 28 160 -18t136 -150t36 -194t-90 -122t-156 16t-134 150t-38 192t86 126zM1625 1150q72 -36 86 -126t-38 -192t-134 -150t-156 -16t-90 122t36 194t136 150t160 18z" />
    <glyph glyph-name="phone-minus" unicode="&#x67e;" arabic-form="final" 
d="M84 1478q-36 0 -60 -24t-24 -60q16 -616 426 -1026t1026 -426q36 0 60 24t24 60v300q0 36 -24 60t-60 24q-160 0 -304 48q-48 16 -88 -20l-188 -188q-184 96 -326 238t-238 326l188 188q36 36 20 88q-48 144 -48 304q0 36 -24 60t-60 24h-300zM852 1222v-172h684v172
h-684z" />
    <glyph glyph-name="phone-plus" unicode="&#x67e;" arabic-form="initial" 
d="M84 1478q-36 0 -60 -24t-24 -60q16 -616 426 -1026t1026 -426q36 0 60 24t24 60v300q0 36 -24 60t-60 24q-160 0 -304 48q-48 16 -88 -20l-188 -188q-184 96 -326 238t-238 326l188 188q36 36 20 88q-48 144 -48 304q0 36 -24 60t-60 24h-300zM1108 1478v-256h-256v-172
h256v-256h172v256h256v172h-256v256h-172z" />
    <glyph glyph-name="pot" unicode="&#x67e;" arabic-form="medial" 
d="M1364 114q0 -72 -48 -122t-120 -50h-856q-72 0 -120 50t-48 122v512h-172v256h1536v-256h-172v-512zM256 1222h172v-172h-172v172zM684 1222h168v-172h-168v172zM1108 1222h172v-172h-172v172zM1280 1478h172v-172h-172v172zM852 1478h172v-172h-172v172zM428 1478h168
v-172h-168v172z" />
    <glyph glyph-name="pot-mix" unicode="&#x680;" arabic-form="isolated" 
d="M1364 116q0 -72 -48 -122t-120 -50h-856q-72 0 -120 50t-48 122v512h-172v256h940l340 592l148 -88l-292 -504h400v-256h-172v-512z" />
    <glyph glyph-name="serial-port" unicode="&#x680;" arabic-form="final" 
d="M172 1520h856v-172h168v-256h-256v-512h-680v512h-256v256h168v172zM1028 1008h168v-428h-168v428zM516 496h168v-596h-168v596zM4 1008h168v-428h-168v428z" />
    <glyph glyph-name="shape-circle-plus" unicode="&#x680;" arabic-form="initial" 
d="M684 72q216 4 360 148t152 364h168q-4 -292 -198 -484t-482 -200q-292 8 -484 200t-200 484q8 288 200 482t484 198v-168q-220 -8 -364 -152t-148 -360q4 -220 148 -364t364 -148zM1364 1264h256v-168h-256v-256h-168v256h-256v168h256v256h168v-256z" />
    <glyph glyph-name="shape-polygon-plus" unicode="&#x680;" arabic-form="medial" 
d="M1196 352v232h168v-344l-768 -340l-596 596l340 768h344v-168h-232l-248 -564l428 -428zM1620 1264v-168h-256v-256h-168v256h-256v168h256v256h168v-256h256z" />
    <glyph glyph-name="shape-rectangle-plus" unicode="&#x67a;" arabic-form="isolated" 
d="M1364 1136h256v-172h-256v-256h-168v256h-256v172h256v256h168v-256zM1196 196v256h168v-424h-1364v1108h684v-172h-512v-768h1024z" />
    <glyph glyph-name="shape-square-plus" unicode="&#x67a;" arabic-form="final" 
d="M1364 1264h256v-168h-256v-256h-168v256h-256v168h256v256h168v-256zM1196 72v512h168v-684h-1364v1364h684v-168h-512v-1024h1024z" />
    <glyph glyph-name="skip-next-circle" unicode="&#x67a;" arabic-form="initial" 
d="M852 1562q-364 -8 -604 -248t-248 -604q8 -364 248 -604t604 -248q364 8 604 248t248 604q-8 364 -248 604t-604 248zM512 1050l424 -340l-424 -340v680zM1024 1050h168v-680h-168v680z" />
    <glyph glyph-name="skip-next-circle-outline" unicode="&#x67a;" arabic-form="medial" 
d="M852 1562q-364 -8 -604 -248t-248 -604q8 -364 248 -604t604 -248q364 8 604 248t248 604q-8 364 -248 604t-604 248zM852 1394q288 -8 482 -202t202 -482q-8 -288 -202 -482t-482 -202q-288 8 -482 202t-202 482q8 288 202 482t482 202zM512 1050v-680l424 340z
M1024 1050v-680h168v680h-168z" />
    <glyph glyph-name="skip-previous-circle" unicode="&#x67f;" arabic-form="isolated" 
d="M852 1562q-364 -8 -604 -248t-248 -604q8 -364 248 -604t604 -248q364 8 604 248t248 604q-8 364 -248 604t-604 248zM512 1050h168v-680h-168v680zM1192 1050v-680l-424 340z" />
    <glyph glyph-name="skip-previous-circle-outline" unicode="&#x67f;" arabic-form="final" 
d="M852 1562q364 -8 604 -248t248 -604q-8 -364 -248 -604t-604 -248q-364 8 -604 248t-248 604q8 364 248 604t604 248zM852 1394q-288 -8 -482 -202t-202 -482q8 -288 202 -482t482 -202q288 8 482 202t202 482q-8 288 -202 482t-482 202zM1192 1050v-680l-424 340z
M680 1050v-680h-168v680h168z" />
    <glyph glyph-name="spray" unicode="&#x67f;" arabic-form="initial" 
d="M512 1394h172v-172h-172v172zM256 1478h172v-172h-172v172zM256 1222h172v-172h-172v172zM172 1050v-168h-172v168h172zM172 1306v-168h-172v168h172zM172 1562v-168h-172v168h172zM768 -142q-72 0 -120 48t-48 120v856q0 72 48 120t120 48v88h88v256h256v-256h84v-88
q72 0 120 -48t52 -120v-856q-4 -72 -52 -120t-120 -48h-428zM768 882v-856h428v856h-428z" />
    <glyph glyph-name="stop-circle" unicode="&#x67f;" arabic-form="medial" 
d="M852 1562q-364 -8 -604 -248t-248 -604q8 -364 248 -604t604 -248q364 8 604 248t248 604q-8 364 -248 604t-604 248zM596 966h512v-512h-512v512z" />
    <glyph glyph-name="stop-circle-outline" unicode="&#x679;" arabic-form="isolated" 
d="M852 1562q-364 -8 -604 -248t-248 -604q8 -364 248 -604t604 -248q364 8 604 248t248 604q-8 364 -248 604t-604 248zM852 1394q288 -8 482 -202t202 -482q-8 -288 -202 -482t-482 -202q-288 8 -482 202t-202 482q8 288 202 482t482 202zM596 966v-512h512v512h-512z" />
    <glyph glyph-name="test-tube" unicode="&#x679;" arabic-form="final" 
d="M172 1560v-168h88v-1196q4 -144 100 -240t240 -96t240 96t100 240v1196h88v168h-856zM516 368q-40 0 -64 22t-24 62t24 62t62 22t62 -22t24 -62t-24 -62t-60 -22zM684 708q-36 0 -60 24t-24 62t24 62t62 24t62 -24t24 -62t-24 -62t-64 -24zM772 1136h-344v256h344v-256z
" />
    <glyph glyph-name="text-shadow" unicode="&#x679;" arabic-form="initial" 
d="M0 1478h1108v-256h-424v-1024h-256v1024h-428v256zM768 1138h172v-172h-172v172zM1024 1138h172v-172h-172v172zM1280 1138h172v-172h-172v172zM768 882h172v-172h-172v172zM768 626h172v-172h-172v172zM768 370h172v-172h-172v172zM768 114h172v-172h-172v172z" />
    <glyph glyph-name="tune-vertical" unicode="&#x679;" arabic-form="medial" 
d="M172 1478v-768h-172v-172h172v-596h168v596h172v172h-172v768h-168zM684 1478v-428h-172v-168h172v-940h168v940h172v168h-172v428h-168zM1196 1478v-940h-172v-168h172v-428h168v428h172v168h-172v940h-168z" />
    <glyph glyph-name="cart-off" unicode="&#x6a4;" arabic-form="isolated" 
d="M1940 -152l-1832 1832l-108 -108l376 -376l188 -396l-116 -212q-20 -36 -20 -80q0 -72 48 -120t120 -52h636l120 -116q-68 -48 -72 -140q0 -72 50 -120t122 -48q88 0 136 72l244 -244zM632 508q-20 0 -20 20l4 12l76 140h200l172 -172h-432zM1328 680q48 0 86 24t62 64
l304 552q12 20 12 40q0 36 -24 60t-60 28h-1148zM596 252q-72 0 -120 -50t-48 -122t48 -120t120 -48t122 48t50 120t-50 122t-122 50z" />
    <glyph glyph-name="chart-gantt" unicode="&#x6a4;" arabic-form="final" 
d="M0 1306h680v256h172v-1704h-172v340h-340v256h340v172h-512v256h512v168h-680v256zM1024 1306h256v-256h-256v256zM1024 882h424v-256h-424v256zM1024 454h680v-256h-680v256z" />
    <glyph glyph-name="chart-scatterplot-hexbin" unicode="&#x6a4;" arabic-form="initial" 
d="M0 1562h168v-1536h1536v-168h-1704v1704zM1024 498l-172 -300h-348l-172 300l172 296h348zM1028 1178l-172 -296h-344l-172 296l172 300h344zM1640 838l-172 -300h-344l-172 300l172 300h344z" />
    <glyph glyph-name="chart-timeline" unicode="&#x6a4;" arabic-form="medial" 
d="M0 1562h168v-1536h1536v-168h-1704v1704zM424 882h856v-256h-856v256zM768 454h852v-256h-852v256zM340 1394h1364v-344h-168v172h-1024v-172h-172v344z" />
    <glyph glyph-name="discord" unicode="&#x6a6;" arabic-form="isolated" 
d="M1704 -272l-448 428l56 -172h-1100q-92 4 -152 64t-60 148v1280q0 92 60 152t152 64h1280q92 -4 152 -64t60 -152v-1748zM852 1196q-176 -8 -282 -50t-106 -50q72 60 152 92t88 32l-16 16q-108 -8 -188 -52t-84 -52q-104 -236 -124 -400t-16 -168q100 -112 196 -132
t104 -12l60 76q-80 24 -126 68t-50 48q4 -4 110 -52t282 -56q176 8 282 56t110 52q-4 -4 -50 -48t-126 -68l60 -76q8 -8 104 12t196 132q4 4 -16 168t-124 400q-4 8 -84 52t-188 52l-16 -16q8 0 88 -32t152 -92q0 8 -106 50t-282 50zM676 872q44 0 72 -32t28 -76t-28 -76
t-72 -32t-72 32t-28 76t28 76t72 32zM1032 872q40 0 70 -32t30 -76t-30 -76t-72 -32t-70 32t-28 76t28 76t72 32z" />
    <glyph glyph-name="file-restore" unicode="&#x6a6;" arabic-form="final" 
d="M856 1562h-684q-72 0 -120 -48t-52 -120v-1368q4 -72 52 -120t120 -48h1024q72 0 120 48t52 120v1024zM684 198q-132 0 -236 70t-156 186h148q40 -60 104 -94t140 -34q128 4 212 88t84 210t-84 212t-212 86q-88 0 -156 -44t-108 -116l136 -136h-340v340l108 -112
q60 92 152 144t208 52q180 -4 302 -124t126 -300q-4 -184 -126 -304t-302 -124z" />
    <glyph glyph-name="language-c" unicode="&#x6a6;" arabic-form="initial" 
d="M982 370l36 -208q-36 -16 -108 -32t-172 -16q-280 4 -424 166t-144 414q4 292 172 452t420 160q96 0 166 -16t102 -32l-52 -212l-88 28q-52 12 -120 12q-148 0 -244 -94t-100 -286q0 -172 92 -272t256 -100l112 8q56 12 96 28z" />
    <glyph glyph-name="language-cpp" unicode="&#x6a6;" arabic-form="medial" 
d="M812 370l36 -208q-36 -16 -108 -32t-172 -16q-280 4 -424 166t-144 414q8 292 174 452t418 160q96 0 166 -16t102 -32l-48 -212l-92 28q-48 12 -116 12q-148 0 -246 -94t-102 -286q0 -172 92 -272t256 -100l116 8q52 12 92 28zM856 794h168v172h172v-172h172v-168h-172
v-172h-172v172h-168v168zM1452 794h172v172h168v-172h172v-168h-172v-172h-168v172h-172v168z" />
    <glyph glyph-name="xaml" unicode="&#x684;" arabic-form="isolated" 
d="M1596 710l-296 -512h-592l-296 512l296 512h592zM2008 710l-344 -596l-148 84l296 512l-296 512l148 84zM0 710l344 596l148 -84l-296 -512l296 -512l-148 -84z" />
    <glyph glyph-name="bandcamp" unicode="&#x684;" arabic-form="final" 
d="M1704 1222l-552 -1024h-1152l552 1024h1152z" />
    <glyph glyph-name="credit-card-plus" unicode="&#x684;" arabic-form="initial" 
d="M1708 326h256v-172h-256v-256h-172v256h-256v172h256v256h172v-256zM1536 1178v172h-1364v-172h1364zM1536 838h-1364v-512h940v-172h-940q-72 4 -120 52t-52 120v1024q4 72 52 120t120 52h1364q72 -4 122 -52t50 -120v-596h-172v84z" />
    <glyph glyph-name="itunes" unicode="&#x684;" arabic-form="medial" 
d="M323 278q-68 -4 -204 -58t-116 -214q64 -192 266 -158t226 266v836q-4 4 2 30t50 38l660 136q4 4 28 0t28 -44v-588q0 -4 -8 -30t-52 -38q-68 0 -204 -48t-132 -208q48 -196 258 -174t238 254v1232q0 8 -12 42t-84 22l-800 -164q-4 4 -36 -14t-36 -70v-968q0 -4 -10 -36
t-62 -44z" />
    <glyph glyph-name="bow-tie" unicode="&#x683;" arabic-form="isolated" 
d="M1024 538l512 -256v856l-512 -256v-344zM512 538l-512 -256v856l512 -256v-344zM596 882h344v-344h-344v344z" />
    <glyph glyph-name="calendar-range" unicode="&#x683;" arabic-form="final" 
d="M512 796h-172v-172h172v172zM852 796h-168v-172h168v172zM1196 796h-172v-172h172v172zM1364 1392h-84v172h-172v-172h-680v172h-172v-172h-84q-76 0 -124 -50t-48 -122v-1192q0 -72 50 -122t122 -50h1192q72 0 122 50t50 122v1192q0 72 -50 122t-122 50zM1364 28h-1192
v936h1192v-936z" />
    <glyph glyph-name="currency-usd-off" unicode="&#x683;" arabic-form="initial" 
d="M720 1146q112 0 160 -50t52 -130h188q-4 112 -72 202t-200 122v188h-256v-184q-68 -16 -128 -48l128 -124q48 24 128 24zM108 1386l-108 -108l292 -292q4 -132 92 -212t240 -124l300 -296q-20 -32 -70 -56t-134 -24q-132 4 -192 54t-64 126h-188q12 -140 100 -220
t216 -108v-184h256v184q124 24 208 96l188 -192l108 108z" />
    <glyph glyph-name="flash-red-eye" unicode="&#x683;" arabic-form="medial" 
d="M1108 1350q-36 0 -60 -24t-24 -60t24 -60t62 -24t60 24t22 60t-22 60t-62 24zM1108 1606q-176 0 -312 -94t-200 -246q64 -152 200 -246t314 -94t314 94t196 246q-60 152 -196 246t-316 94zM1108 1478q92 0 152 -60t60 -152t-60 -152t-150 -60t-150 60t-60 152t60 152
t148 60zM0 1606v-1024h256v-768l596 1024h-340l96 216q-88 92 -140 212q48 112 126 198t182 142h-776z" />
    <glyph glyph-name="oar" unicode="&#x686;" arabic-form="isolated" 
d="M1472 441q-104 108 -296 246t-344 90l-704 704l-128 -128l708 -708q-48 -152 94 -336t252 -288t194 -76t168 124q100 92 120 186t-64 186z" />
    <glyph glyph-name="piano" unicode="&#x686;" arabic-form="final" 
d="M168 1478h1368q72 0 120 -50t48 -122v-1192q0 -72 -48 -122t-120 -50h-1368q-72 0 -120 50t-48 122v1192q0 72 48 122t120 50zM168 1306v-1192h344v512h-108v680h-236zM596 114h512v512h-108v680h-296v-680h-108v-512zM1192 114h344v1192h-236v-680h-108v-512z" />
    <glyph glyph-name="weather-lightning-rainy" unicode="&#x686;" arabic-form="initial" 
d="M300 574q32 -20 40 -52t-10 -64t-50 -40t-64 8q-100 56 -156 152t-60 216q4 184 126 304t302 124q68 152 202 246t310 94q224 -4 378 -148t178 -364h40q148 -4 244 -100t96 -240t-96 -240t-244 -100q-36 0 -60 24t-24 60t24 60t60 24q72 4 122 52t50 120t-50 120t-122 52
h-168v84q-4 180 -126 302t-302 126q-164 -4 -278 -104t-142 -256q-44 16 -92 16q-108 0 -180 -72t-76 -184q0 -72 34 -130t94 -90zM728 794h256l-172 -340h172l-320 -596l64 424h-216zM1408 142q0 -84 -54 -140t-136 -56t-136 56t-58 140q12 108 96 226t96 130
q12 -12 96 -130t96 -226z" />
    <glyph glyph-name="weather-snowy-rainy" unicode="&#x686;" arabic-form="medial" 
d="M1496 101q-4 -84 -58 -140t-136 -56t-136 56t-54 140q12 108 96 226t96 130q12 -12 96 -130t96 -226zM256 213q-8 36 10 66t54 38l192 52l-140 140q-28 28 -28 64t26 62t62 26t64 -28l140 -140l52 192q8 36 40 54t68 8t52 -40t8 -66l-52 -192l192 48q36 12 68 -6t40 -54
t-8 -66t-52 -38l-192 -52l140 -140q24 -28 24 -64t-26 -62t-62 -26t-60 24l-140 144l-52 -192q-12 -40 -42 -56t-66 -6t-54 40t-10 66l52 192l-192 -52q-36 -8 -66 10t-42 54zM0 753q4 184 126 304t302 124q68 152 202 246t310 94q224 -4 378 -148t178 -364h40
q148 -4 244 -100t96 -240t-96 -240t-244 -100q-36 0 -60 24t-24 60t24 60t60 24q72 4 122 52t50 120t-50 120t-122 52h-168v84q-4 180 -126 302t-302 126q-164 -4 -278 -104t-142 -256q-44 16 -92 16q-108 0 -180 -72t-72 -184t72 -184q24 -24 24 -58t-26 -58t-60 -24
t-58 24q-60 60 -94 136t-34 164z" />
    <glyph glyph-name="yin-yang" unicode="&#x687;" arabic-form="isolated" 
d="M852 1562q364 -8 604 -248t248 -604q-8 -364 -248 -604t-604 -248q-364 8 -604 248t-248 604q8 364 248 604t604 248zM852 1394q-292 -8 -484 -200t-200 -484q8 -292 200 -484t484 -200q-144 4 -240 100t-96 242t96 242t240 100t240 100t96 242t-96 242t-240 100z
M852 1178q56 0 92 -36t36 -90t-36 -90t-92 -36t-92 36t-36 90t36 90t92 36zM852 498q-56 -4 -92 -40t-36 -90t36 -90t92 -36t92 36t36 90t-36 90t-92 40z" />
    <glyph glyph-name="tower-beach" unicode="&#x687;" arabic-form="final" 
d="M1196 1394v-344h84v-168h-32l288 -1112h-176l-48 188l-544 312l-544 -312l-48 -188h-176l288 1112h-32v168h84v344h-84v84l1024 172v-256h-84zM364 502l-80 -316l312 184zM1072 882h-608l-56 -208l360 -208l360 208zM1252 186l-80 316l-232 -132z" />
    <glyph glyph-name="tower-fire" unicode="&#x687;" arabic-form="initial" 
d="M1196 1394v-344h84v-168h-32l288 -1112h-176l-48 188l-544 312l-544 -312l-48 -188h-176l288 1112h-32v168h84v344h-84v84l512 172l512 -172v-84h-84zM364 502l-80 -316l312 184zM1072 882h-608l-56 -208l360 -208l360 208zM1252 186l-80 316l-232 -132z" />
    <glyph glyph-name="delete-circle" unicode="&#x687;" arabic-form="medial" 
d="M852 1562q364 -8 604 -248t248 -604q-8 -364 -248 -604t-604 -248q-364 8 -604 248t-248 604q8 364 248 604t604 248zM1280 1138h-216l-84 84h-256l-84 -84h-216v-172h856v172zM596 198h512q36 0 60 24t24 60v600h-680v-600q0 -36 24 -60t60 -24z" />
    <glyph glyph-name="dna" unicode="&#x68d;" arabic-form="isolated" 
d="M0 1562h172v-168q0 -92 42 -170t118 -154q116 -104 276 -208l-156 -100q-132 84 -236 188q-96 88 -154 198t-62 246v168zM1196 1562h172v-168q-4 -136 -62 -246t-152 -198t-202 -164t-222 -148t-216 -142t-180 -146t-120 -154t-42 -170v-168h-172v168q4 136 62 246
t152 198t202 164t222 148t216 142t180 146t120 154t42 170v168zM916 658q132 -84 236 -188q96 -88 154 -198t62 -246v-168h-172v168q0 92 -42 170t-118 154q-116 104 -276 208zM256 1478h856v-84l-8 -44h-840l-8 44v84zM316 1222h736q-28 -44 -76 -92l-44 -36h-500l-40 36
q-48 48 -76 92zM436 326h500l40 -36q48 -48 76 -92h-736q28 44 76 92zM264 70h840l8 -44v-84h-856v84z" />
    <glyph glyph-name="hamburger" unicode="&#x68d;" arabic-form="final" 
d="M0 370h1704v-172q0 -72 -48 -120t-120 -52h-1368q-72 4 -120 52t-48 120v172zM340 1394h1024q144 -4 240 -100t100 -244v-168h-1704v168q4 148 100 244t240 100zM168 794h940l172 -168l168 168h88q72 0 120 -48t48 -122t-48 -122t-120 -48h-1368q-72 0 -120 48t-48 122
t48 122t120 48z" />
    <glyph glyph-name="gondola" unicode="&#x68c;" arabic-form="isolated" 
d="M1376 862h-428v204l780 132l-20 124l-468 -76q8 20 8 40q0 56 -36 92t-92 36t-92 -36t-36 -86t28 -86l-72 -8v88h-168v-120l-52 -8q8 20 8 44q0 56 -36 92t-92 36t-92 -36t-36 -88t28 -84l-508 -84l20 -128l760 128v-176h-428q-72 -4 -120 -52t-52 -120v-512
q4 -72 52 -120t120 -52h1024q72 4 120 52t52 120v512q-4 72 -52 120t-120 52zM352 690h192v-340h-192v340zM672 350v340h384v-340h-384zM1376 350h-192v340h192v-340z" />
    <glyph glyph-name="inbox" unicode="&#x68c;" arabic-form="final" 
d="M1364 454h-340q-4 -108 -76 -180t-180 -72t-180 72t-76 180h-340v852h1192v-852zM1364 1478h-1192q-76 0 -124 -50t-48 -122v-1192q0 -72 50 -122t122 -50h1192q72 0 122 50t50 122v1192q0 72 -50 122t-122 50z" />
    <glyph glyph-name="reorder-horizontal" unicode="&#x68e;" arabic-form="isolated" 
d="M0 454h1536v172h-1536v-172zM0 114h1536v168h-1536v-168zM0 794h1536v172h-1536v-172zM0 1306v-168h1536v168h-1536z" />
    <glyph glyph-name="reorder-vertical" unicode="&#x68e;" arabic-form="final" 
d="M344 1478v-1536h172v1536h-172zM4 1478v-1536h168v1536h-168zM684 1478v-1536h172v1536h-172zM1196 1478h-168v-1536h168v1536z" />
    <glyph glyph-name="security-home" unicode="&#x688;" arabic-form="isolated" 
d="M684 626h168v-256h256v424h172l-512 428l-512 -428h172v-424h256v256zM768 1650l768 -344v-512q-8 -364 -220 -648t-548 -376q-336 92 -548 376t-220 648v512z" />
    <glyph glyph-name="tag-heart" unicode="&#x688;" arabic-form="final" 
d="M1656 746l-768 768q-48 48 -120 48h-600q-72 0 -120 -48t-48 -120v-600q0 -72 48 -120l768 -768q48 -48 120 -48t120 48l600 600q48 48 48 120t-48 120zM296 1138q-52 0 -88 36t-36 90t36 90t90 36t90 -36t36 -90t-36 -90t-92 -36zM1300 430l-364 -364l-364 364
q-60 60 -60 152t60 152t152 60t152 -60l60 -64l64 64q60 60 150 60t150 -60t60 -152t-60 -152z" />
    <glyph glyph-name="skull" unicode="&#x698;" arabic-form="isolated" 
d="M768 1562q-328 -8 -544 -224t-224 -544q0 -196 90 -362t250 -274v-300h172v256h172v-256h168v256h172v-256h172v300q160 108 250 276t90 360q-8 328 -224 544t-544 224zM428 794q72 0 120 -48t48 -120t-48 -122t-120 -50t-122 50t-50 122t50 120t122 48zM1108 794
q72 0 122 -48t50 -120t-50 -122t-122 -50t-120 50t-48 122t48 120t120 48zM768 538l128 -256h-256z" />
    <glyph glyph-name="solid" unicode="&#x698;" arabic-form="final" 
d="M0 1734h2048v-2048h-2048v2048z" />
    <glyph glyph-name="alarm-snooze" unicode="&#x691;" arabic-form="isolated" 
d="M500 1440l-108 128l-392 -328l108 -128zM1704 1240l-392 328l-108 -128l392 -332zM852 1388q-328 -8 -544 -226t-224 -542q8 -328 224 -544t544 -224q328 8 544 224t224 544q-8 324 -224 542t-544 226zM852 20q-256 8 -424 176t-172 424q4 252 172 420t424 176
q256 -8 424 -176t172 -420q-4 -256 -172 -424t-424 -176zM596 788h308l-308 -356v-156h512v172h-308l308 360v152h-512v-172z" />
    <glyph glyph-name="baby-buggy" unicode="&#x691;" arabic-form="final" 
d="M936 1562v-680h684q-8 288 -200 482t-484 198zM1476 378q68 88 106 194t38 222h-1244l-80 172h-296v-172h188l84 -176q72 -156 96 -200q-72 -40 -114 -108t-42 -156q4 -124 88 -210t212 -86q112 0 194 72t98 184h180q16 -112 98 -184t198 -72q124 0 210 86t86 210
q-4 140 -100 224zM512 26q-56 4 -92 40t-36 90t36 90t90 36t90 -36t36 -90t-36 -90t-88 -40zM1280 26q-56 4 -92 40t-36 90t36 90t90 36t90 -36t36 -90t-36 -90t-88 -40z" />
    <glyph glyph-name="beaker" unicode="&#x6a9;" arabic-form="isolated" 
d="M0 1478h1536v-172q-72 0 -120 -48t-52 -120v-1024q0 -72 -48 -122t-120 -50h-856q-72 0 -120 50t-48 122v1024q-4 72 -52 120t-120 48v172zM340 1306v-168h428v-88h-428v-84h256v-84h-256v-88h256v-84h-256v-84h428v-88h-428v-84h256v-84h-256v-256h856v1192h-856z" />
    <glyph glyph-name="bomb" unicode="&#x6a9;" arabic-form="final" 
d="M532 1180q4 116 82 196t196 80t196 -80t82 -196q0 -28 18 -46t46 -18t46 18t18 46v64h128v-64q-4 -80 -58 -134t-136 -54t-136 54t-54 134q-4 64 -46 106t-106 42t-106 -42t-42 -106h108v-112q188 -56 304 -210t120 -362q-4 -252 -172 -420t-424 -176q-256 8 -424 176
t-172 420q4 208 120 362t304 210v112h108zM1448 1180h172v-84h-172v84zM1192 1352v168h88v-168h-88zM1356 1320l120 120l64 -60l-124 -124z" />
    <glyph glyph-name="calendar-question" unicode="&#x6a9;" arabic-form="initial" 
d="M256 1564v-172h-84q-76 0 -124 -50t-48 -122v-1192q0 -72 50 -122t122 -50h1192q72 0 122 50t50 122v1192q0 72 -50 122t-122 50h-84v172h-172v-172h-680v172h-172zM172 964h1192v-936h-1192v936zM784 880q-112 0 -180 -50t-64 -150v-4h164q0 40 24 60t60 20t60 -26
t24 -66t-20 -68t-52 -48q-68 -44 -92 -80t-24 -100h168q0 40 12 64t44 44q56 28 94 78t38 114q0 96 -68 154t-188 58zM684 284v-172h168v172h-168z" />
    <glyph glyph-name="camera-burst" unicode="&#x6a9;" arabic-form="medial" 
d="M0 1306h172v-1192h-172v1192zM344 1306h168v-1192h-168v1192zM1792 1306h-1024q-36 0 -60 -24t-24 -60v-1024q0 -36 24 -60t60 -24h1024q36 0 60 24t28 60v1024q-4 36 -28 60t-60 24zM856 282l212 272l152 -184l216 272l272 -360h-852z" />
    <glyph glyph-name="code-tags-check" unicode="&#x6af;" arabic-form="isolated" 
d="M392 1524l-392 -392l392 -392l120 120l-272 272l272 272zM888 1524l-120 -120l272 -272l-272 -272l120 -120l392 392zM1672 828l-692 -692l-312 316l-120 -120l432 -436l812 812z" />
    <glyph glyph-name="coins" unicode="&#x6af;" arabic-form="final" 
d="M1192 1394q292 -8 484 -200t200 -484q-8 -292 -200 -484t-484 -200q-292 8 -484 200t-200 484q8 292 200 484t484 200zM1192 198q216 4 362 150t150 362q-4 216 -150 362t-362 150q-216 -4 -362 -150t-150 -362q4 -216 150 -362t362 -150zM168 710q4 -168 96 -298
t244 -186v-176q-224 60 -366 238t-142 422t142 422t366 238v-176q-152 -56 -244 -186t-96 -298z" />
    <glyph glyph-name="crop-rotate" unicode="&#x6af;" arabic-form="initial" 
d="M636 -102q-212 104 -348 294t-160 434h-128q40 -404 324 -668t696 -272q28 0 56 4l-324 324zM1028 1734q-28 0 -56 -4l324 -324l116 116q212 -104 348 -294t160 -434h128q-40 404 -324 668t-696 272zM1364 538h172v512q0 76 -50 124t-122 48h-512v-172h512v-512zM684 370
v1024h-172v-172h-172v-172h172v-680q0 -72 50 -122t122 -50h680v-172h172v172h172v172h-1024z" />
    <glyph glyph-name="developer-board" unicode="&#x6af;" arabic-form="medial" 
d="M1704 966v172h-168v168q-4 72 -52 122t-120 50h-1196q-72 0 -120 -50t-48 -122v-1192q0 -72 48 -122t120 -50h1196q72 0 120 50t52 122v168h168v172h-168v172h168v168h-168v172h168zM1364 114h-1196v1192h1196v-1192zM340 626h428v-344h-428v344zM852 1138h340v-256h-340
v256zM340 1138h428v-428h-428v428zM852 794h340v-512h-340v512z" />
    <glyph glyph-name="do-not-disturb" unicode="&#x6b3;" arabic-form="isolated" 
d="M852 1562q-364 -8 -604 -248t-248 -604q8 -364 248 -604t604 -248q364 8 604 248t248 604q-8 364 -248 604t-604 248zM1280 626h-856v168h856v-168z" />
    <glyph glyph-name="do-not-disturb-off" unicode="&#x6b3;" arabic-form="final" 
d="M1368 838v-168h-124l396 -400q72 104 112 226t40 258q-8 364 -248 604t-604 248q-136 0 -258 -40t-226 -112l616 -616h296zM108 1586l-108 -112l240 -236q-72 -104 -112 -226t-40 -258q8 -364 248 -604t604 -248q136 0 258 40t226 112l236 -240l112 108zM512 670v168h124
l172 -168h-296z" />
    <glyph glyph-name="douban" unicode="&#x6b3;" arabic-form="initial" 
d="M1368 1222h-1368v172h1368v-172zM1368 198v-172h-1368v172h284l-88 340h-108v512h1192v-512h-108l-88 -340h284zM256 710h856v172h-856v-172zM464 198h440l92 340h-624z" />
    <glyph glyph-name="emoticon-dead" unicode="&#x6b3;" arabic-form="medial" 
d="M852 1562q-364 -8 -604 -248t-248 -604q8 -364 248 -604t604 -248q364 8 604 248t248 604q-8 364 -250 604t-602 248zM852 26q-292 8 -484 200t-200 484q8 292 200 484t484 200q292 -8 484 -200t200 -484q-8 -292 -200 -484t-484 -200zM1208 1070l-88 -88l-92 88l-92 -88
l92 -92l-92 -88l92 -92l92 92l88 -92l92 92l-92 88l92 92zM496 710l88 92l92 -92l92 92l-92 88l92 92l-92 88l-92 -88l-88 88l-92 -88l92 -92l-92 -88zM852 538q-152 0 -268 -82t-168 -214h872q-52 132 -168 214t-268 82z" />
    <glyph glyph-name="emoticon-excited" unicode="&#x6b1;" arabic-form="isolated" 
d="M852 1562q-364 -8 -604 -248t-248 -604q8 -364 248 -604t604 -248q364 8 604 248t248 604q-8 364 -250 604t-602 248zM852 26q-292 8 -484 200t-200 484q8 292 200 484t484 200q292 -8 484 -200t200 -484q-8 -292 -200 -484t-484 -200zM936 886l92 -92l92 92l88 -92
l92 92l-180 180zM584 886l92 -92l92 92l-184 180l-180 -180l92 -92zM852 242q152 0 268 82t168 214h-872q52 -132 168 -214t268 -82z" />
    <glyph glyph-name="folder-star" unicode="&#x6b1;" arabic-form="final" 
d="M1536 1222h-684l-172 172h-512q-72 -4 -120 -52t-48 -120v-1024q0 -72 48 -120t120 -52h1368q72 4 120 52t48 120v852q0 72 -48 122t-120 50zM1360 282l-252 148l-252 -148l68 284l-220 192l288 24l116 268l116 -268l288 -24l-220 -192z" />
    <glyph glyph-name="format-color-text" unicode="&#x6b1;" arabic-form="initial" 
d="M396 540l204 540l204 -540h-408zM516 1308l-472 -1196h192l96 256h536l96 -256h192l-472 1196h-168z" />
    <glyph glyph-name="format-section" unicode="&#x6b1;" arabic-form="medial" 
d="M912 1358q-124 72 -272 72q-104 0 -170 -46t-70 -126q4 -84 80 -132t204 -88q164 -48 268 -128t108 -232q-4 -84 -44 -156t-108 -120q84 -84 84 -200q-8 -180 -138 -262t-298 -82q-188 -4 -352 96l56 128q136 -92 300 -92q112 0 182 48t74 140q4 76 -60 130t-220 106
q-180 60 -286 140t-110 224q4 84 50 156t118 112q-80 76 -84 192q4 152 122 238t298 86q168 0 316 -76zM544 590q136 -44 260 -112q88 68 88 176q0 64 -48 120t-160 96q-140 48 -280 116q-48 -28 -76 -76t-28 -108t56 -114t188 -98z" />
    <glyph glyph-name="gradient" unicode="&#x6ba;" arabic-form="isolated" 
d="M684 966h168v-172h-168v172zM512 794h172v-168h-172v168zM852 794h172v-168h-172v168zM1024 966h172v-172h-172v172zM340 966h172v-172h-172v172zM1364 1478h-1192q-72 0 -122 -50t-50 -122v-1192q0 -72 50 -122t122 -50h1192q72 0 122 50t50 122v1192q0 72 -50 122
t-122 50zM512 198h-172v172h172v-172zM852 198h-168v172h168v-172zM1196 198h-172v172h172v-172zM1364 794h-168v-168h168v-172h-168v172h-172v-172h-172v172h-168v-172h-172v172h-172v-172h-168v172h168v168h-168v512h1192v-512z" />
    <glyph glyph-name="home-outline" unicode="&#x6ba;" arabic-form="final" 
d="M588 76v512h512v-512h256v688l-512 512l-512 -512v-688h256zM844 1516l844 -844h-160v-768h-600v512h-168v-512h-600v768h-160z" />
    <glyph glyph-name="message-bulleted" unicode="&#x6bb;" arabic-form="isolated" 
d="M1536 1562h-1368q-72 0 -120 -48t-48 -120v-1536l340 340h1196q72 0 120 50t48 122v1024q0 72 -48 120t-120 48zM512 538h-172v172h172v-172zM512 794h-172v172h172v-172zM512 1050h-172v172h172v-172zM1108 538h-428v172h428v-172zM1364 794h-684v172h684v-172z
M1364 1050h-684v172h684v-172z" />
    <glyph glyph-name="message-bulleted-off" unicode="&#x6bb;" arabic-form="final" 
d="M108 1648l-108 -108l172 -172v-1448l340 340h768l488 -488l108 108zM684 600h-172v172h172v-172zM512 856v172l172 -172h-172zM1708 1624h-1360l504 -504v164h684v-172h-676l84 -84h592v-172h-420l596 -596q72 4 118 52t46 120v1024q0 72 -48 120t-120 48z" />
    <glyph glyph-name="nuke" unicode="&#x6bb;" arabic-form="initial" 
d="M1028 710h-348v84h-384q-124 4 -210 88t-86 212t86 212t210 88q136 -4 224 -100q28 120 118 194t214 74t214 -74t118 -194q88 96 224 100q124 -4 210 -88t86 -212t-86 -212t-210 -88h-380v-84zM680 290v100h-424v168h1192v-168h-420v-100l508 -184q36 -16 60 -48t24 -72
q0 -56 -36 -92t-92 -36h-1280q-56 0 -92 36t-36 92q0 40 24 72t60 48z" />
    <glyph glyph-name="power-plug" unicode="&#x6bb;" arabic-form="medial" 
d="M940 1138v340h-168v-340h-344v340h-168v-340q-68 -4 -118 -54t-54 -118v-468l300 -300v-256h424v256l300 300v468q-4 68 -54 118t-118 54z" />
    <glyph glyph-name="power-plug-off" unicode="&#x6c0;" arabic-form="isolated" 
d="M512 1522v-272q392 -392 784 -776q12 16 34 34t34 42v476q-4 72 -62 110t-110 58v328h-168v-340h-344v340h-168zM108 1438l-108 -108l340 -344v-444l300 -300v-256h424v256q16 12 30 -8t30 -28l296 -308q64 56 112 112q-720 712 -1424 1424v4z" />
    <glyph glyph-name="publish" unicode="&#x6c0;" arabic-form="final" 
d="M4 1394v-172h1192v172h-1192zM4 538h340v-512h512v512h340l-596 600z" />
    <glyph glyph-name="restore" unicode="&#x6c1;" arabic-form="isolated" 
d="M1024 1478q-324 -8 -542 -224t-226 -544h-256l332 -332l8 -12l344 344h-256q8 256 176 424t420 172q256 -4 424 -172t176 -424q-8 -256 -176 -424t-424 -172q-124 0 -232 46t-188 130l-120 -124q104 -104 242 -164t298 -60q328 8 544 224t224 544q-8 328 -224 544
t-544 224zM940 1050v-424l364 -220l64 104l-300 180v360h-128z" />
    <glyph glyph-name="robot" unicode="&#x6c1;" arabic-form="final" 
d="M940 1562q72 0 120 -48t52 -120q0 -48 -24 -88t-64 -60v-108h88q252 -8 420 -176t176 -424h84q36 0 60 -24t28 -60v-256q-4 -36 -28 -60t-60 -24h-84v-88q0 -72 -50 -120t-122 -48h-1192q-72 0 -122 48t-50 120v88h-84q-36 0 -60 24t-28 60v256q4 36 28 60t60 24h84
q8 256 176 424t420 176h88v108q-40 20 -64 60t-24 88q4 72 52 120t120 48zM556 626q-92 -4 -152 -64t-60 -150t60 -150t152 -60t152 60t60 150t-60 150t-152 64zM1324 626q-92 -4 -152 -64t-60 -150t60 -150t152 -60t152 60t60 150t-60 150t-152 64z" />
    <glyph glyph-name="format-rotate-90" unicode="&#x6c1;" arabic-form="initial" 
d="M556 1132l-556 -552l556 -552l552 552zM244 580l312 312l312 -312l-312 -312zM1580 1112q-112 116 -252 172t-292 56v276l-360 -364l360 -360v276q116 0 226 -44t198 -132q176 -184 176 -422t-176 -422q-88 -88 -198 -132t-226 -44q-124 0 -240 52l-128 -124
q172 -96 368 -96q152 0 292 56t252 168q224 236 224 542t-224 542z" />
    <glyph glyph-name="scanner" unicode="&#x6c1;" arabic-form="medial" 
d="M1432 866l-1328 484l-60 -160l1200 -436h-1072q-72 0 -122 -50t-50 -122v-340q0 -72 50 -120t122 -52h1192q72 4 122 52t50 120v468q0 56 -28 98t-76 58zM340 326h-168v172h168v-172zM1364 326h-852v172h852v-172z" />
    <glyph glyph-name="subway" unicode="&#x6be;" arabic-form="isolated" 
d="M552 452q36 0 60 -24t24 -60t-24 -60t-60 -24t-60 24t-24 60t24 60t60 24zM424 964h856v-428h-856v428zM1152 452q36 0 60 -24t24 -60t-24 -60t-60 -24t-60 24t-24 60t24 60t60 24zM1364 376v588q-4 164 -150 212t-362 44q-200 4 -352 -44t-160 -212v-588q4 -96 66 -158
t158 -66l-96 -96v-32h144l128 128h240l128 -128h128v32l-96 96q96 4 158 66t66 158zM1348 1492q172 -68 264 -202t92 -314v-1120h-1704v1120q0 180 92 314t264 202q116 44 246 58t250 14t250 -14t246 -58z" />
    <glyph glyph-name="timer-sand-empty" unicode="&#x6be;" arabic-form="final" 
d="M88 1562v-512l340 -340l-340 -340v-512h1024v512l-340 340l340 340v512h-1024zM940 326v-300h-680v300l340 340zM600 754l-340 340v300h680v-300z" />
    <glyph glyph-name="transit-transfer" unicode="&#x6be;" arabic-form="initial" 
d="M1236 432h468v-128h-468v-148l-212 212l212 216v-152zM1492 72v148l212 -212l-212 -216v152h-468v128h468zM640 1288q-72 0 -122 48t-50 120t50 122t122 50t120 -50t48 -122t-48 -120t-120 -48zM320 996l-152 -64v-284h-168v400l448 184q32 12 64 12q92 -4 144 -80
l80 -136q60 -96 156 -152t216 -60v-168q-140 0 -260 58t-204 162l-52 -256l176 -176v-644h-172v512l-184 172l-148 -684h-180z" />
    <glyph glyph-name="unity" unicode="&#x6be;" arabic-form="medial" 
d="M640 282h-220l-420 428l420 428h220l112 192l580 148l160 -576l-112 -192l112 -192l-160 -576l-580 148zM652 306l440 -120l-252 440h-508zM1240 274l116 436l-116 436l-252 -436zM652 1114l-320 -320h508l252 440z" />
    <glyph glyph-name="update" unicode="&#x6d2;" arabic-form="isolated" 
d="M1536 870h-580l236 240q-184 176 -422 178t-422 -170q-176 -180 -176 -416t176 -420q184 -172 422 -172t422 172q172 172 172 420h172q0 -132 -56 -278t-168 -258q-236 -224 -544 -224t-544 224q-224 232 -224 536t224 536q236 224 540 224t540 -224l232 240v-608z
M812 1050v-360l296 -180l-60 -104l-364 220v424h128z" />
    <glyph glyph-name="watch-vibrate" unicode="&#x6d2;" arabic-form="final" 
d="M256 280v856h172v-856h-172zM1620 280v856h172v-856h-172zM1876 964h172v-512h-172v512zM0 452v512h172v-512h-172zM1532 712q0 -124 -52 -228t-140 -176l-64 -364h-508l-64 364q-88 72 -140 176t-52 226t52 226t140 176l64 364h508l64 -364q88 -72 140 -176t52 -224z
M640 712q4 -164 112 -272t270 -108t270 108t108 270t-108 270t-270 108t-270 -108t-112 -268z" />
    <glyph glyph-name="angular" unicode="&#x6d3;" arabic-form="isolated" 
d="M756 1522l756 -272l-116 -996l-640 -356l-640 356l-116 996zM756 1342l-472 -1060h176l96 240h400l96 -240h172zM896 666h-276l136 332z" />
    <glyph glyph-name="dolby" unicode="&#x6d3;" arabic-form="final" 
d="M0 1306v-1192h1704v1192h-1704zM340 282h-172v856h172q188 -12 308 -132t120 -296t-120 -296t-308 -132zM1536 282h-172q-188 12 -308 132t-120 296t120 296t308 132h172v-856z" />
    <glyph glyph-name="flash-outline" unicode="&#x6ad;" arabic-form="isolated" 
d="M172 1562h856l-300 -596h300l-600 -1108v680h-256v1024zM344 1394v-684h256v-228l172 312h-324l304 600h-408z" />
    <glyph glyph-name="format-font" unicode="&#x6ad;" arabic-form="final" 
d="M1196 1050h256v-1024h84v-84h-340v84h84v256h-340l-128 -256h128v-84h-344v84h88zM1280 966l-300 -596h300v596zM172 1478h424q76 0 124 -48t48 -124v-936h-256v424h-256v-424h-256v936q0 76 48 124t124 48zM256 1306v-340h256v340h-256z" />
    <glyph glyph-name="format-page-break" unicode="&#x6ad;" arabic-form="initial" 
d="M340 794h172v-168h-172v168zM684 794h168v-168h-168v168zM1364 282h-340v500l512 -512v-412h-1536v768h172v-600h1192v256zM0 1562h1536v-768h-172v600h-1192v-600h-172v768z" />
    <glyph glyph-name="format-pilcrow" unicode="&#x6ad;" arabic-form="medial" 
d="M426 794q-144 4 -240 100t-96 242t96 242t240 100h684v-172h-172v-1364h-168v1364h-172v-1364h-172v852z" />
    <glyph glyph-name="garage" unicode="&#x6c7;" arabic-form="isolated" 
d="M1196 70h-168v768h-856v-768h-168v940l596 340l596 -340v-940zM260 754h680v-172h-680v172zM260 498h680v-172h-680v172zM940 242v-172h-680v172h680z" />
    <glyph glyph-name="garage-open" unicode="&#x6c7;" arabic-form="final" 
d="M1196 70h-168v768h-856v-768h-168v940l596 340l596 -340v-940zM260 754h680v-172h-680v172z" />
    <glyph glyph-name="github-face" unicode="&#x6c6;" arabic-form="isolated" 
d="M1568 1048q12 28 24 122t-40 230q0 8 -88 -4t-280 -132q-160 36 -332 32q-172 4 -332 -32q-192 124 -280 134t-88 2q-52 -136 -40 -230t24 -122q-132 -140 -136 -356q4 -404 238 -544t614 -132q376 -8 612 132t240 544q-4 216 -136 356zM852 124q-272 -12 -452 48
t-184 308q0 124 108 220q88 72 224 64t304 -16q168 8 304 16t224 -64q108 -96 112 -220q-8 -244 -188 -306t-452 -50zM584 656q-52 0 -90 -54t-38 -134t38 -136t92 -56t90 54t36 136t-36 136t-92 54zM1120 656q-56 0 -92 -54t-36 -136t36 -136t90 -54t92 54t38 136t-36 136
t-92 54z" />
    <glyph glyph-name="google-keep" unicode="&#x6c6;" arabic-form="final" 
d="M168 1562h1368q72 0 120 -48t48 -120v-1140l-396 -396h-1140q-72 0 -120 48t-48 120v1368q0 72 48 120t120 48zM1280 282v-276l276 276h-276zM680 114h344v84h84v428q80 56 124 146t48 194q-4 180 -126 302t-302 126q-180 -4 -302 -126t-126 -302q4 -104 48 -194
t124 -146v-428h84v-84zM1024 282h-344v88h344v-88zM1024 454h-344v84h344v-84zM852 1306q144 -4 240 -100t100 -240q0 -96 -46 -174t-122 -122v-44h-344v44q-76 44 -122 122t-46 174q4 144 100 240t240 100z" />
    <glyph glyph-name="google-photos" unicode="&#x6c8;" arabic-form="isolated" 
d="M1280 710v428l-428 424v-424h-428l-424 -428h424v-428l428 -424v424h428l424 428h-424zM928 634l-76 -224l-76 224l-224 76l224 76l76 228l76 -228l224 -76z" />
    <glyph glyph-name="heart-half-full" unicode="&#x6c8;" arabic-form="final" 
d="M1236 1320q-100 0 -180 -52t-120 -136v-896q276 244 436 430t164 358q-4 128 -86 212t-214 84zM1236 1492q200 -4 332 -136t136 -332q-4 -236 -200 -464t-528 -520l-124 -112l-124 112q-332 292 -528 520t-200 464q4 200 136 332t332 136q112 0 212 -48t172 -128
q72 80 172 128t212 48z" />
    <glyph glyph-name="heart-half" unicode="&#x677;" arabic-form="isolated" 
d="M1068 1132v-1128l-84 -76l-124 112q-332 292 -528 520t-200 464q4 200 136 332t332 136q168 -4 314 -108t154 -252z" />
    <glyph glyph-name="heart-half-outline" unicode="&#x6cb;" arabic-form="isolated" 
d="M300 1024q4 -172 164 -358t436 -430v896q-40 84 -120 136t-180 52q-132 0 -214 -84t-86 -212zM1068 1132v-1128l-84 -76l-124 112q-332 292 -528 520t-200 464q4 200 136 332t332 136q168 -4 314 -108t154 -252z" />
    <glyph glyph-name="hexagon-multiple" unicode="&#x6cb;" arabic-form="final" 
d="M620 1562q24 0 36 -20l188 -340l8 -24l-8 -24l-188 -336q-12 -20 -36 -24h-384q-28 4 -40 24l-188 336l-8 24l8 24l188 340q12 20 40 20h384zM620 626q24 -4 36 -24l188 -336l8 -24l-8 -24l-188 -340q-12 -20 -36 -20h-384q-28 0 -40 20l-188 340l-8 24l8 24l188 336
q12 20 40 24h384zM1408 1094q24 0 36 -24l192 -336l8 -24l-8 -24l-192 -336q-12 -24 -36 -24h-384q-24 0 -36 24l-192 336l-8 24l8 24l192 336q12 24 36 24h384z" />
    <glyph glyph-name="hook" unicode="&#x6c5;" arabic-form="isolated" 
d="M1154 1224q0 -120 -70 -210t-186 -118v-612q-4 -180 -124 -300t-304 -124q-180 4 -300 124t-124 300v428l424 -428h-256q4 -108 76 -180t182 -72t182 72t72 180v612q-112 32 -182 122t-74 210q4 144 102 238t242 94t240 -96t100 -240zM814 1052q72 4 120 52t48 120
t-48 120t-120 48t-122 -48t-50 -120t50 -120t122 -52z" />
    <glyph glyph-name="hook-off" unicode="&#x6c5;" arabic-form="final" 
d="M936 894v-116l172 -168v284q140 40 210 156t32 256t-154 210t-258 34t-210 -154t-36 -258q24 -92 90 -156t154 -88zM1024 1394q72 -4 120 -52t48 -120t-48 -120t-120 -48t-122 48t-50 120t50 120t122 52zM1428 -142l-332 328q-48 -172 -194 -262t-322 -50
q-144 36 -234 148t-90 260v428l424 -428h-256q4 -108 76 -180t182 -72t182 72t72 180v64l-936 940l108 108l1428 -1428z" />
    <glyph glyph-name="infinity" unicode="&#x6c9;" arabic-form="isolated" 
d="M1588 1170q196 -4 326 -134t134 -326q-4 -196 -134 -324t-326 -136q-192 4 -328 136l-236 208l-240 -212q-64 -64 -148 -98t-176 -34q-196 4 -326 134t-134 326q4 196 134 326t326 134q192 -4 328 -136l236 -208l240 212q64 64 148 98t176 34zM664 506l232 204l-228 200
q-88 88 -210 86t-204 -82t-82 -204t82 -204t204 -82t206 82zM1384 914l-232 -204l228 -200q88 -88 210 -86t204 82t82 204t-82 204t-204 82t-206 -82z" />
    <glyph glyph-name="language-swift" unicode="&#x6c9;" arabic-form="final" 
d="M1288 50q-156 -88 -352 -92t-404 84q-172 72 -308 190t-224 266q84 -72 196 -120q216 -100 418 -98t358 98q-216 168 -396 366t-320 378q-52 60 -96 128q524 -404 546 -426t-338 510q324 -316 558 -486t246 -174l32 -16q12 32 20 64q48 184 0 380t-176 372
q296 -184 442 -472t78 -572q-4 -12 -4 -32q136 -192 140 -332t-24 -116q-84 144 -200 142t-192 -42z" />
    <glyph glyph-name="language-typescript" unicode="&#x6d0;" arabic-form="isolated" 
d="M0 1478h1536v-1536h-1536v1536zM912 210q32 -64 98 -106t170 -42t170 52t66 148q0 88 -50 140t-142 88l-36 16q-44 20 -66 38t-22 50q4 56 66 60t98 -60l108 72q-68 120 -204 116q-96 -4 -152 -56t-56 -138t46 -134t126 -80l36 -16q48 -20 76 -40t28 -54t-26 -54t-76 -20
t-82 24t-56 64zM852 774h-424v-128h128v-620h148v620h148v128z" />
    <glyph glyph-name="laptop-off" unicode="&#x6d0;" arabic-form="final" 
d="M84 1412l112 108l1512 -1512l-108 -108l-172 168h-1428v172h340q-72 0 -120 50t-48 122v852q0 28 8 52zM340 412h748l-748 744v-744zM1708 412v852h-1040l-172 172h1212q72 -4 120 -52t48 -120v-852q0 -72 -48 -122t-120 -50h340v-172h-188l-340 344h188z" />
    <glyph glyph-name="lightbulb-on" unicode="&#x6d0;" arabic-form="initial" 
d="M940 1222q216 -4 362 -150t150 -362q0 -144 -70 -260t-186 -184v-152q0 -36 -24 -60t-60 -28h-344q-36 4 -60 28t-24 60v152q-116 68 -186 184t-70 260q4 216 150 362t362 150zM1112 -58v-84q-4 -36 -28 -60t-60 -28h-168q-36 4 -60 28t-28 60v84h344zM1624 794h256v-168
h-256v168zM0 794h256v-168h-256v168zM1024 1650v-256h-168v256h168zM336 1434l180 -180l-120 -120l-180 180zM1364 1254l180 180l120 -120l-180 -180z" />
    <glyph glyph-name="lightbulb-on-outline" unicode="&#x6d0;" arabic-form="medial" 
d="M1624 794h256v-168h-256v168zM0 794h256v-168h-256v168zM1024 1650v-256h-168v256h168zM336 1434l180 -180l-120 -120l-180 180zM1364 1254l180 180l120 -120l-180 -180zM940 1222q216 -4 362 -150t150 -362q0 -144 -70 -260t-186 -184v-152q0 -36 -24 -60t-60 -28h-344
q-36 4 -60 28t-24 60v152q-116 68 -186 184t-70 260q4 216 150 362t362 150zM1112 -58v-84q-4 -36 -28 -60t-60 -28h-168q-36 4 -60 28t-28 60v84h344zM856 198h168v180q116 32 186 122t70 210q-4 144 -100 240t-240 96t-240 -96t-100 -240q0 -120 70 -210t186 -122v-180z
" />
    <glyph glyph-name="lock-pattern" unicode="&#x649;" arabic-form="initial" 
d="M340 1476q148 -4 244 -100t100 -240q-4 -124 -74 -212t-182 -120v-192q48 -12 88 -36l384 384q-44 80 -48 176q4 144 100 240t242 96t242 -96t96 -242t-96 -242t-240 -100q-96 4 -172 48l-388 -388q44 -76 48 -172q-4 -144 -100 -240t-242 -96t-242 96t-100 240
q4 124 74 212t182 120v192q-112 32 -182 120t-74 212q4 144 100 240t240 100zM1196 624q144 -4 240 -100t96 -242t-96 -242t-242 -96t-242 96t-96 242t96 242t244 100zM1196 452q-72 0 -122 -50t-50 -122t50 -120t122 -48t120 48t48 120t-48 122t-120 50z" />
    <glyph glyph-name="loop" unicode="&#x649;" arabic-form="medial" 
d="M596 580v-596h-596v172h304q-104 108 -162 250t-58 302q8 348 238 576t574 236q344 -8 572 -236t236 -576q-8 -344 -236 -572t-572 -236h-44v168h44q272 8 452 188t188 452q-8 272 -188 454t-452 186q-272 -4 -454 -186t-186 -454q0 -124 44 -236t124 -196v304h172z" />
    <glyph glyph-name="magnify-minus-outline" unicode="&#xfbea;" arabic-form="isolated" 
d="M1068 516h-68l-24 24q64 72 98 164t34 196q-4 236 -160 394t-392 162q-236 -4 -394 -162t-162 -394q4 -236 162 -392t394 -160q104 0 196 34t164 98l24 -24v-68l424 -424l128 128zM556 516q-164 4 -272 112t-108 272t108 272t272 108t272 -108t108 -272t-108 -272
t-272 -112zM340 944h428v-84h-428v84z" />
    <glyph glyph-name="magnify-plus-outline" unicode="&#xfbeb;" arabic-form="final" 
d="M1068 516l424 -424l-128 -128l-424 424v68l-24 24q-72 -64 -164 -98t-196 -34q-236 4 -394 160t-162 392q4 236 162 394t394 162q236 -4 392 -162t160 -394q0 -104 -34 -196t-98 -164l24 -24h68zM556 516q164 4 272 112t108 272t-108 272t-272 108t-272 -108t-108 -272
t108 -272t272 -112zM768 860h-172v-172h-84v172h-172v84h172v172h84v-172h172v-84z" />
    <glyph glyph-name="mailbox" unicode="&#xfbec;" arabic-form="isolated" 
d="M1536 1136h-856v-512h-168v684h512v340h-684v-512h-172q-72 0 -120 -50t-48 -122v-1024q0 -72 48 -120t120 -48h1368q72 0 120 48t48 120v1024q0 72 -48 122t-120 50z" />
    <glyph glyph-name="medical-bag" unicode="&#xfbed;" arabic-form="final" 
d="M681 1478l-168 -172v-168h-256q-76 -4 -120 -54t-52 -118l-84 -852q-8 -68 34 -118t134 -54h1368q92 4 134 54t34 118l-84 852q-8 68 -54 118t-118 54h-256v168l-168 172h-344zM681 1306h344v-168h-344v168zM769 882h168v-256h256v-172h-256v-256h-168v256h-256v172h256
v256z" />
    <glyph glyph-name="message-settings" unicode="&#xfbee;" arabic-form="isolated" 
d="M1536 1648h-1368q-72 0 -120 -48t-48 -120v-1536l340 340h1196q72 0 120 50t48 122v1024q0 72 -48 120t-120 48zM768 -228h168v172h-168v-172zM424 -228h172v172h-172v-172zM1108 -228h172v172h-172v-172z" />
    <glyph glyph-name="message-settings-variant" unicode="&#xfbef;" arabic-form="final" 
d="M980 882q0 -56 -36 -92t-92 -36t-92 36t-36 90t36 90t92 36t92 -36t36 -88zM1704 1394v-1024q0 -72 -48 -122t-120 -50h-1196l-340 -340v1536q0 72 48 120t120 48h1368q72 0 120 -48t48 -120zM1260 770l-92 68q0 20 2 42t-2 42l92 72q12 12 4 28l-88 148q-8 16 -24 8
l-108 -40q-32 24 -72 40l-16 112q-4 16 -20 16h-168q-20 0 -24 -16l-16 -112q-36 -16 -72 -40l-108 40q-16 8 -24 -8l-84 -148q-8 -16 4 -28l88 -72q-4 -40 0 -84l-88 -68q-12 -12 -4 -28l84 -148q8 -16 24 -12l108 44q32 -28 72 -44l16 -112q4 -16 24 -16h168q20 0 24 16
l16 116q36 16 72 40l104 -44q20 -4 28 12l84 148q8 16 -4 28z" />
    <glyph glyph-name="minus-box-outline" unicode="&#xfbf0;" arabic-form="isolated" 
d="M1364 114v1192h-1192v-1192h1192zM1364 1478q72 0 122 -50t50 -122v-1192q0 -72 -50 -122t-122 -50h-1192q-72 0 -122 50t-50 122v1192q0 76 50 124t122 48h1192zM1196 794v-168h-856v168h856z" />
    <glyph glyph-name="network" unicode="&#xfbf1;" arabic-form="final" 
d="M1280 1564q72 0 120 -50t48 -122v-852q0 -72 -48 -120t-120 -52h-344v-168h88q36 -4 60 -28t24 -60h596v-168h-596q0 -36 -24 -60t-60 -28h-344q-36 4 -60 28t-24 60h-596v168h596q0 36 24 60t60 28h88v168h-344q-72 4 -120 52t-48 120v852q0 72 48 122t120 50h856z" />
    <glyph glyph-name="download-network" unicode="&#xfbf2;" arabic-form="isolated" 
d="M1280 1564q72 0 120 -50t48 -122v-852q0 -72 -48 -120t-120 -52h-344v-168h88q36 -4 60 -28t24 -60h596v-168h-596q0 -36 -24 -60t-60 -28h-344q-36 4 -60 28t-24 60h-596v168h596q0 36 24 60t60 28h88v168h-344q-72 4 -120 52t-48 120v852q0 72 48 122t120 50h856z
M852 584l384 384h-300v340h-168v-340h-300z" />
    <glyph glyph-name="help-network" unicode="&#xfbf3;" arabic-form="final" 
d="M1280 1564q72 0 120 -50t48 -122v-852q0 -72 -48 -120t-120 -52h-344v-168h88q36 -4 60 -28t24 -60h596v-168h-596q0 -36 -24 -60t-60 -28h-344q-36 4 -60 28t-24 60h-596v168h596q0 36 24 60t60 28h88v168h-344q-72 4 -120 52t-48 120v852q0 72 48 122t120 50h856z
M868 1392q-112 0 -180 -50t-64 -150v-4h164q0 40 24 60t60 20t60 -24t24 -64t-20 -70t-52 -50q-68 -44 -92 -78t-24 -102h168q0 40 12 64t44 44q56 32 94 80t38 112q0 96 -68 154t-188 58zM768 796v-172h168v172h-168z" />
    <glyph glyph-name="upload-network" unicode="&#xfbf4;" arabic-form="isolated" 
d="M1280 1564q72 0 120 -50t48 -122v-852q0 -72 -48 -120t-120 -52h-344v-168h88q36 -4 60 -28t24 -60h596v-168h-596q0 -36 -24 -60t-60 -28h-344q-36 4 -60 28t-24 60h-596v168h596q0 36 24 60t60 28h88v168h-344q-72 4 -120 52t-48 120v852q0 72 48 122t120 50h856z
M852 1352l-384 -384h300v-344h168v344h300z" />
    <glyph glyph-name="npm" unicode="&#xfbf5;" arabic-form="final" 
d="M84 924v-344h172v256h84v-256h88v344h-344zM512 924v-428h172v84h168v344h-340zM768 836v-168h-84v168h84zM940 924v-344h168v256h88v-256h84v256h84v-256h88v344h-512zM0 1008h1536v-512h-768v-84h-340v84h-428v512z" />
    <glyph glyph-name="nut" unicode="&#xfbf6;" arabic-form="isolated" 
d="M1536 326q-4 -52 -44 -76l-676 -376q-20 -16 -48 -16t-48 16l-676 376q-40 24 -44 76v768q4 52 44 76l676 376q20 16 48 16t48 -16l676 -376q40 -24 44 -76v-768zM768 1138q-180 -4 -302 -126t-126 -302q4 -180 126 -302t302 -126q180 4 302 126t126 302q-4 180 -126 302
t-302 126z" />
    <glyph glyph-name="octagram" unicode="&#xfbf7;" arabic-form="final" 
d="M0 362l144 348l-144 348l348 140l140 348l348 -144l348 144l140 -348l348 -140l-144 -348l144 -348l-348 -140l-140 -348l-348 144l-348 -144l-140 348z" />
    <glyph glyph-name="page-layout-body" unicode="&#xfbf8;" arabic-form="initial" 
d="M172 1562h1024q72 0 120 -48t52 -120v-1368q-4 -72 -52 -120t-120 -48h-1024q-72 0 -120 48t-52 120v1368q4 72 52 120t120 48zM172 1050v-680h1024v680h-1024z" />
    <glyph glyph-name="page-layout-footer" unicode="&#xfbf9;" arabic-form="isolated" 
d="M172 1562h1024q72 0 120 -48t52 -120v-1368q-4 -72 -52 -120t-120 -48h-1024q-72 0 -120 48t-52 120v1368q4 72 52 120t120 48zM172 370v-344h1024v344h-1024z" />
    <glyph glyph-name="page-layout-header" unicode="&#xfbfa;" arabic-form="final" 
d="M172 1562h1024q72 0 120 -48t52 -120v-1368q-4 -72 -52 -120t-120 -48h-1024q-72 0 -120 48t-52 120v1368q4 72 52 120t120 48zM172 1394v-344h1024v344h-1024z" />
    <glyph glyph-name="page-layout-sidebar-left" unicode="&#xfbfb;" arabic-form="initial" 
d="M172 1562h1024q72 0 120 -48t52 -120v-1368q-4 -72 -52 -120t-120 -48h-1024q-72 0 -120 48t-52 120v1368q4 72 52 120t120 48zM172 1050v-680h340v680h-340z" />
    <glyph glyph-name="page-layout-sidebar-right" unicode="&#x6cc;" arabic-form="isolated" 
d="M172 1562h1024q72 0 120 -48t52 -120v-1368q-4 -72 -52 -120t-120 -48h-1024q-72 0 -120 48t-52 120v1368q4 72 52 120t120 48zM856 1050v-680h340v680h-340z" />
    <glyph glyph-name="pencil-circle" unicode="&#x6cc;" arabic-form="final" 
d="M852 1562q-364 -8 -604 -248t-248 -604q8 -364 248 -604t604 -248q364 8 604 248t248 604q-8 364 -248 604t-604 248zM1116 1130q20 0 36 -12l108 -108q28 -36 0 -68l-88 -84l-172 172l84 88q12 12 32 12zM948 982l176 -176l-516 -516h-176v176z" />
    <glyph glyph-name="pentagon" unicode="&#x6cc;" arabic-form="initial" 
d="M852 1522l-852 -624l324 -1000h1056l324 1000z" />
    <glyph glyph-name="pentagon-outline" unicode="&#x6cc;" arabic-form="medial" 
d="M852 1306l648 -468l-248 -760h-800l-248 760zM852 1522l-852 -624l324 -1000h1048l332 1000z" />
    <glyph glyph-name="pillar" unicode="&#xfc00;" arabic-form="isolated" 
d="M256 1306h1024q36 0 60 -24t24 -60t-24 -60t-60 -24h-1024q-36 0 -60 24t-24 60t24 60t60 24zM1536 1562v-168h-1536v168h1536zM1024 1050h172v-1192h-172v1192zM340 1050h172v-1192h-172v1192zM684 1050h168v-1192h-168v1192z" />
    <glyph glyph-name="pistol" unicode="&#xfc01;" arabic-form="isolated" 
d="M522 1307h1368v-340h-88v-84h-512q-36 -4 -60 -28t-24 -60v-84q0 -72 -50 -120t-122 -52h-288q-52 0 -76 -48l-208 -416q-24 -44 -76 -48h-288q-28 -16 -86 64t170 448q28 24 86 172t-170 172v424h84l44 88h256zM1122 711v84q-4 36 -28 60t-60 28h-84q-8 -4 -32 -54
t32 -118q-72 0 -120 50t-52 122q-36 -4 -60 -28t-24 -60v-84q0 -36 24 -60t60 -24h256q36 0 60 24t28 60z" />
    <glyph glyph-name="plus-box-outline" unicode="&#xfc02;" arabic-form="isolated" 
d="M1364 114v1192h-1192v-1192h1192zM1364 1478q72 0 122 -50t50 -122v-1192q0 -72 -50 -122t-122 -50h-1192q-72 0 -122 50t-50 122v1192q0 76 50 124t122 48h1192zM684 1138h168v-344h344v-168h-344v-344h-168v344h-344v168h344v344z" />
    <glyph glyph-name="plus-outline" unicode="&#xfc03;" arabic-form="isolated" 
d="M0 966h428v428h512v-428h428v-512h-428v-428h-512v428h-428v512zM600 626v-428h168v428h428v168h-428v428h-168v-428h-428v-168h428z" />
    <glyph glyph-name="prescription" unicode="&#xfc04;" arabic-form="isolated" 
d="M0 1410v-856h172v344h172l460 -464l-304 -304l120 -120l304 304l308 -304l120 120l-308 304l308 308l-120 120l-308 -308l-340 344h16q108 0 180 72t72 182t-72 182t-180 76h-600zM172 1238h428q36 0 60 -24t24 -60t-24 -60t-60 -28h-428v172z" />
    <glyph glyph-name="printer-settings" unicode="&#xfc05;" arabic-form="isolated" 
d="M1364 1648v-340h-1024v340h1024zM1448 880q36 4 60 28t24 60t-24 60t-60 24t-60 -24t-24 -60t24 -60t60 -28zM1192 284v428h-680v-428h680zM1448 1224q112 -4 184 -76t72 -180v-512h-340v-344h-1024v344h-340v512q0 108 72 180t184 76h1192zM1108 -228v172h172v-172h-172
zM768 -228v172h168v-172h-168zM424 -228v172h172v-172h-172z" />
    <glyph glyph-name="react" unicode="&#xfc06;" arabic-form="isolated" 
d="M916 870q68 0 112 -46t44 -112t-44 -112t-112 -46t-112 46t-44 112t44 112t112 46zM520 26q44 -24 124 14t184 134q-68 76 -128 160q-108 12 -204 32q-32 -140 -24 -228t48 -112zM580 518l-24 44q-16 -40 -24 -76l76 -12zM1140 582l68 128l-68 128q-40 68 -80 124
q-68 4 -144 4t-144 -4q-40 -56 -80 -124l-68 -128l68 -128q40 -68 80 -124q68 -4 144 -4t144 4q40 56 80 124zM916 1154q-24 -28 -52 -60h104q-28 32 -52 60zM916 266q24 28 52 60h-104q28 -32 52 -60zM1312 1394q-44 24 -124 -14t-184 -134q68 -76 128 -160
q108 -12 204 -32q32 140 24 228t-48 112zM1252 902l24 -44q16 40 24 76l-76 12zM1376 1506q92 -56 108 -186t-24 -294q164 -52 268 -130t104 -186t-104 -186t-268 -130q40 -164 24 -294t-110 -182t-214 -4t-244 168q-124 -120 -244 -168t-214 4t-110 182t24 294
q-164 52 -268 130t-104 186t104 186t268 130q-40 164 -24 294t110 182t214 4t244 -168q124 120 244 168t216 0zM1348 710q44 -96 76 -192q136 40 208 92t72 100t-72 100t-208 92q-32 -96 -76 -192zM484 710q-44 96 -76 192q-136 -40 -208 -92t-72 -100t72 -100t208 -92
q32 96 76 192zM1252 518l-28 -44l76 12q-8 36 -24 76zM1004 174q104 -96 184 -134t122 -14t50 112t-24 228q-96 -20 -204 -32q-60 -84 -128 -160zM580 902l28 44l-76 -12q8 -36 24 -76zM828 1246q-104 96 -184 134t-122 14t-50 -112t24 -228q96 20 204 32q60 84 128 160z
" />
    <glyph glyph-name="restart" unicode="&#xfc07;" arabic-form="isolated" 
d="M683 1253q132 0 256 -50t224 -150q200 -212 200 -484t-200 -480q-120 -120 -270 -168t-306 -28l48 168q108 -12 216 26t192 122q152 156 152 360t-152 364q-76 76 -170 112t-190 36v-392l-424 424l424 420v-280zM199 85q-168 176 -194 402t90 430l124 -128
q-68 -144 -42 -302t142 -278q68 -68 148 -104l-40 -168q-128 52 -228 148z" />
    <glyph glyph-name="rewind-outline" unicode="&#xfc08;" arabic-form="isolated" 
d="M552 890l-256 -180l256 -180v360zM1320 890l-256 -180l256 -180v360zM724 1222v-1024l-724 512zM1492 1222v-1024l-724 512z" />
    <glyph glyph-name="rhombus" unicode="&#xfc09;" arabic-form="isolated" 
d="M1668 814l-708 708q-48 44 -104 44t-104 -44l-708 -708q-44 -48 -44 -104t44 -104l708 -708q48 -44 104 -44t104 44l708 708q36 48 36 104t-36 104z" />
    <glyph glyph-name="rhombus-outline" unicode="&#xfc0a;" arabic-form="isolated" 
d="M1668 814l-708 708q-48 44 -104 44t-104 -44l-708 -708q-44 -48 -44 -104t44 -104l708 -708q48 -44 104 -44t104 44l708 708q36 48 36 104t-36 104zM1564 710l-708 -708l-708 708l708 708z" />
    <glyph glyph-name="roomba" unicode="&#xfc0b;" arabic-form="isolated" 
d="M852 1562q172 0 326 -64t278 -184l-120 -120q-100 96 -224 148t-260 52t-260 -52t-224 -148l-120 120q124 120 278 184t326 64zM140 1178l124 -120q-92 -160 -96 -348q8 -292 200 -484t484 -200q292 8 484 200t200 484q-4 188 -96 348l124 120q140 -212 140 -468
q-8 -364 -248 -604t-604 -248q-364 8 -604 248t-248 604q0 256 140 468zM852 1222q216 -4 362 -150t150 -362q0 -104 -38 -196t-114 -164l-120 120q-100 -100 -240 -100t-240 100l-120 -120q-76 72 -114 164t-38 196q4 216 150 362t362 150zM852 1050q-36 0 -60 -24t-24 -60
t24 -60t60 -24t60 24t24 60t-24 60t-60 24z" />
    <glyph glyph-name="run" unicode="&#xfc0c;" arabic-form="isolated" 
d="M904 1288q72 0 120 50t48 122t-48 120t-120 48t-120 -48t-48 -120t48 -122t120 -50zM596 104l84 372l180 -172v-512h172v640l-180 172l52 256q84 -96 206 -154t262 -58v168q-124 4 -218 60t-150 148l-84 136q-52 80 -144 84q-20 0 -34 -4t-34 -4l-444 -188v-400h172v292
l152 60l-136 -696l-420 88l-32 -172z" />
    <glyph glyph-name="search-web" unicode="&#xfc0d;" arabic-form="isolated" 
d="M1068 516l424 -424l-128 -128l-424 424v68l-24 24q-72 -64 -164 -98t-196 -34q-236 4 -394 160t-162 392q4 236 162 394t394 162q236 -4 392 -162t160 -394q0 -104 -34 -196t-98 -164l24 -24h68zM556 1328l-48 -4q-16 -32 -36 -86t-40 -122h244q-16 68 -38 122t-38 86
q-20 4 -44 4zM924 1116q-80 136 -228 188q32 -68 68 -188h160zM184 1116h164q32 120 64 188q-148 -52 -228 -188zM128 900q0 -64 20 -128h184l-12 128l12 128h-184q-20 -60 -20 -128zM960 772q20 64 20 130t-20 126h-180q8 -64 8 -128t-8 -128h180zM416 1028l-12 -128
l12 -128h276q12 64 12 128t-12 128h-276zM556 476h44q16 36 38 90t38 122h-244q20 -68 40 -122t36 -90h48zM924 688h-160q-36 -120 -68 -188q148 52 228 188zM184 688q80 -136 228 -188q-32 68 -64 188h-164z" />
    <glyph glyph-name="shovel" unicode="&#xfc0e;" arabic-form="isolated" 
d="M1101 1561l-240 -240q-52 -52 -52 -120t52 -120l120 -120l-388 -392l-240 244l-124 -120q-284 -324 -216 -522t100 -202q4 -32 202 -98t522 218l120 120l-240 240l388 384l120 -116q52 -52 120 -52t120 52l244 240zM1345 841l-120 116l-244 244l124 120l360 -360z" />
    <glyph glyph-name="shovel-off" unicode="&#xfc0f;" arabic-form="isolated" 
d="M1101 1561l-240 -240q-52 -52 -52 -120t52 -120l120 -124l-60 -60l124 -124l64 64l116 -120q52 -52 122 -52t122 52l240 244zM1345 841l-364 360l120 120l364 -360zM1581 -11l-120 -120l-668 664l-84 -84l240 -240l-112 -120q-324 -284 -522 -218t-202 98q-32 4 -100 202
t216 522l124 120l240 -244l84 88l-664 660l120 120z" />
    <glyph glyph-name="signal-2g" unicode="&#xfc10;" arabic-form="isolated" 
d="M768 70h-768v512q0 108 72 180t184 76h256v256h-512v256h512q108 -4 180 -76t76 -180v-256q-4 -108 -76 -180t-180 -76h-256v-256h512v-256zM1704 838h-384v-256h128v-256h-256v768h512v256h-512q-108 -4 -180 -76t-76 -180v-768q4 -108 76 -180t180 -76h256
q112 4 184 76t72 180v512z" />
    <glyph glyph-name="signal-3g" unicode="&#xfc11;" arabic-form="isolated" 
d="M768 326v192q-4 84 -58 138t-134 54q80 4 134 58t58 134v192q-4 108 -76 180t-180 76h-512v-256h512v-256h-256v-256h256v-256h-512v-256h512q108 4 180 76t76 180zM1704 326v512h-384v-256h128v-256h-256v768h512v256h-512q-108 -4 -180 -76t-76 -180v-768
q4 -108 76 -180t180 -76h256q112 4 184 76t72 180z" />
    <glyph glyph-name="signal-4g" unicode="&#xfc12;" arabic-form="isolated" 
d="M1704 326v512h-384v-256h128v-256h-256v768h512v256h-512q-108 -4 -180 -76t-76 -180v-768q4 -108 76 -180t180 -76h256q112 4 184 76t72 180zM512 70h256v1280h-256v-512h-256v512h-256v-768h512v-512z" />
    <glyph glyph-name="signal-hspa" unicode="&#xfc13;" arabic-form="isolated" 
d="M472 838h256v512h256v-1280h-256v512h-256v-512h-256v1280h256v-512z" />
    <glyph glyph-name="signal-hspa-plus" unicode="&#xfc14;" arabic-form="isolated" 
d="M1448 1050v-256h256v-256h-256v-256h-256v256h-256v256h256v256h256zM256 838h256v512h256v-1280h-256v512h-256v-512h-256v1280h256v-512z" />
    <glyph glyph-name="snowflake" unicode="&#xfc15;" arabic-form="isolated" 
d="M1544 542l-200 -52l-172 96v248l172 96l200 -52l44 164l-152 40l40 152l-168 44l-52 -200l-168 -96l-212 124v192l148 144l-120 120l-112 -108l-112 108l-120 -120l148 -144v-192l-216 -124l-168 96l-52 200l-164 -44l40 -152l-148 -40l44 -164l196 52l172 -96v-248
l-172 -96l-196 52l-44 -164l148 -40l-40 -152l168 -44l52 200l168 96l212 -124v-192l-148 -144l120 -120l112 108l112 -108l120 120l-148 144v192l216 124l168 -96l56 -196l160 40l-40 152l148 40zM580 834l212 124l212 -124v-248l-212 -124l-212 124v248z" />
    <glyph glyph-name="source-commit" unicode="&#xfc16;" arabic-form="isolated" 
d="M1026 710q-4 -156 -98 -270t-246 -150v-348h-168v348q-152 36 -246 150t-94 270t94 270t246 150v348h168v-348q152 -36 246 -150t98 -270zM598 966q-108 -4 -180 -76t-72 -180t72 -180t180 -72t180 72t72 180t-72 180t-180 76z" />
    <glyph glyph-name="source-commit-end" unicode="&#xfc17;" arabic-form="isolated" 
d="M1028 540q-4 -180 -126 -302t-302 -126q-180 4 -302 126t-126 302q4 156 98 270t246 150v348h168v-348q152 -36 246 -150t98 -270zM600 796q-108 -4 -180 -76t-72 -180t72 -180t180 -72t180 72t72 180t-72 180t-180 76z" />
    <glyph glyph-name="source-commit-end-local" unicode="&#xfc18;" arabic-form="isolated" 
d="M600 968q180 -4 302 -126t126 -302q-4 -180 -126 -302t-302 -126q-180 4 -302 126t-126 302q4 180 126 302t302 126zM600 796q-108 -4 -180 -76t-72 -180t72 -180t180 -72t180 72t72 180t-72 180t-180 76zM516 1136v172h168v-172h-168z" />
    <glyph glyph-name="source-commit-local" unicode="&#xfc19;" arabic-form="isolated" 
d="M600 1138q180 -4 302 -126t126 -302q-4 -180 -126 -302t-302 -126q-180 4 -302 126t-126 302q4 180 126 302t302 126zM600 966q-108 -4 -180 -76t-72 -180t72 -180t180 -72t180 72t72 180t-72 180t-180 76zM516 1306v172h168v-172h-168zM516 -58v172h168v-172h-168z" />
    <glyph glyph-name="source-commit-next-local" unicode="&#xfc1a;" arabic-form="isolated" 
d="M1028 710q-4 -180 -126 -302t-302 -126q-180 4 -302 126t-126 302q4 156 98 270t246 150v348h168v-348q152 -36 246 -150t98 -270zM600 966q-108 -4 -180 -76t-72 -180t72 -180t180 -72t180 72t72 180t-72 180t-180 76zM516 -58v172h168v-172h-168z" />
    <glyph glyph-name="source-commit-start" unicode="&#xfc1b;" arabic-form="isolated" 
d="M600 1308q180 -4 302 -126t126 -302q-4 -156 -98 -270t-246 -150v-348h-168v348q-152 36 -246 150t-98 270q4 180 126 302t302 126zM600 1136q-108 -4 -180 -76t-72 -180t72 -180t180 -72t180 72t72 180t-72 180t-180 76z" />
    <glyph glyph-name="source-commit-start-next-local" unicode="&#xfc1c;" arabic-form="isolated" 
d="M600 1308q180 -4 302 -126t126 -302q-4 -180 -126 -302t-302 -126q-180 4 -302 126t-126 302q4 180 126 302t302 126zM600 1136q-108 -4 -180 -76t-72 -180t72 -180t180 -72t180 72t72 180t-72 180t-180 76zM516 112v172h168v-172h-168z" />
    <glyph glyph-name="speaker-wireless" unicode="&#xfc1d;" arabic-form="isolated" 
d="M1540 106l-120 120q96 96 148 218t52 266t-52 266t-148 218l120 120q116 -116 182 -272t66 -332t-66 -332t-182 -272zM1300 350l-120 120q96 96 96 240t-96 240l120 120q68 -68 108 -160t40 -200t-40 -200t-108 -160zM168 1478h684q72 0 120 -50t52 -122v-1192
q-4 -72 -52 -122t-120 -50h-684q-72 0 -120 50t-48 122v1192q0 72 48 122t120 50zM512 1306q-72 0 -122 -48t-50 -120t50 -122t122 -50t120 50t48 122t-48 120t-120 48zM512 794q-148 -4 -244 -100t-96 -240t96 -240t242 -96t242 96t96 240t-96 240t-240 100zM512 626
q72 -4 120 -52t48 -120t-48 -120t-120 -48t-122 48t-50 120t50 120t122 52z" />
    <glyph glyph-name="stadium" unicode="&#xfc1e;" arabic-form="isolated" 
d="M256 1478h168l256 -172l-256 -168v-116q192 28 428 28t428 -28v456h168l256 -172l-256 -168v-148q120 -28 188 -68t68 -84q-8 -92 -250 -152t-602 -60t-602 60t-250 152q0 44 68 84t188 68v488zM852 922q-212 4 -320 -14t-108 -70t108 -70t320 -18t320 18t108 70t-108 70
t-320 14zM852 474q244 4 452 42t352 106l-120 -680h-428v172q0 72 -50 120t-122 48h-168q-72 0 -122 -48t-50 -120v-172h-428l-120 680q144 -68 352 -106t452 -42z" />
    <glyph glyph-name="svg" unicode="&#xfc1f;" arabic-form="isolated" 
d="M264 822h320l-224 224q-68 0 -112 46t-44 112t44 110t110 44t112 -44t46 -112l224 -224v320q-44 48 -44 110t46 108t110 46t110 -46t46 -108t-44 -110v-320l224 224q4 68 48 112t110 44t110 -44t44 -110t-44 -112t-112 -46l-224 -224h320q48 44 110 44t108 -46t46 -110
t-46 -110t-108 -46t-110 44h-320l224 -224q68 -4 112 -48t44 -110t-44 -110t-110 -44t-110 44t-48 112l-224 224v-320q44 -48 44 -110t-46 -108t-110 -46t-110 46t-46 108t44 110v320l-224 -224q0 -68 -46 -112t-112 -44t-110 44t-44 110t44 110t112 48l224 224h-320
q-48 -44 -110 -44t-108 46t-46 110t46 110t108 46t110 -44z" />
    <glyph glyph-name="tag-plus" unicode="&#xfc20;" arabic-form="isolated" 
d="M1656 746l-768 768q-52 48 -120 48h-600q-72 0 -120 -48t-48 -120v-600q0 -68 48 -120l36 -32q116 68 256 68q216 -4 362 -150t150 -362q0 -136 -68 -256l32 -36q52 -48 122 -48t118 48l600 600q48 48 48 118t-48 122zM296 1138q-52 0 -88 36t-36 90t36 90t90 36t90 -36
t36 -90t-36 -90t-92 -36zM680 114h-256v-256h-168v256h-256v168h256v256h168v-256h256v-168z" />
    <glyph glyph-name="tag-remove" unicode="&#xfc21;" arabic-form="isolated" 
d="M1656 746l-768 768q-52 48 -120 48h-600q-72 0 -120 -48t-48 -120v-600q0 -68 48 -120l36 -32q116 68 256 68q216 -4 362 -150t150 -362q0 -136 -68 -256l32 -36q52 -48 122 -48t118 48l600 600q48 48 48 118t-48 122zM296 1138q-52 0 -88 36t-36 90t36 90t90 36t90 -36
t36 -90t-36 -90t-92 -36zM520 -106l-180 184l-180 -184l-124 124l184 180l-184 180l124 120l180 -180l180 180l120 -120l-180 -180l180 -180z" />
    <glyph glyph-name="ticket-percent" unicode="&#xfc22;" arabic-form="isolated" 
d="M168 1394q-72 -4 -120 -52t-48 -120v-340q72 -4 120 -52t48 -120t-48 -120t-120 -52v-340q0 -72 48 -120t120 -52h1368q72 4 120 52t48 120v340q-72 4 -120 52t-48 120t48 120t120 52v340q0 72 -48 120t-120 52h-1368zM1152 1138l128 -128l-728 -728l-128 128zM580 1134
q64 -4 106 -46t42 -106t-42 -106t-106 -42t-106 42t-42 106t42 106t106 46zM1124 590q64 -4 106 -46t42 -106t-42 -106t-106 -42t-106 42t-42 106t42 106t106 46z" />
    <glyph glyph-name="tilde" unicode="&#xfc23;" arabic-form="isolated" 
d="M3 454q-16 32 64 256t448 256q240 -20 352 -150t288 -150q244 20 298 150t42 150h212q16 -32 -64 -256t-448 -256q-248 20 -384 150t-256 150q-244 -20 -298 -150t-42 -150h-212z" />
    <glyph glyph-name="treasure-chest" unicode="&#xfc24;" arabic-form="isolated" 
d="M256 1394h1192q112 -4 184 -76t72 -180v-344h-596v88h-512v-88h-596v344q0 108 72 180t184 76zM768 794h168v-168h-168v168zM0 710h596v-84l172 -172h168l172 172v84h596v-684h-1704v684z" />
    <glyph glyph-name="truck-trailer" unicode="&#xfc25;" arabic-form="isolated" 
d="M1704 452v-172h-1024q0 -108 -72 -180t-182 -72t-182 72t-76 180h-168v940q0 72 48 120t120 52h1112q72 -4 120 -52t48 -120v-768h256zM424 368q-36 -4 -60 -28t-24 -60t24 -60t60 -24t60 24t24 60t-24 60t-60 28z" />
    <glyph glyph-name="view-parallel" unicode="&#xfc26;" arabic-form="isolated" 
d="M0 -58v1536h344v-1536h-344zM512 -58v1536h344v-1536h-344zM1024 -58v1536h344v-1536h-344z" />
    <glyph glyph-name="view-sequential" unicode="&#xfc27;" arabic-form="isolated" 
d="M0 1394h1536v-344h-1536v344zM0 882h1536v-344h-1536v344zM0 370h1536v-344h-1536v344z" />
    <glyph glyph-name="washing-machine" unicode="&#xfc28;" arabic-form="isolated" 
d="M924 782q100 -108 100 -244t-102 -238t-238 -102t-240 100zM172 1562h1024q72 0 120 -48t52 -120v-1368q-4 -72 -52 -120t-120 -48h-1024q-72 0 -120 48t-52 120v1368q4 72 52 120t120 48zM256 1394q-36 -4 -60 -28t-24 -60t24 -60t60 -24t60 24t24 60t-24 60t-60 28z
M512 1394q-36 -4 -60 -28t-24 -60t24 -60t60 -24t60 24t24 60t-24 60t-60 28zM684 1050q-216 -4 -362 -148t-150 -364q4 -216 150 -360t362 -152q216 8 362 152t150 360q-4 220 -150 364t-362 148z" />
    <glyph glyph-name="webpack" unicode="&#xfc29;" arabic-form="isolated" 
d="M1536 326q-4 -52 -44 -76l-676 -376q-20 -16 -48 -16t-48 16l-676 376q-40 24 -44 76v768q4 52 44 76l676 376q20 16 48 16t48 -16l676 -376q40 -24 44 -76v-768zM768 1378l-596 -336v-664l596 -336l596 336v664zM768 1202l420 -240l-420 -244l-420 244zM1196 462
l-344 -196v304l344 200v-308zM684 266l-344 196v308l344 -200v-304z" />
    <glyph glyph-name="widgets" unicode="&#xfc2a;" arabic-form="isolated" 
d="M0 1422h684v-372l480 484l484 -484l-484 -480h372v-684h-684v684h312l-480 480v-312h-684v684zM0 570h684v-684h-684v684z" />
    <glyph glyph-name="wiiu" unicode="&#xfc2b;" arabic-form="isolated" 
d="M0 374q0 -144 88 -224t236 -80h1088q124 0 208 74t84 198v796q0 76 -46 138t-114 66h-252v-656q-56 -376 -436 -376t-432 364v676h-192q-96 0 -164 -54t-68 -146v-776zM624 774q28 -280 228 -274t228 214v636h-456v-576z" />
    <glyph glyph-name="arrow-down-bold" unicode="&#xfc2c;" arabic-form="isolated" 
d="M412 1386h512v-684h412l-668 -668l-668 668h412v684z" />
    <glyph glyph-name="arrow-down-bold-box" unicode="&#xfc2d;" arabic-form="isolated" 
d="M172 1478h1192q72 0 122 -50t50 -122v-1192q0 -72 -50 -122t-122 -50h-1192q-72 0 -122 50t-50 122v1192q0 72 50 122t122 50zM768 282l428 428h-256v340h-344v-340h-256z" />
    <glyph glyph-name="arrow-down-bold-box-outline" unicode="&#xfc2e;" arabic-form="isolated" 
d="M768 282l-428 428h256v340h344v-340h256zM172 1478h1192q72 0 122 -50t50 -122v-1192q0 -72 -50 -122t-122 -50h-1192q-72 0 -122 50t-50 122v1192q0 72 50 122t122 50zM172 1306v-1192h1192v1192h-1192z" />
    <glyph glyph-name="arrow-left-bold" unicode="&#xfc2f;" arabic-form="isolated" 
d="M1352 966v-512h-684v-412l-668 668l668 668v-412h684z" />
    <glyph glyph-name="arrow-left-bold-box" unicode="&#xfc30;" arabic-form="isolated" 
d="M1536 1306v-1192q0 -72 -50 -122t-122 -50h-1192q-72 0 -122 50t-50 122v1192q0 72 50 122t122 50h1192q72 0 122 -50t50 -122zM340 710l428 -428v256h340v344h-340v256z" />
    <glyph glyph-name="arrow-left-bold-box-outline" unicode="&#xfc31;" arabic-form="isolated" 
d="M340 710l428 428v-256h340v-344h-340v-256zM1536 1306v-1192q0 -72 -50 -122t-122 -50h-1192q-72 0 -122 50t-50 122v1192q0 72 50 122t122 50h1192q72 0 122 -50t50 -122zM1364 1306h-1192v-1192h1192v1192z" />
    <glyph glyph-name="arrow-right-bold" unicode="&#xfc32;" arabic-form="isolated" 
d="M0 454v512h684v412l668 -668l-668 -668v412h-684z" />
    <glyph glyph-name="arrow-right-bold-box" unicode="&#xfc33;" arabic-form="isolated" 
d="M0 114v1192q0 72 50 122t122 50h1192q72 0 122 -50t50 -122v-1192q0 -72 -50 -122t-122 -50h-1192q-72 0 -122 50t-50 122zM1196 710l-428 428v-256h-340v-344h340v-256z" />
    <glyph glyph-name="arrow-right-bold-box-outline" unicode="&#xfc34;" arabic-form="isolated" 
d="M1196 710l-428 -428v256h-340v344h340v256zM0 114v1192q0 72 50 122t122 50h1192q72 0 122 -50t50 -122v-1192q0 -72 -50 -122t-122 -50h-1192q-72 0 -122 50t-50 122zM172 114h1192v1192h-1192v-1192z" />
    <glyph glyph-name="arrow-up-bold" unicode="&#xfc35;" arabic-form="isolated" 
d="M924 34h-512v684h-412l668 668l668 -668h-412v-684z" />
    <glyph glyph-name="arrow-up-bold-box" unicode="&#xfc36;" arabic-form="isolated" 
d="M1364 -58h-1192q-72 0 -122 50t-50 122v1192q0 72 50 122t122 50h1192q72 0 122 -50t50 -122v-1192q0 -72 -50 -122t-122 -50zM768 1138l-428 -428h256v-340h344v340h256z" />
    <glyph glyph-name="arrow-up-bold-box-outline" unicode="&#xfc37;" arabic-form="isolated" 
d="M768 1138l428 -428h-256v-340h-344v340h-256zM1364 -58h-1192q-72 0 -122 50t-50 122v1192q0 72 50 122t122 50h1192q72 0 122 -50t50 -122v-1192q0 -72 -50 -122t-122 -50zM1364 114v1192h-1192v-1192h1192z" />
    <glyph glyph-name="cancel" unicode="&#xfc38;" arabic-form="isolated" 
d="M852 1562q364 -8 604 -248t248 -604q-8 -364 -248 -604t-604 -248q-364 8 -604 248t-248 604q8 364 248 604t604 248zM852 1394q-292 -8 -484 -200t-200 -484q0 -120 38 -226t106 -194l960 960q-88 68 -194 106t-226 38zM852 26q292 8 484 200t200 484q0 120 -38 226
t-106 194l-960 -960q88 -68 194 -106t226 -38z" />
    <glyph glyph-name="file-account" unicode="&#xfc39;" arabic-form="isolated" 
d="M768 966h472l-472 468v-468zM172 1562h684l512 -512v-1024q-4 -72 -52 -120t-120 -48h-1024q-72 0 -120 48t-52 120v1368q4 72 52 120t120 48zM856 26v88q-12 84 -130 126t-214 42t-212 -42t-128 -126v-88h684zM512 710q-72 0 -120 -50t-48 -122t48 -120t120 -48t122 48
t50 120t-50 122t-122 50z" />
    <glyph glyph-name="gesture-double-tap" unicode="&#xfc3a;" arabic-form="isolated" 
d="M428 1052q4 36 28 60t60 24t60 -24t24 -60v-380l104 -12l420 -188q72 -36 72 -116v-372q0 -52 -36 -88t-92 -40h-552q-52 0 -88 40l-416 356l64 68q24 24 60 24h20l272 -144v852zM516 1392q144 -4 240 -100t100 -240q0 -96 -46 -174t-126 -122v104q84 76 88 192
q-4 108 -76 180t-182 72t-182 -72t-72 -180q4 -116 84 -192v-104q-76 44 -122 122t-50 174q4 144 100 240t244 100zM516 1564q216 -4 360 -150t152 -362q-4 -108 -44 -204t-116 -164l-84 36q72 60 114 146t42 186q-4 180 -124 302t-300 126q-184 -4 -304 -126t-124 -302
q0 -132 70 -236t186 -156v-92q-152 56 -246 186t-94 298q4 216 148 362t364 150z" />
    <glyph glyph-name="gesture-swipe-down" unicode="&#xfc3b;" arabic-form="isolated" 
d="M768 1052q4 36 28 60t60 24t60 -24t24 -60v-380l104 -12l420 -188q72 -36 72 -116v-372q0 -52 -36 -88t-92 -40h-552q-52 0 -88 40l-416 356l64 68q24 24 60 24h20l272 -144v852zM0 1052l256 -256l256 256h-168v512h-172v-512h-172z" />
    <glyph glyph-name="gesture-swipe-left" unicode="&#xfc3c;" arabic-form="isolated" 
d="M596 966q4 36 28 60t60 24t60 -24t24 -60v-380l104 -12l420 -188q72 -36 72 -116v-372q0 -52 -36 -88t-92 -40h-552q-52 0 -88 40l-416 356l64 68q24 24 60 24h20l272 -144v852zM0 1394l256 -256v168h512v172h-512v172z" />
    <glyph glyph-name="gesture-swipe-right" unicode="&#xfc3d;" arabic-form="isolated" 
d="M596 966q4 36 28 60t60 24t60 -24t24 -60v-380l104 -12l420 -188q72 -36 72 -116v-372q0 -52 -36 -88t-92 -40h-552q-52 0 -88 40l-416 356l64 68q24 24 60 24h20l272 -144v852zM768 1394l-256 256v-172h-512v-172h512v-168z" />
    <glyph glyph-name="gesture-swipe-up" unicode="&#xfc3e;" arabic-form="isolated" 
d="M768 1052q4 36 28 60t60 24t60 -24t24 -60v-380l104 -12l420 -188q72 -36 72 -116v-372q0 -52 -36 -88t-92 -40h-552q-52 0 -88 40l-416 356l64 68q24 24 60 24h20l272 -144v852zM512 1308l-256 256l-256 -256h172v-512h172v512h168z" />
    <glyph glyph-name="gesture-tap" unicode="&#xfc3f;" arabic-form="isolated" 
d="M424 1138q4 36 28 60t60 24t60 -24t24 -60v-380l104 -12l420 -188q72 -36 72 -116v-372q0 -52 -36 -88t-92 -40h-552q-52 0 -88 40l-416 356l64 68q24 24 60 24h20l272 -144v852zM512 1478q144 -4 240 -100t100 -240q0 -96 -46 -174t-126 -122v104q84 76 88 192
q-4 108 -76 180t-182 72t-182 -72t-72 -180q4 -116 84 -192v-104q-76 44 -122 122t-50 174q4 144 100 240t244 100z" />
    <glyph glyph-name="gesture-two-double-tap" unicode="&#xfc40;" arabic-form="isolated" 
d="M1196 442v-544q0 -52 -36 -88t-92 -40h-552q-52 0 -88 40l-416 356l64 68q24 24 60 24h20l272 -144v852q4 36 28 60t60 24t60 -24t24 -60v172q0 36 24 60t60 24t60 -24t28 -60v-428l352 -156q32 -16 52 -46t20 -66zM684 1478q148 -4 244 -100t100 -240q-4 -100 -50 -176
t-122 -120v104q80 72 84 192q0 108 -72 180t-184 76q-88 -4 -154 -54t-90 -130q-80 -24 -130 -90t-50 -154q4 -116 84 -192v-104q-76 44 -122 122t-46 178t54 182t142 126q44 88 126 144t186 56zM684 1650q220 -8 364 -152t148 -360q0 -136 -60 -246t-164 -178l-92 44
q104 52 168 152t64 228q-4 180 -124 300t-304 124q-120 0 -218 -60t-154 -160q-104 -56 -164 -154t-60 -222q0 -132 70 -236t186 -156v-92q-152 56 -246 186t-94 298q0 140 66 254t178 182q68 112 182 178t254 70z" />
    <glyph glyph-name="gesture-two-tap" unicode="&#xfc41;" arabic-form="isolated" 
d="M1192 528v-544q0 -52 -36 -88t-92 -40h-552q-52 0 -88 40l-416 356l64 68q24 24 60 24h20l272 -144v852q4 36 28 60t60 24t60 -24t24 -60v172q0 36 24 60t60 24t60 -24t28 -60v-428l352 -156q32 -16 52 -46t20 -66zM852 928v104q28 28 48 60q36 56 36 132q0 108 -72 180
t-178 72t-178 -68l-12 -12q-20 -16 -32 -36t-20 -44l-8 -20q-80 -24 -130 -90t-50 -156t52 -154q16 -20 32 -36v-104q-76 44 -122 122t-46 178t54 182t142 126q44 88 126 144t186 56q148 -4 244 -100t100 -240q-4 -100 -50 -176t-122 -120z" />
    <glyph glyph-name="humble-bundle" unicode="&#xfc42;" arabic-form="isolated" 
d="M1272 186q-152 88 -26 684t154 684h-248q-4 -12 -58 -208t-110 -472h-212q8 112 4 220q-24 420 -198 444t-306 -100q-116 -100 -192 -256t-80 -300h112q0 20 70 174t250 178q148 -88 24 -684t-156 -684h248q8 12 74 236t118 540h204q-16 -164 -12 -332q24 -416 198 -432
t306 108q120 108 194 276t74 276h-116q4 -28 -68 -178t-248 -174z" />
    </font>
</defs>
</svg>
